G04*
G04 #@! TF.GenerationSoftware,Altium Limited,Altium Designer,22.7.1 (60)*
G04*
G04 Layer_Physical_Order=2*
G04 Layer_Color=16711680*
%FSLAX24Y24*%
%MOIN*%
G70*
G04*
G04 #@! TF.SameCoordinates,1DD6C3B8-EF33-4A04-8B88-EBD51A11C9DD*
G04*
G04*
G04 #@! TF.FilePolarity,Positive*
G04*
G01*
G75*
%ADD15C,0.0100*%
%ADD26R,0.0374X0.0315*%
%ADD28R,0.0315X0.0374*%
%ADD62C,0.0400*%
%ADD63C,0.0200*%
%ADD66C,0.0300*%
%ADD67C,0.0800*%
%ADD68R,0.0800X0.0800*%
%ADD69C,0.0591*%
%ADD70R,0.0591X0.0591*%
%ADD71R,0.0591X0.0591*%
%ADD72R,0.1000X0.1600*%
%ADD73R,0.1600X0.1000*%
%ADD74C,0.1380*%
%ADD75R,0.1000X0.0500*%
%ADD76O,0.1000X0.0500*%
%ADD77C,0.0512*%
G04:AMPARAMS|DCode=78|XSize=51.2mil|YSize=51.2mil|CornerRadius=12.8mil|HoleSize=0mil|Usage=FLASHONLY|Rotation=180.000|XOffset=0mil|YOffset=0mil|HoleType=Round|Shape=RoundedRectangle|*
%AMROUNDEDRECTD78*
21,1,0.0512,0.0256,0,0,180.0*
21,1,0.0256,0.0512,0,0,180.0*
1,1,0.0256,-0.0128,0.0128*
1,1,0.0256,0.0128,0.0128*
1,1,0.0256,0.0128,-0.0128*
1,1,0.0256,-0.0128,-0.0128*
%
%ADD78ROUNDEDRECTD78*%
G04:AMPARAMS|DCode=79|XSize=51.2mil|YSize=51.2mil|CornerRadius=12.8mil|HoleSize=0mil|Usage=FLASHONLY|Rotation=90.000|XOffset=0mil|YOffset=0mil|HoleType=Round|Shape=RoundedRectangle|*
%AMROUNDEDRECTD79*
21,1,0.0512,0.0256,0,0,90.0*
21,1,0.0256,0.0512,0,0,90.0*
1,1,0.0256,0.0128,0.0128*
1,1,0.0256,0.0128,-0.0128*
1,1,0.0256,-0.0128,-0.0128*
1,1,0.0256,-0.0128,0.0128*
%
%ADD79ROUNDEDRECTD79*%
%ADD80C,0.0315*%
G36*
X57887Y13001D02*
X25694D01*
X25679Y13051D01*
X25792Y13126D01*
X25902Y13236D01*
X25988Y13366D01*
X26048Y13510D01*
X26078Y13662D01*
Y13818D01*
X26048Y13971D01*
X25988Y14114D01*
X25902Y14244D01*
X25792Y14354D01*
X25662Y14440D01*
X25518Y14500D01*
X25366Y14530D01*
X25210D01*
X25057Y14500D01*
X24914Y14440D01*
X24784Y14354D01*
X24674Y14244D01*
X24588Y14114D01*
X24528Y13971D01*
X24498Y13818D01*
Y13662D01*
X24528Y13510D01*
X24588Y13366D01*
X24674Y13236D01*
X24784Y13126D01*
X24897Y13051D01*
X24882Y13001D01*
X24103D01*
Y14955D01*
X24110D01*
X24149Y14963D01*
X24182Y14985D01*
X24204Y15018D01*
X24212Y15057D01*
Y21360D01*
X24204Y21399D01*
X24182Y21432D01*
X24149Y21454D01*
X24110Y21462D01*
X24103D01*
Y50097D01*
X57887D01*
X57887Y13001D01*
D02*
G37*
%LPC*%
G36*
X44992Y49533D02*
X44201D01*
Y48743D01*
X44992D01*
Y49533D01*
D02*
G37*
G36*
X43649D02*
X43544D01*
X43444Y49506D01*
X43354Y49454D01*
X43280Y49381D01*
X43228Y49291D01*
X43201Y49190D01*
Y49086D01*
X43228Y48986D01*
X43280Y48895D01*
X43354Y48822D01*
X43444Y48770D01*
X43544Y48743D01*
X43649D01*
X43749Y48770D01*
X43839Y48822D01*
X43913Y48895D01*
X43965Y48986D01*
X43992Y49086D01*
Y49190D01*
X43965Y49291D01*
X43913Y49381D01*
X43839Y49454D01*
X43749Y49506D01*
X43649Y49533D01*
D02*
G37*
G36*
X42649D02*
X42544D01*
X42444Y49506D01*
X42354Y49454D01*
X42280Y49381D01*
X42228Y49291D01*
X42201Y49190D01*
Y49086D01*
X42228Y48986D01*
X42280Y48895D01*
X42354Y48822D01*
X42444Y48770D01*
X42544Y48743D01*
X42649D01*
X42749Y48770D01*
X42839Y48822D01*
X42913Y48895D01*
X42965Y48986D01*
X42992Y49086D01*
Y49190D01*
X42965Y49291D01*
X42913Y49381D01*
X42839Y49454D01*
X42749Y49506D01*
X42649Y49533D01*
D02*
G37*
G36*
X41649D02*
X41544D01*
X41444Y49506D01*
X41354Y49454D01*
X41280Y49381D01*
X41228Y49291D01*
X41201Y49190D01*
Y49086D01*
X41228Y48986D01*
X41280Y48895D01*
X41354Y48822D01*
X41444Y48770D01*
X41544Y48743D01*
X41649D01*
X41749Y48770D01*
X41839Y48822D01*
X41913Y48895D01*
X41965Y48986D01*
X41992Y49086D01*
Y49190D01*
X41965Y49291D01*
X41913Y49381D01*
X41839Y49454D01*
X41749Y49506D01*
X41649Y49533D01*
D02*
G37*
G36*
X40649D02*
X40544D01*
X40444Y49506D01*
X40354Y49454D01*
X40280Y49381D01*
X40228Y49291D01*
X40201Y49190D01*
Y49086D01*
X40228Y48986D01*
X40280Y48895D01*
X40354Y48822D01*
X40444Y48770D01*
X40544Y48743D01*
X40649D01*
X40749Y48770D01*
X40839Y48822D01*
X40913Y48895D01*
X40965Y48986D01*
X40992Y49086D01*
Y49190D01*
X40965Y49291D01*
X40913Y49381D01*
X40839Y49454D01*
X40749Y49506D01*
X40649Y49533D01*
D02*
G37*
G36*
X39649D02*
X39544D01*
X39444Y49506D01*
X39354Y49454D01*
X39280Y49381D01*
X39228Y49291D01*
X39201Y49190D01*
Y49086D01*
X39228Y48986D01*
X39280Y48895D01*
X39354Y48822D01*
X39444Y48770D01*
X39544Y48743D01*
X39649D01*
X39749Y48770D01*
X39839Y48822D01*
X39913Y48895D01*
X39965Y48986D01*
X39992Y49086D01*
Y49190D01*
X39965Y49291D01*
X39913Y49381D01*
X39839Y49454D01*
X39749Y49506D01*
X39649Y49533D01*
D02*
G37*
G36*
X38649D02*
X38544D01*
X38444Y49506D01*
X38354Y49454D01*
X38280Y49381D01*
X38228Y49291D01*
X38201Y49190D01*
Y49086D01*
X38228Y48986D01*
X38280Y48895D01*
X38354Y48822D01*
X38444Y48770D01*
X38544Y48743D01*
X38649D01*
X38749Y48770D01*
X38839Y48822D01*
X38913Y48895D01*
X38965Y48986D01*
X38992Y49086D01*
Y49190D01*
X38965Y49291D01*
X38913Y49381D01*
X38839Y49454D01*
X38749Y49506D01*
X38649Y49533D01*
D02*
G37*
G36*
X37649D02*
X37544D01*
X37444Y49506D01*
X37354Y49454D01*
X37280Y49381D01*
X37228Y49291D01*
X37201Y49190D01*
Y49086D01*
X37228Y48986D01*
X37280Y48895D01*
X37354Y48822D01*
X37444Y48770D01*
X37544Y48743D01*
X37649D01*
X37749Y48770D01*
X37839Y48822D01*
X37913Y48895D01*
X37965Y48986D01*
X37992Y49086D01*
Y49190D01*
X37965Y49291D01*
X37913Y49381D01*
X37839Y49454D01*
X37749Y49506D01*
X37649Y49533D01*
D02*
G37*
G36*
X53404Y49531D02*
X52614D01*
Y48741D01*
X53404D01*
Y49531D01*
D02*
G37*
G36*
X52061D02*
X51957D01*
X51857Y49505D01*
X51766Y49453D01*
X51693Y49379D01*
X51641Y49289D01*
X51614Y49188D01*
Y49084D01*
X51641Y48984D01*
X51693Y48893D01*
X51766Y48820D01*
X51857Y48768D01*
X51957Y48741D01*
X52061D01*
X52162Y48768D01*
X52252Y48820D01*
X52325Y48893D01*
X52378Y48984D01*
X52404Y49084D01*
Y49188D01*
X52378Y49289D01*
X52325Y49379D01*
X52252Y49453D01*
X52162Y49505D01*
X52061Y49531D01*
D02*
G37*
G36*
X51061D02*
X50957D01*
X50857Y49505D01*
X50766Y49453D01*
X50693Y49379D01*
X50641Y49289D01*
X50614Y49188D01*
Y49084D01*
X50641Y48984D01*
X50693Y48893D01*
X50766Y48820D01*
X50857Y48768D01*
X50957Y48741D01*
X51061D01*
X51162Y48768D01*
X51252Y48820D01*
X51325Y48893D01*
X51378Y48984D01*
X51404Y49084D01*
Y49188D01*
X51378Y49289D01*
X51325Y49379D01*
X51252Y49453D01*
X51162Y49505D01*
X51061Y49531D01*
D02*
G37*
G36*
X50061D02*
X49957D01*
X49857Y49505D01*
X49766Y49453D01*
X49693Y49379D01*
X49641Y49289D01*
X49614Y49188D01*
Y49084D01*
X49641Y48984D01*
X49693Y48893D01*
X49766Y48820D01*
X49857Y48768D01*
X49957Y48741D01*
X50061D01*
X50162Y48768D01*
X50252Y48820D01*
X50325Y48893D01*
X50378Y48984D01*
X50404Y49084D01*
Y49188D01*
X50378Y49289D01*
X50325Y49379D01*
X50252Y49453D01*
X50162Y49505D01*
X50061Y49531D01*
D02*
G37*
G36*
X49061D02*
X48957D01*
X48857Y49505D01*
X48766Y49453D01*
X48693Y49379D01*
X48641Y49289D01*
X48614Y49188D01*
Y49084D01*
X48641Y48984D01*
X48693Y48893D01*
X48766Y48820D01*
X48857Y48768D01*
X48957Y48741D01*
X49061D01*
X49162Y48768D01*
X49252Y48820D01*
X49325Y48893D01*
X49378Y48984D01*
X49404Y49084D01*
Y49188D01*
X49378Y49289D01*
X49325Y49379D01*
X49252Y49453D01*
X49162Y49505D01*
X49061Y49531D01*
D02*
G37*
G36*
X48061D02*
X47957D01*
X47857Y49505D01*
X47766Y49453D01*
X47693Y49379D01*
X47641Y49289D01*
X47614Y49188D01*
Y49084D01*
X47641Y48984D01*
X47693Y48893D01*
X47766Y48820D01*
X47857Y48768D01*
X47957Y48741D01*
X48061D01*
X48162Y48768D01*
X48252Y48820D01*
X48325Y48893D01*
X48378Y48984D01*
X48404Y49084D01*
Y49188D01*
X48378Y49289D01*
X48325Y49379D01*
X48252Y49453D01*
X48162Y49505D01*
X48061Y49531D01*
D02*
G37*
G36*
X47061D02*
X46957D01*
X46857Y49505D01*
X46766Y49453D01*
X46693Y49379D01*
X46641Y49289D01*
X46614Y49188D01*
Y49084D01*
X46641Y48984D01*
X46693Y48893D01*
X46766Y48820D01*
X46857Y48768D01*
X46957Y48741D01*
X47061D01*
X47162Y48768D01*
X47252Y48820D01*
X47325Y48893D01*
X47378Y48984D01*
X47404Y49084D01*
Y49188D01*
X47378Y49289D01*
X47325Y49379D01*
X47252Y49453D01*
X47162Y49505D01*
X47061Y49531D01*
D02*
G37*
G36*
X46061D02*
X45957D01*
X45857Y49505D01*
X45766Y49453D01*
X45693Y49379D01*
X45641Y49289D01*
X45614Y49188D01*
Y49084D01*
X45641Y48984D01*
X45693Y48893D01*
X45766Y48820D01*
X45857Y48768D01*
X45957Y48741D01*
X46061D01*
X46162Y48768D01*
X46252Y48820D01*
X46325Y48893D01*
X46378Y48984D01*
X46404Y49084D01*
Y49188D01*
X46378Y49289D01*
X46325Y49379D01*
X46252Y49453D01*
X46162Y49505D01*
X46061Y49531D01*
D02*
G37*
G36*
X36579D02*
X35789D01*
Y48741D01*
X36579D01*
Y49531D01*
D02*
G37*
G36*
X35236D02*
X35132D01*
X35031Y49505D01*
X34941Y49453D01*
X34868Y49379D01*
X34815Y49289D01*
X34789Y49188D01*
Y49084D01*
X34815Y48984D01*
X34868Y48893D01*
X34941Y48820D01*
X35031Y48768D01*
X35132Y48741D01*
X35236D01*
X35336Y48768D01*
X35427Y48820D01*
X35500Y48893D01*
X35552Y48984D01*
X35579Y49084D01*
Y49188D01*
X35552Y49289D01*
X35500Y49379D01*
X35427Y49453D01*
X35336Y49505D01*
X35236Y49531D01*
D02*
G37*
G36*
X34236D02*
X34132D01*
X34031Y49505D01*
X33941Y49453D01*
X33868Y49379D01*
X33816Y49289D01*
X33789Y49188D01*
Y49084D01*
X33816Y48984D01*
X33868Y48893D01*
X33941Y48820D01*
X34031Y48768D01*
X34132Y48741D01*
X34236D01*
X34336Y48768D01*
X34427Y48820D01*
X34500Y48893D01*
X34552Y48984D01*
X34579Y49084D01*
Y49188D01*
X34552Y49289D01*
X34500Y49379D01*
X34427Y49453D01*
X34336Y49505D01*
X34236Y49531D01*
D02*
G37*
G36*
X33236D02*
X33132D01*
X33031Y49505D01*
X32941Y49453D01*
X32868Y49379D01*
X32815Y49289D01*
X32789Y49188D01*
Y49084D01*
X32815Y48984D01*
X32868Y48893D01*
X32941Y48820D01*
X33031Y48768D01*
X33132Y48741D01*
X33236D01*
X33336Y48768D01*
X33427Y48820D01*
X33500Y48893D01*
X33552Y48984D01*
X33579Y49084D01*
Y49188D01*
X33552Y49289D01*
X33500Y49379D01*
X33427Y49453D01*
X33336Y49505D01*
X33236Y49531D01*
D02*
G37*
G36*
X32236D02*
X32132D01*
X32031Y49505D01*
X31941Y49453D01*
X31868Y49379D01*
X31816Y49289D01*
X31789Y49188D01*
Y49084D01*
X31816Y48984D01*
X31868Y48893D01*
X31941Y48820D01*
X32031Y48768D01*
X32132Y48741D01*
X32236D01*
X32336Y48768D01*
X32427Y48820D01*
X32500Y48893D01*
X32552Y48984D01*
X32579Y49084D01*
Y49188D01*
X32552Y49289D01*
X32500Y49379D01*
X32427Y49453D01*
X32336Y49505D01*
X32236Y49531D01*
D02*
G37*
G36*
X31236D02*
X31132D01*
X31031Y49505D01*
X30941Y49453D01*
X30868Y49379D01*
X30815Y49289D01*
X30789Y49188D01*
Y49084D01*
X30815Y48984D01*
X30868Y48893D01*
X30941Y48820D01*
X31031Y48768D01*
X31132Y48741D01*
X31236D01*
X31336Y48768D01*
X31427Y48820D01*
X31500Y48893D01*
X31552Y48984D01*
X31579Y49084D01*
Y49188D01*
X31552Y49289D01*
X31500Y49379D01*
X31427Y49453D01*
X31336Y49505D01*
X31236Y49531D01*
D02*
G37*
G36*
X30236D02*
X30132D01*
X30031Y49505D01*
X29941Y49453D01*
X29868Y49379D01*
X29815Y49289D01*
X29789Y49188D01*
Y49084D01*
X29815Y48984D01*
X29868Y48893D01*
X29941Y48820D01*
X30031Y48768D01*
X30132Y48741D01*
X30236D01*
X30336Y48768D01*
X30427Y48820D01*
X30500Y48893D01*
X30552Y48984D01*
X30579Y49084D01*
Y49188D01*
X30552Y49289D01*
X30500Y49379D01*
X30427Y49453D01*
X30336Y49505D01*
X30236Y49531D01*
D02*
G37*
G36*
X29236D02*
X29132D01*
X29031Y49505D01*
X28941Y49453D01*
X28868Y49379D01*
X28816Y49289D01*
X28789Y49188D01*
Y49084D01*
X28816Y48984D01*
X28868Y48893D01*
X28941Y48820D01*
X29031Y48768D01*
X29132Y48741D01*
X29236D01*
X29336Y48768D01*
X29427Y48820D01*
X29500Y48893D01*
X29552Y48984D01*
X29579Y49084D01*
Y49188D01*
X29552Y49289D01*
X29500Y49379D01*
X29427Y49453D01*
X29336Y49505D01*
X29236Y49531D01*
D02*
G37*
G36*
X25271Y50005D02*
X25115D01*
X24962Y49975D01*
X24819Y49915D01*
X24689Y49829D01*
X24579Y49719D01*
X24493Y49589D01*
X24433Y49445D01*
X24403Y49293D01*
Y49137D01*
X24433Y48985D01*
X24493Y48841D01*
X24579Y48711D01*
X24689Y48601D01*
X24819Y48515D01*
X24962Y48455D01*
X25115Y48425D01*
X25271D01*
X25423Y48455D01*
X25567Y48515D01*
X25696Y48601D01*
X25806Y48711D01*
X25893Y48841D01*
X25952Y48985D01*
X25983Y49137D01*
Y49293D01*
X25952Y49445D01*
X25893Y49589D01*
X25806Y49719D01*
X25696Y49829D01*
X25567Y49915D01*
X25423Y49975D01*
X25271Y50005D01*
D02*
G37*
G36*
X56822Y49808D02*
X56666D01*
X56514Y49778D01*
X56370Y49718D01*
X56241Y49632D01*
X56131Y49522D01*
X56044Y49392D01*
X55985Y49249D01*
X55954Y49096D01*
Y48940D01*
X55985Y48788D01*
X56044Y48644D01*
X56131Y48514D01*
X56241Y48404D01*
X56370Y48318D01*
X56514Y48258D01*
X56666Y48228D01*
X56822D01*
X56975Y48258D01*
X57118Y48318D01*
X57248Y48404D01*
X57358Y48514D01*
X57444Y48644D01*
X57504Y48788D01*
X57534Y48940D01*
Y49096D01*
X57504Y49249D01*
X57444Y49392D01*
X57358Y49522D01*
X57248Y49632D01*
X57118Y49718D01*
X56975Y49778D01*
X56822Y49808D01*
D02*
G37*
G36*
X56914Y46976D02*
X56810D01*
X56710Y46949D01*
X56620Y46897D01*
X56546Y46824D01*
X56494Y46733D01*
X56467Y46633D01*
Y46529D01*
X56494Y46428D01*
X56546Y46338D01*
X56620Y46265D01*
X56710Y46213D01*
X56810Y46186D01*
X56914D01*
X57015Y46213D01*
X57105Y46265D01*
X57179Y46338D01*
X57231Y46428D01*
X57258Y46529D01*
Y46633D01*
X57231Y46733D01*
X57179Y46824D01*
X57105Y46897D01*
X57015Y46949D01*
X56914Y46976D01*
D02*
G37*
G36*
X25543Y46811D02*
X24752D01*
Y46021D01*
X25543D01*
Y46811D01*
D02*
G37*
G36*
X56914Y45976D02*
X56810D01*
X56710Y45949D01*
X56620Y45897D01*
X56546Y45824D01*
X56494Y45733D01*
X56467Y45633D01*
Y45529D01*
X56494Y45428D01*
X56546Y45338D01*
X56620Y45265D01*
X56710Y45213D01*
X56810Y45186D01*
X56914D01*
X57015Y45213D01*
X57105Y45265D01*
X57179Y45338D01*
X57231Y45428D01*
X57258Y45529D01*
Y45633D01*
X57231Y45733D01*
X57179Y45824D01*
X57105Y45897D01*
X57015Y45949D01*
X56914Y45976D01*
D02*
G37*
G36*
X25199Y45811D02*
X25095D01*
X24995Y45784D01*
X24905Y45732D01*
X24831Y45659D01*
X24779Y45568D01*
X24752Y45468D01*
Y45364D01*
X24779Y45263D01*
X24831Y45173D01*
X24905Y45100D01*
X24995Y45048D01*
X25095Y45021D01*
X25199D01*
X25300Y45048D01*
X25390Y45100D01*
X25464Y45173D01*
X25516Y45263D01*
X25543Y45364D01*
Y45468D01*
X25516Y45568D01*
X25464Y45659D01*
X25390Y45732D01*
X25300Y45784D01*
X25199Y45811D01*
D02*
G37*
G36*
X38030Y44917D02*
X38029Y44915D01*
X38019Y44885D01*
X38013Y44853D01*
X38016Y44815D01*
X38017Y44808D01*
X38019Y44804D01*
X38021Y44801D01*
X37961D01*
Y44738D01*
X38164D01*
X38151Y44788D01*
X38117Y44847D01*
X38069Y44895D01*
X38030Y44917D01*
D02*
G37*
G36*
X37792D02*
X37753Y44895D01*
X37705Y44847D01*
X37671Y44788D01*
X37658Y44738D01*
X37861D01*
Y44801D01*
X37801D01*
X37803Y44804D01*
X37804Y44808D01*
X37806Y44815D01*
X37807Y44822D01*
X37809Y44843D01*
X37809Y44844D01*
X37809Y44851D01*
X37803Y44885D01*
X37793Y44915D01*
X37792Y44917D01*
D02*
G37*
G36*
X45358Y44909D02*
X45350Y44885D01*
X45344Y44851D01*
X45344Y44850D01*
X45347Y44805D01*
X45349Y44799D01*
X45350Y44794D01*
X45352Y44791D01*
X45292D01*
Y44729D01*
X45495D01*
X45482Y44778D01*
X45448Y44837D01*
X45400Y44885D01*
X45358Y44909D01*
D02*
G37*
G36*
X45126D02*
X45084Y44885D01*
X45036Y44837D01*
X45002Y44778D01*
X44989Y44729D01*
X45192D01*
Y44791D01*
X45132D01*
X45134Y44794D01*
X45136Y44799D01*
X45137Y44805D01*
X45138Y44813D01*
X45141Y44833D01*
X45141Y44839D01*
X45140Y44851D01*
X45134Y44885D01*
X45126Y44909D01*
D02*
G37*
G36*
X31297Y44836D02*
Y44799D01*
X31347D01*
X31347Y44781D01*
X31352Y44709D01*
X31353Y44702D01*
X31355Y44698D01*
X31357Y44695D01*
X31297D01*
Y44633D01*
X31500D01*
X31487Y44682D01*
X31453Y44741D01*
X31405Y44789D01*
X31346Y44822D01*
X31297Y44836D01*
D02*
G37*
G36*
X31197D02*
X31148Y44822D01*
X31089Y44789D01*
X31041Y44741D01*
X31007Y44682D01*
X30994Y44633D01*
X31197D01*
Y44695D01*
X31137D01*
X31139Y44698D01*
X31140Y44702D01*
X31142Y44709D01*
X31143Y44716D01*
X31145Y44737D01*
X31147Y44765D01*
X31147Y44799D01*
X31197D01*
Y44836D01*
D02*
G37*
G36*
X38164Y44638D02*
X37961D01*
Y44435D01*
X38010Y44449D01*
X38069Y44482D01*
X38117Y44530D01*
X38151Y44589D01*
X38164Y44638D01*
D02*
G37*
G36*
X37861D02*
X37658D01*
X37671Y44589D01*
X37705Y44530D01*
X37753Y44482D01*
X37812Y44449D01*
X37861Y44435D01*
Y44638D01*
D02*
G37*
G36*
X31500Y44533D02*
X31297D01*
Y44329D01*
X31346Y44343D01*
X31405Y44377D01*
X31453Y44424D01*
X31487Y44483D01*
X31500Y44533D01*
D02*
G37*
G36*
X31197D02*
X30994D01*
X31007Y44483D01*
X31041Y44424D01*
X31089Y44377D01*
X31148Y44343D01*
X31197Y44329D01*
Y44533D01*
D02*
G37*
G36*
X56914Y44976D02*
X56810D01*
X56710Y44949D01*
X56620Y44897D01*
X56546Y44824D01*
X56494Y44733D01*
X56467Y44633D01*
Y44529D01*
X56494Y44428D01*
X56546Y44338D01*
X56620Y44265D01*
X56710Y44213D01*
X56810Y44186D01*
X56914D01*
X57015Y44213D01*
X57105Y44265D01*
X57179Y44338D01*
X57231Y44428D01*
X57258Y44529D01*
Y44633D01*
X57231Y44733D01*
X57179Y44824D01*
X57105Y44897D01*
X57015Y44949D01*
X56914Y44976D01*
D02*
G37*
G36*
X29329Y46360D02*
X29251Y46350D01*
X29178Y46320D01*
X29115Y46272D01*
X29115Y46272D01*
X28246Y45403D01*
X28198Y45340D01*
X28168Y45267D01*
X28158Y45189D01*
Y37580D01*
Y30690D01*
Y25663D01*
X28168Y25585D01*
X28198Y25512D01*
X28246Y25449D01*
X29073Y24622D01*
X29136Y24574D01*
X29209Y24544D01*
X29287Y24533D01*
X31249D01*
X31328Y24544D01*
X31401Y24574D01*
X31421Y24589D01*
X31471Y24564D01*
Y24475D01*
X31464Y24468D01*
X31430Y24409D01*
X31413Y24344D01*
Y24276D01*
X31430Y24211D01*
X31464Y24152D01*
X31512Y24104D01*
X31571Y24070D01*
X31636Y24053D01*
X31704D01*
X31769Y24070D01*
X31828Y24104D01*
X31876Y24152D01*
X31910Y24211D01*
X31927Y24276D01*
Y24344D01*
X31910Y24409D01*
X31879Y24462D01*
X31879Y24476D01*
Y24982D01*
X31929Y24987D01*
X31932Y24971D01*
X31976Y24905D01*
X32719Y24162D01*
X32785Y24118D01*
X32863Y24102D01*
X36240D01*
X36318Y24118D01*
X36385Y24162D01*
X37404Y25182D01*
X37448Y25248D01*
X37464Y25326D01*
X37464Y25326D01*
Y28826D01*
X37739Y29101D01*
X37773Y29074D01*
X37859Y29039D01*
X37950Y29027D01*
X38450D01*
X38541Y29039D01*
X38627Y29074D01*
X38700Y29130D01*
X38756Y29203D01*
X38791Y29289D01*
X38803Y29380D01*
X38791Y29471D01*
X38756Y29557D01*
X38700Y29630D01*
X38627Y29686D01*
X38541Y29721D01*
X38450Y29733D01*
X37950D01*
X37859Y29721D01*
X37773Y29686D01*
X37700Y29630D01*
X37644Y29557D01*
X37628Y29518D01*
X37595Y29511D01*
X37528Y29467D01*
X37210Y29148D01*
X37164Y29168D01*
Y29696D01*
X37625Y30156D01*
X37684Y30152D01*
X37700Y30130D01*
X37773Y30074D01*
X37859Y30039D01*
X37950Y30027D01*
X38450D01*
X38541Y30039D01*
X38627Y30074D01*
X38700Y30130D01*
X38756Y30203D01*
X38791Y30289D01*
X38803Y30380D01*
X38791Y30471D01*
X38756Y30557D01*
X38700Y30630D01*
X38627Y30686D01*
X38541Y30721D01*
X38450Y30733D01*
X37950D01*
X37859Y30721D01*
X37773Y30686D01*
X37700Y30630D01*
X37669Y30588D01*
X37665Y30588D01*
X37613Y30584D01*
X37560D01*
X37482Y30568D01*
X37416Y30524D01*
X36816Y29924D01*
X36772Y29858D01*
X36756Y29780D01*
Y25541D01*
X36025Y24810D01*
X33188D01*
X32742Y25256D01*
Y25565D01*
X32746Y25583D01*
X32751Y25597D01*
X32756Y25607D01*
X32761Y25613D01*
X32768Y25619D01*
X32777Y25624D01*
X32792Y25629D01*
X32810Y25632D01*
X33406D01*
X33408Y25630D01*
X33466Y25596D01*
X33532Y25578D01*
X33600D01*
X33665Y25596D01*
X33724Y25630D01*
X33772Y25678D01*
X33806Y25736D01*
X33823Y25802D01*
Y25870D01*
X33806Y25935D01*
X33772Y25994D01*
X33724Y26042D01*
X33665Y26076D01*
X33600Y26093D01*
X33532D01*
X33466Y26076D01*
X33408Y26042D01*
X33407Y26041D01*
X33391Y26040D01*
X32810D01*
X32792Y26043D01*
X32777Y26048D01*
X32768Y26053D01*
X32761Y26058D01*
X32756Y26065D01*
X32751Y26074D01*
X32746Y26089D01*
X32742Y26107D01*
Y34023D01*
X32746Y34041D01*
X32751Y34055D01*
X32756Y34065D01*
X32761Y34071D01*
X32768Y34077D01*
X32777Y34082D01*
X32792Y34087D01*
X32810Y34090D01*
X33406D01*
X33408Y34088D01*
X33466Y34054D01*
X33532Y34036D01*
X33600D01*
X33665Y34054D01*
X33724Y34088D01*
X33772Y34136D01*
X33806Y34194D01*
X33823Y34260D01*
Y34328D01*
X33806Y34393D01*
X33772Y34452D01*
X33724Y34500D01*
X33665Y34534D01*
X33600Y34551D01*
X33532D01*
X33466Y34534D01*
X33408Y34500D01*
X33407Y34499D01*
X33391Y34498D01*
X32810D01*
X32792Y34501D01*
X32777Y34506D01*
X32768Y34511D01*
X32761Y34516D01*
X32756Y34523D01*
X32751Y34532D01*
X32746Y34547D01*
X32742Y34565D01*
Y39674D01*
X32746Y39692D01*
X32751Y39706D01*
X32756Y39716D01*
X32761Y39723D01*
X32768Y39728D01*
X32777Y39733D01*
X32792Y39738D01*
X32810Y39741D01*
X33406D01*
X33408Y39739D01*
X33466Y39705D01*
X33532Y39688D01*
X33600D01*
X33665Y39705D01*
X33724Y39739D01*
X33772Y39787D01*
X33806Y39846D01*
X33823Y39911D01*
Y39979D01*
X33806Y40044D01*
X33772Y40103D01*
X33724Y40151D01*
X33665Y40185D01*
X33600Y40203D01*
X33532D01*
X33466Y40185D01*
X33408Y40151D01*
X33407Y40150D01*
X33391Y40149D01*
X32810D01*
X32792Y40152D01*
X32777Y40157D01*
X32768Y40162D01*
X32761Y40167D01*
X32756Y40174D01*
X32751Y40184D01*
X32746Y40198D01*
X32742Y40216D01*
Y43337D01*
X33629D01*
X33647Y43334D01*
X33661Y43329D01*
X33671Y43324D01*
X33678Y43319D01*
X33683Y43312D01*
X33688Y43302D01*
X33693Y43288D01*
X33696Y43270D01*
Y42150D01*
X33694Y42148D01*
X33660Y42089D01*
X33643Y42024D01*
Y41956D01*
X33660Y41891D01*
X33694Y41832D01*
X33742Y41784D01*
X33801Y41750D01*
X33866Y41733D01*
X33934D01*
X33999Y41750D01*
X34058Y41784D01*
X34106Y41832D01*
X34140Y41891D01*
X34157Y41956D01*
Y42024D01*
X34140Y42089D01*
X34106Y42148D01*
X34105Y42149D01*
X34104Y42164D01*
Y43270D01*
X34107Y43288D01*
X34112Y43302D01*
X34117Y43312D01*
X34122Y43319D01*
X34129Y43324D01*
X34139Y43329D01*
X34153Y43334D01*
X34171Y43337D01*
X39769D01*
X39787Y43334D01*
X39801Y43329D01*
X39811Y43324D01*
X39818Y43319D01*
X39823Y43312D01*
X39828Y43302D01*
X39833Y43288D01*
X39836Y43270D01*
Y42314D01*
X39834Y42311D01*
X39800Y42253D01*
X39783Y42187D01*
Y42119D01*
X39800Y42054D01*
X39834Y41995D01*
X39882Y41947D01*
X39941Y41913D01*
X40006Y41896D01*
X40074D01*
X40139Y41913D01*
X40198Y41947D01*
X40246Y41995D01*
X40280Y42054D01*
X40297Y42119D01*
Y42187D01*
X40280Y42253D01*
X40246Y42311D01*
X40245Y42313D01*
X40244Y42328D01*
Y43270D01*
X40247Y43288D01*
X40252Y43302D01*
X40257Y43312D01*
X40262Y43319D01*
X40269Y43324D01*
X40279Y43329D01*
X40293Y43334D01*
X40311Y43337D01*
X43755D01*
X43755Y43337D01*
X47239D01*
X47257Y43334D01*
X47271Y43329D01*
X47281Y43324D01*
X47288Y43319D01*
X47293Y43312D01*
X47298Y43302D01*
X47303Y43288D01*
X47306Y43270D01*
Y42314D01*
X47304Y42311D01*
X47270Y42253D01*
X47253Y42187D01*
Y42119D01*
X47270Y42054D01*
X47304Y41995D01*
X47352Y41947D01*
X47411Y41913D01*
X47476Y41896D01*
X47544D01*
X47609Y41913D01*
X47668Y41947D01*
X47716Y41995D01*
X47750Y42054D01*
X47767Y42119D01*
Y42187D01*
X47750Y42253D01*
X47716Y42311D01*
X47715Y42313D01*
X47714Y42328D01*
Y43270D01*
X47717Y43288D01*
X47722Y43302D01*
X47727Y43312D01*
X47732Y43319D01*
X47739Y43324D01*
X47749Y43329D01*
X47763Y43334D01*
X47781Y43337D01*
X48752D01*
X49256Y42833D01*
Y40791D01*
X49253Y40773D01*
X49248Y40759D01*
X49243Y40749D01*
X49238Y40742D01*
X49231Y40737D01*
X49221Y40732D01*
X49207Y40727D01*
X49189Y40724D01*
X48161D01*
X48159Y40726D01*
X48100Y40760D01*
X48035Y40777D01*
X47967D01*
X47902Y40760D01*
X47843Y40726D01*
X47795Y40678D01*
X47761Y40619D01*
X47743Y40554D01*
Y40486D01*
X47761Y40421D01*
X47795Y40362D01*
X47843Y40314D01*
X47902Y40280D01*
X47967Y40263D01*
X48035D01*
X48100Y40280D01*
X48159Y40314D01*
X48160Y40315D01*
X48175Y40316D01*
X49189D01*
X49207Y40313D01*
X49221Y40308D01*
X49231Y40303D01*
X49238Y40298D01*
X49243Y40291D01*
X49248Y40281D01*
X49253Y40267D01*
X49256Y40249D01*
Y35024D01*
X48161D01*
X48159Y35026D01*
X48100Y35060D01*
X48035Y35077D01*
X47967D01*
X47902Y35060D01*
X47843Y35026D01*
X47795Y34978D01*
X47761Y34919D01*
X47743Y34854D01*
Y34786D01*
X47761Y34721D01*
X47795Y34662D01*
X47843Y34614D01*
X47902Y34580D01*
X47967Y34563D01*
X48035D01*
X48100Y34580D01*
X48159Y34614D01*
X48160Y34615D01*
X48175Y34616D01*
X49256D01*
Y26793D01*
X48148D01*
X48100Y26821D01*
X48035Y26838D01*
X47967D01*
X47902Y26821D01*
X47843Y26787D01*
X47795Y26739D01*
X47761Y26680D01*
X47743Y26615D01*
Y26547D01*
X47761Y26482D01*
X47795Y26423D01*
X47843Y26375D01*
X47902Y26341D01*
X47967Y26323D01*
X48035D01*
X48100Y26341D01*
X48159Y26375D01*
X48169Y26385D01*
X48182Y26386D01*
X49343D01*
X49421Y26401D01*
X49487Y26445D01*
X49601Y26559D01*
X49616Y26557D01*
X49651Y26542D01*
Y25735D01*
X49644Y25728D01*
X49610Y25669D01*
X49593Y25604D01*
Y25536D01*
X49610Y25471D01*
X49644Y25412D01*
X49692Y25364D01*
X49751Y25330D01*
X49816Y25313D01*
X49884D01*
X49949Y25330D01*
X50008Y25364D01*
X50056Y25412D01*
X50090Y25471D01*
X50107Y25536D01*
Y25604D01*
X50090Y25669D01*
X50059Y25722D01*
X50058Y25736D01*
Y33557D01*
X50108Y33585D01*
X50131Y33573D01*
X50196Y33555D01*
X50264D01*
X50329Y33573D01*
X50388Y33607D01*
X50436Y33654D01*
X50470Y33713D01*
X50487Y33779D01*
Y33846D01*
X50470Y33912D01*
X50436Y33971D01*
X50435Y33972D01*
X50434Y33987D01*
Y36560D01*
X50433Y36565D01*
Y36599D01*
X50482Y36621D01*
X50541Y36587D01*
X50590Y36574D01*
Y36827D01*
Y37080D01*
X50541Y37067D01*
X50482Y37033D01*
X50433Y37055D01*
Y41883D01*
X50455Y41921D01*
X50472Y41986D01*
Y42054D01*
X50455Y42119D01*
X50421Y42178D01*
X50373Y42226D01*
X50314Y42260D01*
X50249Y42277D01*
X50181D01*
X50115Y42260D01*
X50102Y42252D01*
X50058Y42277D01*
Y43235D01*
X50043Y43313D01*
X49999Y43380D01*
X49324Y44054D01*
X49258Y44098D01*
X49180Y44114D01*
X48713D01*
X48692Y44164D01*
X48696Y44168D01*
X48730Y44226D01*
X48747Y44292D01*
Y44360D01*
X48730Y44425D01*
X48696Y44484D01*
X48648Y44532D01*
X48589Y44566D01*
X48524Y44583D01*
X48456D01*
X48391Y44566D01*
X48332Y44532D01*
X48331Y44531D01*
X48316Y44530D01*
X45633D01*
X45604Y44524D01*
X45500D01*
X45475Y44567D01*
X45482Y44579D01*
X45495Y44629D01*
X44989D01*
X45002Y44579D01*
X45009Y44567D01*
X44984Y44524D01*
X38700D01*
X38698Y44526D01*
X38639Y44560D01*
X38574Y44577D01*
X38506D01*
X38441Y44560D01*
X38382Y44526D01*
X38334Y44478D01*
X38300Y44419D01*
X38283Y44354D01*
Y44286D01*
X38300Y44221D01*
X38333Y44164D01*
X38331Y44155D01*
X38311Y44114D01*
X34539D01*
X34518Y44164D01*
X34526Y44172D01*
X34560Y44231D01*
X34577Y44296D01*
Y44364D01*
X34560Y44429D01*
X34526Y44488D01*
X34478Y44536D01*
X34419Y44570D01*
X34354Y44587D01*
X34286D01*
X34221Y44570D01*
X34162Y44536D01*
X34114Y44488D01*
X34080Y44429D01*
X34077Y44418D01*
X31618D01*
X31540Y44402D01*
X31474Y44358D01*
X31288Y44172D01*
X31244Y44106D01*
X31229Y44028D01*
Y43453D01*
X31244Y43375D01*
X31288Y43309D01*
X31476Y43121D01*
Y38572D01*
X31460Y38544D01*
X31443Y38479D01*
Y38411D01*
X31460Y38346D01*
X31494Y38287D01*
X31542Y38239D01*
X31601Y38205D01*
X31666Y38188D01*
X31734D01*
X31799Y38205D01*
X31858Y38239D01*
X31867Y38248D01*
X31917Y38228D01*
Y36539D01*
X31902Y36464D01*
Y35482D01*
X31852Y35462D01*
X31838Y35476D01*
X31779Y35510D01*
X31714Y35527D01*
X31646D01*
X31581Y35510D01*
X31522Y35476D01*
X31474Y35428D01*
X31440Y35369D01*
X31423Y35304D01*
Y35236D01*
X31440Y35171D01*
X31470Y35119D01*
X31471Y35106D01*
Y32591D01*
X31421Y32570D01*
X31405Y32586D01*
X31346Y32620D01*
X31297Y32633D01*
Y32380D01*
Y32127D01*
X31346Y32140D01*
X31405Y32174D01*
X31421Y32190D01*
X31471Y32169D01*
Y26524D01*
X31421Y26504D01*
X31407Y26517D01*
X31349Y26551D01*
X31299Y26564D01*
Y26311D01*
Y26058D01*
X31349Y26071D01*
X31407Y26105D01*
X31421Y26118D01*
X31471Y26097D01*
Y25107D01*
X31421Y25082D01*
X31401Y25098D01*
X31328Y25128D01*
X31249Y25138D01*
X29413D01*
X28763Y25788D01*
Y30474D01*
X28939Y30486D01*
X29207D01*
X29209Y30484D01*
X29268Y30450D01*
X29333Y30433D01*
X29401D01*
X29467Y30450D01*
X29525Y30484D01*
X29573Y30532D01*
X29607Y30591D01*
X29625Y30656D01*
Y30724D01*
X29607Y30789D01*
X29573Y30848D01*
X29525Y30896D01*
X29467Y30930D01*
X29401Y30947D01*
X29333D01*
X29268Y30930D01*
X29209Y30896D01*
X29208Y30895D01*
X29193Y30894D01*
X28916D01*
X28784Y30898D01*
X28763Y30900D01*
Y37364D01*
X28939Y37376D01*
X29068D01*
X29070Y37374D01*
X29128Y37340D01*
X29194Y37323D01*
X29262D01*
X29327Y37340D01*
X29386Y37374D01*
X29434Y37422D01*
X29468Y37481D01*
X29485Y37546D01*
Y37614D01*
X29468Y37679D01*
X29434Y37738D01*
X29386Y37786D01*
X29327Y37820D01*
X29262Y37837D01*
X29194D01*
X29128Y37820D01*
X29070Y37786D01*
X29069Y37785D01*
X29053Y37784D01*
X28916D01*
X28784Y37788D01*
X28763Y37790D01*
Y45064D01*
X29452Y45753D01*
X29499Y45749D01*
X29550Y45740D01*
X29591Y45729D01*
X29622Y45717D01*
X29642Y45704D01*
X29645Y45701D01*
X29650Y45645D01*
X29636Y45631D01*
X29602Y45572D01*
X29585Y45507D01*
Y45439D01*
X29602Y45374D01*
X29636Y45315D01*
X29684Y45267D01*
X29743Y45233D01*
X29808Y45215D01*
X29876D01*
X29941Y45233D01*
X30000Y45267D01*
X30048Y45315D01*
X30082Y45374D01*
X30100Y45439D01*
Y45507D01*
X30082Y45572D01*
X30072Y45590D01*
Y45664D01*
X30072Y45674D01*
X30076Y45684D01*
X30082Y45693D01*
X30094Y45704D01*
X30114Y45717D01*
X30145Y45729D01*
X30185Y45740D01*
X30237Y45749D01*
X30298Y45754D01*
X30345Y45755D01*
X36885D01*
Y45656D01*
X36883Y45654D01*
X36849Y45595D01*
X36831Y45530D01*
Y45462D01*
X36849Y45397D01*
X36883Y45338D01*
X36931Y45290D01*
X36989Y45256D01*
X37055Y45238D01*
X37123D01*
X37188Y45256D01*
X37247Y45290D01*
X37295Y45338D01*
X37329Y45397D01*
X37346Y45462D01*
Y45530D01*
X37329Y45595D01*
X37295Y45654D01*
X37294Y45655D01*
X37293Y45670D01*
Y45755D01*
X44086D01*
Y45657D01*
X44084Y45655D01*
X44050Y45596D01*
X44032Y45531D01*
Y45463D01*
X44050Y45398D01*
X44084Y45339D01*
X44132Y45291D01*
X44190Y45257D01*
X44256Y45239D01*
X44324D01*
X44389Y45257D01*
X44448Y45291D01*
X44496Y45339D01*
X44530Y45398D01*
X44547Y45463D01*
Y45531D01*
X44530Y45596D01*
X44496Y45655D01*
X44495Y45656D01*
X44494Y45671D01*
Y45755D01*
X50819D01*
X51707Y44867D01*
Y44033D01*
X51548D01*
X51545Y44036D01*
X51487Y44069D01*
X51421Y44087D01*
X51353D01*
X51288Y44069D01*
X51229Y44036D01*
X51181Y43988D01*
X51147Y43929D01*
X51130Y43863D01*
Y43796D01*
X51147Y43730D01*
X51181Y43671D01*
X51229Y43623D01*
X51288Y43590D01*
X51353Y43572D01*
X51421D01*
X51487Y43590D01*
X51545Y43623D01*
X51547Y43625D01*
X51562Y43626D01*
X51707D01*
Y37442D01*
X51511D01*
X51487Y37456D01*
X51421Y37474D01*
X51353D01*
X51288Y37456D01*
X51229Y37423D01*
X51181Y37375D01*
X51147Y37316D01*
X51130Y37250D01*
Y37183D01*
X51147Y37117D01*
X51181Y37058D01*
X51229Y37010D01*
X51288Y36977D01*
X51353Y36959D01*
X51421D01*
X51487Y36977D01*
X51545Y37010D01*
X51569Y37034D01*
X51578Y37035D01*
X51707D01*
Y30936D01*
X51705Y30889D01*
X51700Y30828D01*
X51691Y30777D01*
X51680Y30736D01*
X51668Y30705D01*
X51656Y30685D01*
X51645Y30673D01*
X51640Y30670D01*
X51531Y30663D01*
X51198D01*
X51154Y30688D01*
X51089Y30706D01*
X51021D01*
X50955Y30688D01*
X50897Y30654D01*
X50849Y30606D01*
X50815Y30548D01*
X50797Y30482D01*
Y30414D01*
X50815Y30349D01*
X50849Y30290D01*
X50897Y30242D01*
X50955Y30208D01*
X51021Y30191D01*
X51089D01*
X51154Y30208D01*
X51213Y30242D01*
X51225Y30254D01*
X51239Y30255D01*
X51554D01*
X51631Y30252D01*
X51635Y30251D01*
X51645Y30245D01*
X51656Y30233D01*
X51668Y30213D01*
X51680Y30182D01*
X51691Y30141D01*
X51700Y30090D01*
X51705Y30029D01*
X51707Y29981D01*
Y24935D01*
X51710Y24912D01*
Y24810D01*
X51534Y24798D01*
X48150D01*
X48147Y24800D01*
X48089Y24834D01*
X48023Y24852D01*
X47955D01*
X47890Y24834D01*
X47831Y24800D01*
X47783Y24752D01*
X47749Y24693D01*
X47732Y24628D01*
Y24560D01*
X47749Y24495D01*
X47783Y24436D01*
X47831Y24388D01*
X47890Y24354D01*
X47955Y24337D01*
X48023D01*
X48089Y24354D01*
X48147Y24388D01*
X48149Y24389D01*
X48164Y24390D01*
X51557D01*
X51689Y24386D01*
X51710Y24384D01*
Y22453D01*
X51707Y22398D01*
X51697Y22344D01*
X51682Y22299D01*
X51663Y22264D01*
X51640Y22235D01*
X51611Y22212D01*
X51576Y22192D01*
X51531Y22178D01*
X51477Y22168D01*
X51422Y22165D01*
X50121D01*
X50043Y22155D01*
X49970Y22125D01*
X49907Y22077D01*
X49859Y22014D01*
X49829Y21941D01*
X49819Y21863D01*
X49829Y21784D01*
X49859Y21711D01*
X49907Y21649D01*
X49970Y21600D01*
X50043Y21570D01*
X50121Y21560D01*
X51422D01*
X51477Y21557D01*
X51531Y21547D01*
X51576Y21533D01*
X51611Y21513D01*
X51640Y21490D01*
X51663Y21462D01*
X51682Y21426D01*
X51697Y21381D01*
X51707Y21327D01*
X51710Y21272D01*
Y17029D01*
X50427Y15747D01*
X42572D01*
X42401Y15752D01*
X42319Y15759D01*
X42291Y15763D01*
X42272Y15767D01*
X42266Y15769D01*
X42261Y15772D01*
X42257Y15774D01*
X42237Y15787D01*
X42148Y15804D01*
X41892D01*
X41803Y15787D01*
X41728Y15736D01*
X41678Y15661D01*
X41660Y15572D01*
Y15316D01*
X41678Y15227D01*
X41728Y15152D01*
X41803Y15101D01*
X41892Y15084D01*
X42148D01*
X42237Y15101D01*
X42257Y15115D01*
X42261Y15116D01*
X42266Y15119D01*
X42272Y15121D01*
X42287Y15124D01*
X42577Y15142D01*
X50553D01*
X50631Y15152D01*
X50704Y15182D01*
X50767Y15230D01*
X52226Y16690D01*
X52274Y16752D01*
X52305Y16825D01*
X52315Y16904D01*
Y21863D01*
Y24564D01*
X52313Y24579D01*
X52315Y24594D01*
Y24932D01*
X52315Y24932D01*
X52312Y24956D01*
Y30459D01*
Y37269D01*
Y43833D01*
Y44993D01*
X52301Y45071D01*
X52271Y45144D01*
X52223Y45207D01*
X51158Y46272D01*
X51095Y46320D01*
X51022Y46350D01*
X50944Y46360D01*
X29329D01*
X29329Y46360D01*
D02*
G37*
G36*
X25199Y44811D02*
X25095D01*
X24995Y44784D01*
X24905Y44732D01*
X24831Y44659D01*
X24779Y44568D01*
X24752Y44468D01*
Y44364D01*
X24779Y44263D01*
X24831Y44173D01*
X24905Y44100D01*
X24995Y44048D01*
X25095Y44021D01*
X25199D01*
X25300Y44048D01*
X25390Y44100D01*
X25464Y44173D01*
X25516Y44263D01*
X25543Y44364D01*
Y44468D01*
X25516Y44568D01*
X25464Y44659D01*
X25390Y44732D01*
X25300Y44784D01*
X25199Y44811D01*
D02*
G37*
G36*
X56914Y43976D02*
X56810D01*
X56710Y43949D01*
X56620Y43897D01*
X56546Y43824D01*
X56494Y43733D01*
X56467Y43633D01*
Y43529D01*
X56494Y43428D01*
X56546Y43338D01*
X56620Y43265D01*
X56710Y43213D01*
X56810Y43186D01*
X56914D01*
X57015Y43213D01*
X57105Y43265D01*
X57179Y43338D01*
X57231Y43428D01*
X57258Y43529D01*
Y43633D01*
X57231Y43733D01*
X57179Y43824D01*
X57105Y43897D01*
X57015Y43949D01*
X56914Y43976D01*
D02*
G37*
G36*
X25199Y43811D02*
X25095D01*
X24995Y43784D01*
X24905Y43732D01*
X24831Y43659D01*
X24779Y43568D01*
X24752Y43468D01*
Y43364D01*
X24779Y43263D01*
X24831Y43173D01*
X24905Y43100D01*
X24995Y43048D01*
X25095Y43021D01*
X25199D01*
X25300Y43048D01*
X25390Y43100D01*
X25464Y43173D01*
X25516Y43263D01*
X25543Y43364D01*
Y43468D01*
X25516Y43568D01*
X25464Y43659D01*
X25390Y43732D01*
X25300Y43784D01*
X25199Y43811D01*
D02*
G37*
G36*
X50684Y43178D02*
Y42975D01*
X50746D01*
Y43035D01*
X50749Y43033D01*
X50754Y43031D01*
X50760Y43030D01*
X50768Y43028D01*
X50789Y43026D01*
X50816Y43025D01*
X50850Y43025D01*
Y42975D01*
X50887D01*
X50874Y43024D01*
X50840Y43083D01*
X50792Y43131D01*
X50733Y43165D01*
X50684Y43178D01*
D02*
G37*
G36*
X50584D02*
X50535Y43165D01*
X50476Y43131D01*
X50428Y43083D01*
X50394Y43024D01*
X50381Y42975D01*
X50584D01*
Y43178D01*
D02*
G37*
G36*
X50887Y42875D02*
X50850D01*
Y42825D01*
X50832Y42825D01*
X50760Y42820D01*
X50754Y42818D01*
X50749Y42816D01*
X50746Y42814D01*
Y42875D01*
X50684D01*
Y42672D01*
X50733Y42685D01*
X50792Y42719D01*
X50840Y42767D01*
X50874Y42825D01*
X50887Y42875D01*
D02*
G37*
G36*
X50584D02*
X50381D01*
X50394Y42825D01*
X50428Y42767D01*
X50476Y42719D01*
X50535Y42685D01*
X50584Y42672D01*
Y42875D01*
D02*
G37*
G36*
X56914Y42976D02*
X56810D01*
X56710Y42949D01*
X56620Y42897D01*
X56546Y42824D01*
X56494Y42733D01*
X56467Y42633D01*
Y42529D01*
X56494Y42428D01*
X56546Y42338D01*
X56620Y42265D01*
X56710Y42213D01*
X56810Y42186D01*
X56914D01*
X57015Y42213D01*
X57105Y42265D01*
X57179Y42338D01*
X57231Y42428D01*
X57258Y42529D01*
Y42633D01*
X57231Y42733D01*
X57179Y42824D01*
X57105Y42897D01*
X57015Y42949D01*
X56914Y42976D01*
D02*
G37*
G36*
X25199Y42811D02*
X25095D01*
X24995Y42784D01*
X24905Y42732D01*
X24831Y42659D01*
X24779Y42568D01*
X24752Y42468D01*
Y42364D01*
X24779Y42263D01*
X24831Y42173D01*
X24905Y42100D01*
X24995Y42048D01*
X25095Y42021D01*
X25199D01*
X25300Y42048D01*
X25390Y42100D01*
X25464Y42173D01*
X25516Y42263D01*
X25543Y42364D01*
Y42468D01*
X25516Y42568D01*
X25464Y42659D01*
X25390Y42732D01*
X25300Y42784D01*
X25199Y42811D01*
D02*
G37*
G36*
X56914Y41976D02*
X56810D01*
X56710Y41949D01*
X56620Y41897D01*
X56546Y41824D01*
X56494Y41733D01*
X56467Y41633D01*
Y41529D01*
X56494Y41428D01*
X56546Y41338D01*
X56620Y41265D01*
X56710Y41213D01*
X56810Y41186D01*
X56914D01*
X57015Y41213D01*
X57105Y41265D01*
X57179Y41338D01*
X57231Y41428D01*
X57258Y41529D01*
Y41633D01*
X57231Y41733D01*
X57179Y41824D01*
X57105Y41897D01*
X57015Y41949D01*
X56914Y41976D01*
D02*
G37*
G36*
X25199Y41811D02*
X25095D01*
X24995Y41784D01*
X24905Y41732D01*
X24831Y41659D01*
X24779Y41568D01*
X24752Y41468D01*
Y41364D01*
X24779Y41263D01*
X24831Y41173D01*
X24905Y41100D01*
X24995Y41048D01*
X25095Y41021D01*
X25199D01*
X25300Y41048D01*
X25390Y41100D01*
X25464Y41173D01*
X25516Y41263D01*
X25543Y41364D01*
Y41468D01*
X25516Y41568D01*
X25464Y41659D01*
X25390Y41732D01*
X25300Y41784D01*
X25199Y41811D01*
D02*
G37*
G36*
X56914Y40976D02*
X56810D01*
X56710Y40949D01*
X56620Y40897D01*
X56546Y40824D01*
X56494Y40733D01*
X56467Y40633D01*
Y40529D01*
X56494Y40428D01*
X56546Y40338D01*
X56620Y40265D01*
X56710Y40213D01*
X56810Y40186D01*
X56914D01*
X57015Y40213D01*
X57105Y40265D01*
X57179Y40338D01*
X57231Y40428D01*
X57258Y40529D01*
Y40633D01*
X57231Y40733D01*
X57179Y40824D01*
X57105Y40897D01*
X57015Y40949D01*
X56914Y40976D01*
D02*
G37*
G36*
X44450Y40733D02*
X43950D01*
X43859Y40721D01*
X43773Y40686D01*
X43700Y40630D01*
X43644Y40557D01*
X43609Y40471D01*
X43597Y40380D01*
X43609Y40289D01*
X43644Y40203D01*
X43700Y40130D01*
X43773Y40074D01*
X43859Y40039D01*
X43950Y40027D01*
X44450D01*
X44541Y40039D01*
X44627Y40074D01*
X44700Y40130D01*
X44756Y40203D01*
X44791Y40289D01*
X44803Y40380D01*
X44791Y40471D01*
X44756Y40557D01*
X44700Y40630D01*
X44627Y40686D01*
X44541Y40721D01*
X44450Y40733D01*
D02*
G37*
G36*
X38450D02*
X37950D01*
X37859Y40721D01*
X37773Y40686D01*
X37700Y40630D01*
X37644Y40557D01*
X37609Y40471D01*
X37597Y40380D01*
X37609Y40289D01*
X37644Y40203D01*
X37700Y40130D01*
X37773Y40074D01*
X37859Y40039D01*
X37950Y40027D01*
X38450D01*
X38541Y40039D01*
X38627Y40074D01*
X38700Y40130D01*
X38756Y40203D01*
X38791Y40289D01*
X38803Y40380D01*
X38791Y40471D01*
X38756Y40557D01*
X38700Y40630D01*
X38627Y40686D01*
X38541Y40721D01*
X38450Y40733D01*
D02*
G37*
G36*
X25199Y40811D02*
X25095D01*
X24995Y40784D01*
X24905Y40732D01*
X24831Y40659D01*
X24779Y40568D01*
X24752Y40468D01*
Y40364D01*
X24779Y40263D01*
X24831Y40173D01*
X24905Y40100D01*
X24995Y40048D01*
X25095Y40021D01*
X25199D01*
X25300Y40048D01*
X25390Y40100D01*
X25464Y40173D01*
X25516Y40263D01*
X25543Y40364D01*
Y40468D01*
X25516Y40568D01*
X25464Y40659D01*
X25390Y40732D01*
X25300Y40784D01*
X25199Y40811D01*
D02*
G37*
G36*
X44450Y39733D02*
X44250D01*
Y39430D01*
X44796D01*
X44791Y39471D01*
X44756Y39557D01*
X44700Y39630D01*
X44627Y39686D01*
X44541Y39721D01*
X44450Y39733D01*
D02*
G37*
G36*
X44150D02*
X43950D01*
X43859Y39721D01*
X43773Y39686D01*
X43700Y39630D01*
X43644Y39557D01*
X43609Y39471D01*
X43607Y39455D01*
X43647Y39459D01*
X43681Y39466D01*
X43710Y39475D01*
X43733Y39486D01*
X43750Y39499D01*
X43762Y39514D01*
X43768Y39530D01*
X43769Y39549D01*
X43782Y39430D01*
X44150D01*
Y39733D01*
D02*
G37*
G36*
X57258Y39976D02*
X56467D01*
Y39186D01*
X57258D01*
Y39976D01*
D02*
G37*
G36*
X44150Y39330D02*
X43793D01*
X43811Y39172D01*
X43791Y39187D01*
X43770Y39200D01*
X43747Y39212D01*
X43722Y39222D01*
X43695Y39231D01*
X43667Y39238D01*
X43637Y39243D01*
X43627Y39244D01*
X43644Y39203D01*
X43700Y39130D01*
X43773Y39074D01*
X43859Y39039D01*
X43950Y39027D01*
X44150D01*
Y39330D01*
D02*
G37*
G36*
X44796D02*
X44250D01*
Y39027D01*
X44450D01*
X44541Y39039D01*
X44627Y39074D01*
X44700Y39130D01*
X44756Y39203D01*
X44791Y39289D01*
X44796Y39330D01*
D02*
G37*
G36*
X38450Y39733D02*
X37950D01*
X37859Y39721D01*
X37773Y39686D01*
X37700Y39630D01*
X37644Y39557D01*
X37609Y39471D01*
X37597Y39380D01*
X37609Y39289D01*
X37644Y39203D01*
X37700Y39130D01*
X37773Y39074D01*
X37859Y39039D01*
X37950Y39027D01*
X38450D01*
X38541Y39039D01*
X38627Y39074D01*
X38700Y39130D01*
X38756Y39203D01*
X38791Y39289D01*
X38803Y39380D01*
X38791Y39471D01*
X38756Y39557D01*
X38700Y39630D01*
X38627Y39686D01*
X38541Y39721D01*
X38450Y39733D01*
D02*
G37*
G36*
X25199Y39811D02*
X25095D01*
X24995Y39784D01*
X24905Y39732D01*
X24831Y39659D01*
X24779Y39568D01*
X24752Y39468D01*
Y39364D01*
X24779Y39263D01*
X24831Y39173D01*
X24905Y39100D01*
X24995Y39048D01*
X25095Y39021D01*
X25199D01*
X25300Y39048D01*
X25390Y39100D01*
X25464Y39173D01*
X25516Y39263D01*
X25543Y39364D01*
Y39468D01*
X25516Y39568D01*
X25464Y39659D01*
X25390Y39732D01*
X25300Y39784D01*
X25199Y39811D01*
D02*
G37*
G36*
X31266Y38271D02*
Y38068D01*
X31469D01*
X31456Y38117D01*
X31422Y38176D01*
X31374Y38224D01*
X31315Y38258D01*
X31266Y38271D01*
D02*
G37*
G36*
X31166D02*
X31116Y38258D01*
X31058Y38224D01*
X31010Y38176D01*
X30976Y38117D01*
X30963Y38068D01*
X31000D01*
X31000Y38118D01*
X31018Y38118D01*
X31090Y38123D01*
X31096Y38125D01*
X31100Y38126D01*
X31103Y38128D01*
Y38068D01*
X31166D01*
Y38271D01*
D02*
G37*
G36*
X44450Y38733D02*
X43950D01*
X43859Y38721D01*
X43773Y38686D01*
X43700Y38630D01*
X43644Y38557D01*
X43609Y38471D01*
X43597Y38380D01*
X43609Y38289D01*
X43644Y38203D01*
X43700Y38130D01*
X43773Y38074D01*
X43859Y38039D01*
X43950Y38027D01*
X44450D01*
X44541Y38039D01*
X44627Y38074D01*
X44700Y38130D01*
X44756Y38203D01*
X44791Y38289D01*
X44803Y38380D01*
X44791Y38471D01*
X44756Y38557D01*
X44700Y38630D01*
X44627Y38686D01*
X44541Y38721D01*
X44450Y38733D01*
D02*
G37*
G36*
X38450D02*
X37950D01*
X37859Y38721D01*
X37773Y38686D01*
X37700Y38630D01*
X37644Y38557D01*
X37609Y38471D01*
X37597Y38380D01*
X37609Y38289D01*
X37644Y38203D01*
X37700Y38130D01*
X37773Y38074D01*
X37859Y38039D01*
X37950Y38027D01*
X38450D01*
X38541Y38039D01*
X38627Y38074D01*
X38700Y38130D01*
X38756Y38203D01*
X38791Y38289D01*
X38803Y38380D01*
X38791Y38471D01*
X38756Y38557D01*
X38700Y38630D01*
X38627Y38686D01*
X38541Y38721D01*
X38450Y38733D01*
D02*
G37*
G36*
X31166Y37968D02*
X31103D01*
Y37908D01*
X31100Y37910D01*
X31096Y37911D01*
X31090Y37913D01*
X31082Y37914D01*
X31061Y37916D01*
X31034Y37918D01*
X31000Y37918D01*
Y37968D01*
X30963D01*
X30976Y37919D01*
X31010Y37860D01*
X31058Y37812D01*
X31116Y37778D01*
X31166Y37765D01*
Y37968D01*
D02*
G37*
G36*
X56920Y38608D02*
X56816D01*
X56716Y38581D01*
X56625Y38529D01*
X56552Y38456D01*
X56500Y38366D01*
X56473Y38265D01*
Y38161D01*
X56500Y38060D01*
X56552Y37970D01*
X56625Y37897D01*
X56716Y37845D01*
X56816Y37818D01*
X56920D01*
X57021Y37845D01*
X57111Y37897D01*
X57184Y37970D01*
X57237Y38060D01*
X57263Y38161D01*
Y38265D01*
X57237Y38366D01*
X57184Y38456D01*
X57111Y38529D01*
X57021Y38581D01*
X56920Y38608D01*
D02*
G37*
G36*
X31469Y37968D02*
X31266D01*
Y37765D01*
X31315Y37778D01*
X31374Y37812D01*
X31422Y37860D01*
X31456Y37919D01*
X31469Y37968D01*
D02*
G37*
G36*
X25545Y38413D02*
X24755D01*
Y37623D01*
X25545D01*
Y38413D01*
D02*
G37*
G36*
X44450Y37733D02*
X43950D01*
X43859Y37721D01*
X43773Y37686D01*
X43700Y37630D01*
X43644Y37557D01*
X43609Y37471D01*
X43597Y37380D01*
X43609Y37289D01*
X43644Y37203D01*
X43700Y37130D01*
X43773Y37074D01*
X43859Y37039D01*
X43950Y37027D01*
X44450D01*
X44541Y37039D01*
X44627Y37074D01*
X44700Y37130D01*
X44756Y37203D01*
X44791Y37289D01*
X44803Y37380D01*
X44791Y37471D01*
X44756Y37557D01*
X44700Y37630D01*
X44627Y37686D01*
X44541Y37721D01*
X44450Y37733D01*
D02*
G37*
G36*
X38450D02*
X37950D01*
X37859Y37721D01*
X37773Y37686D01*
X37700Y37630D01*
X37644Y37557D01*
X37609Y37471D01*
X37597Y37380D01*
X37609Y37289D01*
X37644Y37203D01*
X37700Y37130D01*
X37773Y37074D01*
X37859Y37039D01*
X37950Y37027D01*
X38450D01*
X38541Y37039D01*
X38627Y37074D01*
X38700Y37130D01*
X38756Y37203D01*
X38791Y37289D01*
X38803Y37380D01*
X38791Y37471D01*
X38756Y37557D01*
X38700Y37630D01*
X38627Y37686D01*
X38541Y37721D01*
X38450Y37733D01*
D02*
G37*
G36*
X50690Y37080D02*
Y36877D01*
X50730D01*
Y36927D01*
X50752Y36928D01*
Y36937D01*
X50755Y36935D01*
X50760Y36933D01*
X50766Y36932D01*
X50774Y36931D01*
X50776Y36930D01*
X50802Y36935D01*
X50832Y36945D01*
X50858Y36959D01*
X50860Y36961D01*
X50846Y36985D01*
X50798Y37033D01*
X50739Y37067D01*
X50690Y37080D01*
D02*
G37*
G36*
X56920Y37608D02*
X56816D01*
X56716Y37581D01*
X56625Y37529D01*
X56552Y37456D01*
X56500Y37366D01*
X56473Y37265D01*
Y37161D01*
X56500Y37060D01*
X56552Y36970D01*
X56625Y36897D01*
X56716Y36845D01*
X56816Y36818D01*
X56920D01*
X57021Y36845D01*
X57111Y36897D01*
X57184Y36970D01*
X57237Y37060D01*
X57263Y37161D01*
Y37265D01*
X57237Y37366D01*
X57184Y37456D01*
X57111Y37529D01*
X57021Y37581D01*
X56920Y37608D01*
D02*
G37*
G36*
X25202Y37413D02*
X25098D01*
X24997Y37386D01*
X24907Y37334D01*
X24833Y37261D01*
X24781Y37171D01*
X24755Y37070D01*
Y36966D01*
X24781Y36865D01*
X24833Y36775D01*
X24907Y36702D01*
X24997Y36650D01*
X25098Y36623D01*
X25202D01*
X25302Y36650D01*
X25392Y36702D01*
X25466Y36775D01*
X25518Y36865D01*
X25545Y36966D01*
Y37070D01*
X25518Y37171D01*
X25466Y37261D01*
X25392Y37334D01*
X25302Y37386D01*
X25202Y37413D01*
D02*
G37*
G36*
X50730Y36777D02*
X50690D01*
Y36574D01*
X50739Y36587D01*
X50798Y36621D01*
X50846Y36669D01*
X50860Y36693D01*
X50858Y36695D01*
X50832Y36709D01*
X50802Y36719D01*
X50780Y36723D01*
X50766Y36722D01*
X50760Y36720D01*
X50755Y36719D01*
X50752Y36717D01*
Y36726D01*
X50730Y36727D01*
Y36777D01*
D02*
G37*
G36*
X44450Y36733D02*
X43950D01*
X43859Y36721D01*
X43773Y36686D01*
X43700Y36630D01*
X43644Y36557D01*
X43609Y36471D01*
X43597Y36380D01*
X43609Y36289D01*
X43644Y36203D01*
X43700Y36130D01*
X43773Y36074D01*
X43859Y36039D01*
X43950Y36027D01*
X44450D01*
X44541Y36039D01*
X44627Y36074D01*
X44700Y36130D01*
X44756Y36203D01*
X44791Y36289D01*
X44803Y36380D01*
X44791Y36471D01*
X44756Y36557D01*
X44700Y36630D01*
X44627Y36686D01*
X44541Y36721D01*
X44450Y36733D01*
D02*
G37*
G36*
X38450D02*
X37950D01*
X37859Y36721D01*
X37773Y36686D01*
X37700Y36630D01*
X37644Y36557D01*
X37609Y36471D01*
X37597Y36380D01*
X37609Y36289D01*
X37644Y36203D01*
X37700Y36130D01*
X37773Y36074D01*
X37859Y36039D01*
X37950Y36027D01*
X38450D01*
X38541Y36039D01*
X38627Y36074D01*
X38700Y36130D01*
X38756Y36203D01*
X38791Y36289D01*
X38803Y36380D01*
X38791Y36471D01*
X38756Y36557D01*
X38700Y36630D01*
X38627Y36686D01*
X38541Y36721D01*
X38450Y36733D01*
D02*
G37*
G36*
X56920Y36608D02*
X56816D01*
X56716Y36581D01*
X56625Y36529D01*
X56552Y36456D01*
X56500Y36366D01*
X56473Y36265D01*
Y36161D01*
X56500Y36060D01*
X56552Y35970D01*
X56625Y35897D01*
X56716Y35845D01*
X56816Y35818D01*
X56920D01*
X57021Y35845D01*
X57111Y35897D01*
X57184Y35970D01*
X57237Y36060D01*
X57263Y36161D01*
Y36265D01*
X57237Y36366D01*
X57184Y36456D01*
X57111Y36529D01*
X57021Y36581D01*
X56920Y36608D01*
D02*
G37*
G36*
X25202Y36413D02*
X25098D01*
X24997Y36386D01*
X24907Y36334D01*
X24833Y36261D01*
X24781Y36171D01*
X24755Y36070D01*
Y35966D01*
X24781Y35865D01*
X24833Y35775D01*
X24907Y35702D01*
X24997Y35650D01*
X25098Y35623D01*
X25202D01*
X25302Y35650D01*
X25392Y35702D01*
X25466Y35775D01*
X25518Y35865D01*
X25545Y35966D01*
Y36070D01*
X25518Y36171D01*
X25466Y36261D01*
X25392Y36334D01*
X25302Y36386D01*
X25202Y36413D01*
D02*
G37*
G36*
X44450Y35733D02*
X43950D01*
X43859Y35721D01*
X43773Y35686D01*
X43700Y35630D01*
X43644Y35557D01*
X43609Y35471D01*
X43597Y35380D01*
X43609Y35289D01*
X43644Y35203D01*
X43700Y35130D01*
X43773Y35074D01*
X43859Y35039D01*
X43950Y35027D01*
X44450D01*
X44541Y35039D01*
X44627Y35074D01*
X44700Y35130D01*
X44756Y35203D01*
X44791Y35289D01*
X44803Y35380D01*
X44791Y35471D01*
X44756Y35557D01*
X44700Y35630D01*
X44627Y35686D01*
X44541Y35721D01*
X44450Y35733D01*
D02*
G37*
G36*
X38450D02*
X37950D01*
X37859Y35721D01*
X37773Y35686D01*
X37700Y35630D01*
X37644Y35557D01*
X37609Y35471D01*
X37597Y35380D01*
X37609Y35289D01*
X37644Y35203D01*
X37700Y35130D01*
X37773Y35074D01*
X37859Y35039D01*
X37950Y35027D01*
X38450D01*
X38541Y35039D01*
X38627Y35074D01*
X38700Y35130D01*
X38756Y35203D01*
X38791Y35289D01*
X38803Y35380D01*
X38791Y35471D01*
X38756Y35557D01*
X38700Y35630D01*
X38627Y35686D01*
X38541Y35721D01*
X38450Y35733D01*
D02*
G37*
G36*
X56920Y35608D02*
X56816D01*
X56716Y35581D01*
X56625Y35529D01*
X56552Y35456D01*
X56500Y35366D01*
X56473Y35265D01*
Y35161D01*
X56500Y35060D01*
X56552Y34970D01*
X56625Y34897D01*
X56716Y34845D01*
X56816Y34818D01*
X56920D01*
X57021Y34845D01*
X57111Y34897D01*
X57184Y34970D01*
X57237Y35060D01*
X57263Y35161D01*
Y35265D01*
X57237Y35366D01*
X57184Y35456D01*
X57111Y35529D01*
X57021Y35581D01*
X56920Y35608D01*
D02*
G37*
G36*
X25202Y35413D02*
X25098D01*
X24997Y35386D01*
X24907Y35334D01*
X24833Y35261D01*
X24781Y35171D01*
X24755Y35070D01*
Y34966D01*
X24781Y34865D01*
X24833Y34775D01*
X24907Y34702D01*
X24997Y34650D01*
X25098Y34623D01*
X25202D01*
X25302Y34650D01*
X25392Y34702D01*
X25466Y34775D01*
X25518Y34865D01*
X25545Y34966D01*
Y35070D01*
X25518Y35171D01*
X25466Y35261D01*
X25392Y35334D01*
X25302Y35386D01*
X25202Y35413D01*
D02*
G37*
G36*
X44450Y34733D02*
X43950D01*
X43859Y34721D01*
X43773Y34686D01*
X43700Y34630D01*
X43644Y34557D01*
X43609Y34471D01*
X43597Y34380D01*
X43609Y34289D01*
X43644Y34203D01*
X43700Y34130D01*
X43773Y34074D01*
X43859Y34039D01*
X43950Y34027D01*
X44450D01*
X44541Y34039D01*
X44627Y34074D01*
X44700Y34130D01*
X44756Y34203D01*
X44791Y34289D01*
X44803Y34380D01*
X44791Y34471D01*
X44756Y34557D01*
X44700Y34630D01*
X44627Y34686D01*
X44541Y34721D01*
X44450Y34733D01*
D02*
G37*
G36*
X38450D02*
X37950D01*
X37859Y34721D01*
X37773Y34686D01*
X37700Y34630D01*
X37644Y34557D01*
X37609Y34471D01*
X37597Y34380D01*
X37609Y34289D01*
X37644Y34203D01*
X37700Y34130D01*
X37773Y34074D01*
X37859Y34039D01*
X37950Y34027D01*
X38450D01*
X38541Y34039D01*
X38627Y34074D01*
X38700Y34130D01*
X38756Y34203D01*
X38791Y34289D01*
X38803Y34380D01*
X38791Y34471D01*
X38756Y34557D01*
X38700Y34630D01*
X38627Y34686D01*
X38541Y34721D01*
X38450Y34733D01*
D02*
G37*
G36*
X56920Y34608D02*
X56816D01*
X56716Y34581D01*
X56625Y34529D01*
X56552Y34456D01*
X56500Y34366D01*
X56473Y34265D01*
Y34161D01*
X56500Y34060D01*
X56552Y33970D01*
X56625Y33897D01*
X56716Y33845D01*
X56816Y33818D01*
X56920D01*
X57021Y33845D01*
X57111Y33897D01*
X57184Y33970D01*
X57237Y34060D01*
X57263Y34161D01*
Y34265D01*
X57237Y34366D01*
X57184Y34456D01*
X57111Y34529D01*
X57021Y34581D01*
X56920Y34608D01*
D02*
G37*
G36*
X25202Y34413D02*
X25098D01*
X24997Y34386D01*
X24907Y34334D01*
X24833Y34261D01*
X24781Y34171D01*
X24755Y34070D01*
Y33966D01*
X24781Y33865D01*
X24833Y33775D01*
X24907Y33702D01*
X24997Y33650D01*
X25098Y33623D01*
X25202D01*
X25302Y33650D01*
X25392Y33702D01*
X25466Y33775D01*
X25518Y33865D01*
X25545Y33966D01*
Y34070D01*
X25518Y34171D01*
X25466Y34261D01*
X25392Y34334D01*
X25302Y34386D01*
X25202Y34413D01*
D02*
G37*
G36*
X44450Y33733D02*
X43950D01*
X43859Y33721D01*
X43773Y33686D01*
X43700Y33630D01*
X43644Y33557D01*
X43609Y33471D01*
X43597Y33380D01*
X43609Y33289D01*
X43644Y33203D01*
X43700Y33130D01*
X43773Y33074D01*
X43859Y33039D01*
X43950Y33027D01*
X44450D01*
X44541Y33039D01*
X44627Y33074D01*
X44700Y33130D01*
X44756Y33203D01*
X44791Y33289D01*
X44803Y33380D01*
X44791Y33471D01*
X44756Y33557D01*
X44700Y33630D01*
X44627Y33686D01*
X44541Y33721D01*
X44450Y33733D01*
D02*
G37*
G36*
X38450D02*
X37950D01*
X37859Y33721D01*
X37773Y33686D01*
X37700Y33630D01*
X37644Y33557D01*
X37609Y33471D01*
X37597Y33380D01*
X37609Y33289D01*
X37644Y33203D01*
X37700Y33130D01*
X37773Y33074D01*
X37859Y33039D01*
X37950Y33027D01*
X38450D01*
X38541Y33039D01*
X38627Y33074D01*
X38700Y33130D01*
X38756Y33203D01*
X38791Y33289D01*
X38803Y33380D01*
X38791Y33471D01*
X38756Y33557D01*
X38700Y33630D01*
X38627Y33686D01*
X38541Y33721D01*
X38450Y33733D01*
D02*
G37*
G36*
X56920Y33608D02*
X56816D01*
X56716Y33581D01*
X56625Y33529D01*
X56552Y33456D01*
X56500Y33366D01*
X56473Y33265D01*
Y33161D01*
X56500Y33060D01*
X56552Y32970D01*
X56625Y32897D01*
X56716Y32845D01*
X56816Y32818D01*
X56920D01*
X57021Y32845D01*
X57111Y32897D01*
X57184Y32970D01*
X57237Y33060D01*
X57263Y33161D01*
Y33265D01*
X57237Y33366D01*
X57184Y33456D01*
X57111Y33529D01*
X57021Y33581D01*
X56920Y33608D01*
D02*
G37*
G36*
X25202Y33413D02*
X25098D01*
X24997Y33386D01*
X24907Y33334D01*
X24833Y33261D01*
X24781Y33171D01*
X24755Y33070D01*
Y32966D01*
X24781Y32865D01*
X24833Y32775D01*
X24907Y32702D01*
X24997Y32650D01*
X25098Y32623D01*
X25202D01*
X25302Y32650D01*
X25392Y32702D01*
X25466Y32775D01*
X25518Y32865D01*
X25545Y32966D01*
Y33070D01*
X25518Y33171D01*
X25466Y33261D01*
X25392Y33334D01*
X25302Y33386D01*
X25202Y33413D01*
D02*
G37*
G36*
X31197Y32633D02*
X31148Y32620D01*
X31089Y32586D01*
X31041Y32538D01*
X31007Y32479D01*
X30994Y32430D01*
X31031D01*
Y32480D01*
X31049Y32480D01*
X31121Y32485D01*
X31127Y32487D01*
X31132Y32488D01*
X31134Y32490D01*
Y32430D01*
X31197D01*
Y32633D01*
D02*
G37*
G36*
Y32330D02*
X31134D01*
Y32270D01*
X31132Y32272D01*
X31127Y32273D01*
X31121Y32275D01*
X31113Y32276D01*
X31092Y32278D01*
X31065Y32280D01*
X31031Y32280D01*
Y32330D01*
X30994D01*
X31007Y32281D01*
X31041Y32222D01*
X31089Y32174D01*
X31148Y32140D01*
X31197Y32127D01*
Y32330D01*
D02*
G37*
G36*
X44450Y32733D02*
X43950D01*
X43859Y32721D01*
X43773Y32686D01*
X43700Y32630D01*
X43644Y32557D01*
X43609Y32471D01*
X43597Y32380D01*
X43609Y32289D01*
X43644Y32203D01*
X43700Y32130D01*
X43773Y32074D01*
X43859Y32039D01*
X43950Y32027D01*
X44450D01*
X44541Y32039D01*
X44627Y32074D01*
X44700Y32130D01*
X44756Y32203D01*
X44791Y32289D01*
X44803Y32380D01*
X44791Y32471D01*
X44756Y32557D01*
X44700Y32630D01*
X44627Y32686D01*
X44541Y32721D01*
X44450Y32733D01*
D02*
G37*
G36*
X38450D02*
X37950D01*
X37859Y32721D01*
X37773Y32686D01*
X37700Y32630D01*
X37644Y32557D01*
X37609Y32471D01*
X37597Y32380D01*
X37609Y32289D01*
X37644Y32203D01*
X37700Y32130D01*
X37773Y32074D01*
X37859Y32039D01*
X37950Y32027D01*
X38450D01*
X38541Y32039D01*
X38627Y32074D01*
X38700Y32130D01*
X38756Y32203D01*
X38791Y32289D01*
X38803Y32380D01*
X38791Y32471D01*
X38756Y32557D01*
X38700Y32630D01*
X38627Y32686D01*
X38541Y32721D01*
X38450Y32733D01*
D02*
G37*
G36*
X56920Y32608D02*
X56816D01*
X56716Y32581D01*
X56625Y32529D01*
X56552Y32456D01*
X56500Y32366D01*
X56473Y32265D01*
Y32161D01*
X56500Y32060D01*
X56552Y31970D01*
X56625Y31897D01*
X56716Y31845D01*
X56816Y31818D01*
X56920D01*
X57021Y31845D01*
X57111Y31897D01*
X57184Y31970D01*
X57237Y32060D01*
X57263Y32161D01*
Y32265D01*
X57237Y32366D01*
X57184Y32456D01*
X57111Y32529D01*
X57021Y32581D01*
X56920Y32608D01*
D02*
G37*
G36*
X25202Y32413D02*
X25098D01*
X24997Y32386D01*
X24907Y32334D01*
X24833Y32261D01*
X24781Y32171D01*
X24755Y32070D01*
Y31966D01*
X24781Y31865D01*
X24833Y31775D01*
X24907Y31702D01*
X24997Y31650D01*
X25098Y31623D01*
X25202D01*
X25302Y31650D01*
X25392Y31702D01*
X25466Y31775D01*
X25518Y31865D01*
X25545Y31966D01*
Y32070D01*
X25518Y32171D01*
X25466Y32261D01*
X25392Y32334D01*
X25302Y32386D01*
X25202Y32413D01*
D02*
G37*
G36*
X44450Y31733D02*
X43950D01*
X43859Y31721D01*
X43773Y31686D01*
X43700Y31630D01*
X43644Y31557D01*
X43609Y31471D01*
X43597Y31380D01*
X43609Y31289D01*
X43644Y31203D01*
X43700Y31130D01*
X43773Y31074D01*
X43859Y31039D01*
X43950Y31027D01*
X44450D01*
X44541Y31039D01*
X44627Y31074D01*
X44700Y31130D01*
X44756Y31203D01*
X44791Y31289D01*
X44803Y31380D01*
X44791Y31471D01*
X44756Y31557D01*
X44700Y31630D01*
X44627Y31686D01*
X44541Y31721D01*
X44450Y31733D01*
D02*
G37*
G36*
X38450D02*
X37950D01*
X37859Y31721D01*
X37773Y31686D01*
X37700Y31630D01*
X37644Y31557D01*
X37609Y31471D01*
X37597Y31380D01*
X37609Y31289D01*
X37644Y31203D01*
X37700Y31130D01*
X37773Y31074D01*
X37859Y31039D01*
X37950Y31027D01*
X38450D01*
X38541Y31039D01*
X38627Y31074D01*
X38700Y31130D01*
X38756Y31203D01*
X38791Y31289D01*
X38803Y31380D01*
X38791Y31471D01*
X38756Y31557D01*
X38700Y31630D01*
X38627Y31686D01*
X38541Y31721D01*
X38450Y31733D01*
D02*
G37*
G36*
X57263Y31608D02*
X56473D01*
Y30818D01*
X57263D01*
Y31608D01*
D02*
G37*
G36*
X25202Y31413D02*
X25098D01*
X24997Y31386D01*
X24907Y31334D01*
X24833Y31261D01*
X24781Y31171D01*
X24755Y31070D01*
Y30966D01*
X24781Y30865D01*
X24833Y30775D01*
X24907Y30702D01*
X24997Y30650D01*
X25098Y30623D01*
X25202D01*
X25302Y30650D01*
X25392Y30702D01*
X25466Y30775D01*
X25518Y30865D01*
X25545Y30966D01*
Y31070D01*
X25518Y31171D01*
X25466Y31261D01*
X25392Y31334D01*
X25302Y31386D01*
X25202Y31413D01*
D02*
G37*
G36*
X44450Y30733D02*
X43950D01*
X43859Y30721D01*
X43773Y30686D01*
X43700Y30630D01*
X43644Y30557D01*
X43609Y30471D01*
X43597Y30380D01*
X43609Y30289D01*
X43644Y30203D01*
X43700Y30130D01*
X43773Y30074D01*
X43859Y30039D01*
X43950Y30027D01*
X44450D01*
X44541Y30039D01*
X44627Y30074D01*
X44700Y30130D01*
X44756Y30203D01*
X44791Y30289D01*
X44803Y30380D01*
X44791Y30471D01*
X44756Y30557D01*
X44700Y30630D01*
X44627Y30686D01*
X44541Y30721D01*
X44450Y30733D01*
D02*
G37*
G36*
X56920Y30198D02*
X56816D01*
X56716Y30171D01*
X56625Y30119D01*
X56552Y30045D01*
X56500Y29955D01*
X56473Y29855D01*
Y29751D01*
X56500Y29650D01*
X56552Y29560D01*
X56625Y29486D01*
X56716Y29434D01*
X56816Y29407D01*
X56920D01*
X57021Y29434D01*
X57111Y29486D01*
X57184Y29560D01*
X57237Y29650D01*
X57263Y29751D01*
Y29855D01*
X57237Y29955D01*
X57184Y30045D01*
X57111Y30119D01*
X57021Y30171D01*
X56920Y30198D01*
D02*
G37*
G36*
X50598Y29574D02*
Y29537D01*
X50648D01*
X50648Y29519D01*
X50653Y29447D01*
X50654Y29441D01*
X50656Y29436D01*
X50658Y29434D01*
X50598D01*
Y29371D01*
X50801D01*
X50788Y29421D01*
X50754Y29479D01*
X50706Y29527D01*
X50647Y29561D01*
X50598Y29574D01*
D02*
G37*
G36*
X50498D02*
X50448Y29561D01*
X50389Y29527D01*
X50342Y29479D01*
X50308Y29421D01*
X50294Y29371D01*
X50498D01*
Y29434D01*
X50437D01*
X50439Y29436D01*
X50441Y29441D01*
X50443Y29447D01*
X50444Y29455D01*
X50446Y29476D01*
X50447Y29503D01*
X50448Y29537D01*
X50498D01*
Y29574D01*
D02*
G37*
G36*
X25565Y30023D02*
X24775D01*
Y29233D01*
X25565D01*
Y30023D01*
D02*
G37*
G36*
X50801Y29271D02*
X50598D01*
Y29068D01*
X50647Y29081D01*
X50706Y29115D01*
X50754Y29163D01*
X50788Y29222D01*
X50801Y29271D01*
D02*
G37*
G36*
X50498D02*
X50294D01*
X50308Y29222D01*
X50342Y29163D01*
X50389Y29115D01*
X50448Y29081D01*
X50498Y29068D01*
Y29271D01*
D02*
G37*
G36*
X44450Y29733D02*
X43950D01*
X43859Y29721D01*
X43773Y29686D01*
X43700Y29630D01*
X43644Y29557D01*
X43609Y29471D01*
X43597Y29380D01*
X43609Y29289D01*
X43644Y29203D01*
X43700Y29130D01*
X43773Y29074D01*
X43859Y29039D01*
X43950Y29027D01*
X44450D01*
X44541Y29039D01*
X44627Y29074D01*
X44700Y29130D01*
X44756Y29203D01*
X44791Y29289D01*
X44803Y29380D01*
X44791Y29471D01*
X44756Y29557D01*
X44700Y29630D01*
X44627Y29686D01*
X44541Y29721D01*
X44450Y29733D01*
D02*
G37*
G36*
X56920Y29198D02*
X56816D01*
X56716Y29171D01*
X56625Y29119D01*
X56552Y29045D01*
X56500Y28955D01*
X56473Y28855D01*
Y28751D01*
X56500Y28650D01*
X56552Y28560D01*
X56625Y28486D01*
X56716Y28434D01*
X56816Y28407D01*
X56920D01*
X57021Y28434D01*
X57111Y28486D01*
X57184Y28560D01*
X57237Y28650D01*
X57263Y28751D01*
Y28855D01*
X57237Y28955D01*
X57184Y29045D01*
X57111Y29119D01*
X57021Y29171D01*
X56920Y29198D01*
D02*
G37*
G36*
X25222Y29023D02*
X25118D01*
X25017Y28996D01*
X24927Y28944D01*
X24853Y28871D01*
X24801Y28781D01*
X24775Y28680D01*
Y28576D01*
X24801Y28475D01*
X24853Y28385D01*
X24927Y28312D01*
X25017Y28260D01*
X25118Y28233D01*
X25222D01*
X25322Y28260D01*
X25412Y28312D01*
X25486Y28385D01*
X25538Y28475D01*
X25565Y28576D01*
Y28680D01*
X25538Y28781D01*
X25486Y28871D01*
X25412Y28944D01*
X25322Y28996D01*
X25222Y29023D01*
D02*
G37*
G36*
X44450Y28733D02*
X43950D01*
X43859Y28721D01*
X43773Y28686D01*
X43700Y28630D01*
X43644Y28557D01*
X43609Y28471D01*
X43597Y28380D01*
X43609Y28289D01*
X43644Y28203D01*
X43700Y28130D01*
X43773Y28074D01*
X43859Y28039D01*
X43950Y28027D01*
X44450D01*
X44541Y28039D01*
X44627Y28074D01*
X44700Y28130D01*
X44756Y28203D01*
X44791Y28289D01*
X44803Y28380D01*
X44791Y28471D01*
X44756Y28557D01*
X44700Y28630D01*
X44627Y28686D01*
X44541Y28721D01*
X44450Y28733D01*
D02*
G37*
G36*
X38450D02*
X37950D01*
X37859Y28721D01*
X37773Y28686D01*
X37700Y28630D01*
X37644Y28557D01*
X37609Y28471D01*
X37597Y28380D01*
X37609Y28289D01*
X37644Y28203D01*
X37700Y28130D01*
X37773Y28074D01*
X37859Y28039D01*
X37950Y28027D01*
X38450D01*
X38541Y28039D01*
X38627Y28074D01*
X38700Y28130D01*
X38756Y28203D01*
X38791Y28289D01*
X38803Y28380D01*
X38791Y28471D01*
X38756Y28557D01*
X38700Y28630D01*
X38627Y28686D01*
X38541Y28721D01*
X38450Y28733D01*
D02*
G37*
G36*
X56920Y28198D02*
X56816D01*
X56716Y28171D01*
X56625Y28119D01*
X56552Y28045D01*
X56500Y27955D01*
X56473Y27855D01*
Y27751D01*
X56500Y27650D01*
X56552Y27560D01*
X56625Y27486D01*
X56716Y27434D01*
X56816Y27407D01*
X56920D01*
X57021Y27434D01*
X57111Y27486D01*
X57184Y27560D01*
X57237Y27650D01*
X57263Y27751D01*
Y27855D01*
X57237Y27955D01*
X57184Y28045D01*
X57111Y28119D01*
X57021Y28171D01*
X56920Y28198D01*
D02*
G37*
G36*
X25222Y28023D02*
X25118D01*
X25017Y27996D01*
X24927Y27944D01*
X24853Y27871D01*
X24801Y27781D01*
X24775Y27680D01*
Y27576D01*
X24801Y27475D01*
X24853Y27385D01*
X24927Y27312D01*
X25017Y27260D01*
X25118Y27233D01*
X25222D01*
X25322Y27260D01*
X25412Y27312D01*
X25486Y27385D01*
X25538Y27475D01*
X25565Y27576D01*
Y27680D01*
X25538Y27781D01*
X25486Y27871D01*
X25412Y27944D01*
X25322Y27996D01*
X25222Y28023D01*
D02*
G37*
G36*
X44450Y27733D02*
X43950D01*
X43859Y27721D01*
X43773Y27686D01*
X43700Y27630D01*
X43644Y27557D01*
X43609Y27471D01*
X43597Y27380D01*
X43607Y27304D01*
X43597Y27288D01*
X43555Y27238D01*
X39966Y23649D01*
X39922Y23583D01*
X39906Y23505D01*
Y19380D01*
X38880Y18354D01*
X36097D01*
X36093Y18354D01*
X36077Y18357D01*
X36063Y18361D01*
X36050Y18365D01*
X36037Y18370D01*
X36026Y18376D01*
X36016Y18383D01*
X36005Y18391D01*
X35993Y18403D01*
X35985Y18408D01*
X35959Y18435D01*
X35877Y18482D01*
X35787Y18506D01*
X35693D01*
X35603Y18482D01*
X35521Y18435D01*
X35455Y18369D01*
X35408Y18287D01*
X35384Y18197D01*
Y18103D01*
X35408Y18013D01*
X35455Y17931D01*
X35521Y17865D01*
X35603Y17818D01*
X35693Y17794D01*
X35787D01*
X35877Y17818D01*
X35959Y17865D01*
X35985Y17892D01*
X35993Y17897D01*
X36005Y17909D01*
X36016Y17917D01*
X36026Y17924D01*
X36037Y17930D01*
X36050Y17935D01*
X36063Y17939D01*
X36077Y17943D01*
X36093Y17946D01*
X36097Y17946D01*
X38964D01*
X39042Y17962D01*
X39109Y18006D01*
X40254Y19151D01*
X40298Y19218D01*
X40314Y19296D01*
Y23420D01*
X43864Y26970D01*
X43883Y26987D01*
X43912Y27009D01*
X43936Y27026D01*
X43940Y27028D01*
X43950Y27027D01*
X44450D01*
X44541Y27039D01*
X44627Y27074D01*
X44700Y27130D01*
X44756Y27203D01*
X44791Y27289D01*
X44803Y27380D01*
X44791Y27471D01*
X44756Y27557D01*
X44700Y27630D01*
X44627Y27686D01*
X44541Y27721D01*
X44450Y27733D01*
D02*
G37*
G36*
X38450D02*
X37950D01*
X37859Y27721D01*
X37773Y27686D01*
X37700Y27630D01*
X37644Y27557D01*
X37609Y27471D01*
X37597Y27380D01*
X37609Y27289D01*
X37644Y27203D01*
X37700Y27130D01*
X37773Y27074D01*
X37859Y27039D01*
X37950Y27027D01*
X38450D01*
X38541Y27039D01*
X38627Y27074D01*
X38700Y27130D01*
X38756Y27203D01*
X38791Y27289D01*
X38803Y27380D01*
X38791Y27471D01*
X38756Y27557D01*
X38700Y27630D01*
X38627Y27686D01*
X38541Y27721D01*
X38450Y27733D01*
D02*
G37*
G36*
X56920Y27198D02*
X56816D01*
X56716Y27171D01*
X56625Y27119D01*
X56552Y27045D01*
X56500Y26955D01*
X56473Y26855D01*
Y26751D01*
X56500Y26650D01*
X56552Y26560D01*
X56625Y26486D01*
X56716Y26434D01*
X56816Y26407D01*
X56920D01*
X57021Y26434D01*
X57111Y26486D01*
X57184Y26560D01*
X57237Y26650D01*
X57263Y26751D01*
Y26855D01*
X57237Y26955D01*
X57184Y27045D01*
X57111Y27119D01*
X57021Y27171D01*
X56920Y27198D01*
D02*
G37*
G36*
X31199Y26564D02*
X31150Y26551D01*
X31091Y26517D01*
X31043Y26469D01*
X31009Y26410D01*
X30996Y26361D01*
X31033D01*
Y26411D01*
X31051Y26411D01*
X31123Y26416D01*
X31130Y26417D01*
X31134Y26419D01*
X31137Y26421D01*
Y26361D01*
X31199D01*
Y26564D01*
D02*
G37*
G36*
X25222Y27023D02*
X25118D01*
X25017Y26996D01*
X24927Y26944D01*
X24853Y26871D01*
X24801Y26781D01*
X24775Y26680D01*
Y26576D01*
X24801Y26475D01*
X24853Y26385D01*
X24927Y26312D01*
X25017Y26260D01*
X25118Y26233D01*
X25222D01*
X25322Y26260D01*
X25412Y26312D01*
X25486Y26385D01*
X25538Y26475D01*
X25565Y26576D01*
Y26680D01*
X25538Y26781D01*
X25486Y26871D01*
X25412Y26944D01*
X25322Y26996D01*
X25222Y27023D01*
D02*
G37*
G36*
X31199Y26261D02*
X31137D01*
Y26201D01*
X31134Y26202D01*
X31130Y26204D01*
X31123Y26206D01*
X31116Y26207D01*
X31095Y26209D01*
X31067Y26210D01*
X31033Y26211D01*
Y26261D01*
X30996D01*
X31009Y26211D01*
X31043Y26153D01*
X31091Y26105D01*
X31150Y26071D01*
X31199Y26058D01*
Y26261D01*
D02*
G37*
G36*
X44450Y26733D02*
X43950D01*
X43859Y26721D01*
X43773Y26686D01*
X43700Y26630D01*
X43644Y26557D01*
X43609Y26471D01*
X43597Y26380D01*
X43605Y26322D01*
X43592Y26304D01*
X43549Y26252D01*
X40536Y23239D01*
X40492Y23172D01*
X40476Y23094D01*
Y19034D01*
X38796Y17354D01*
X36097D01*
X36093Y17354D01*
X36077Y17357D01*
X36063Y17361D01*
X36050Y17365D01*
X36037Y17370D01*
X36026Y17376D01*
X36016Y17383D01*
X36005Y17391D01*
X35993Y17403D01*
X35985Y17408D01*
X35959Y17435D01*
X35877Y17482D01*
X35787Y17506D01*
X35693D01*
X35603Y17482D01*
X35521Y17435D01*
X35455Y17369D01*
X35408Y17287D01*
X35384Y17197D01*
Y17103D01*
X35408Y17013D01*
X35455Y16931D01*
X35521Y16865D01*
X35603Y16818D01*
X35693Y16794D01*
X35787D01*
X35877Y16818D01*
X35959Y16865D01*
X35985Y16892D01*
X35993Y16897D01*
X36005Y16909D01*
X36016Y16917D01*
X36026Y16924D01*
X36037Y16930D01*
X36050Y16935D01*
X36063Y16939D01*
X36077Y16943D01*
X36093Y16946D01*
X36097Y16946D01*
X38880D01*
X38958Y16962D01*
X39024Y17006D01*
X40824Y18806D01*
X40840Y18829D01*
X40908Y18842D01*
X40916Y18836D01*
Y17213D01*
X43238D01*
Y19772D01*
X40934D01*
X40916Y19772D01*
X40884Y19809D01*
Y23010D01*
X43849Y25975D01*
X43868Y25992D01*
X43896Y26014D01*
X43920Y26030D01*
X43921Y26031D01*
X43950Y26027D01*
X44450D01*
X44541Y26039D01*
X44627Y26074D01*
X44700Y26130D01*
X44756Y26203D01*
X44791Y26289D01*
X44803Y26380D01*
X44791Y26471D01*
X44756Y26557D01*
X44700Y26630D01*
X44627Y26686D01*
X44541Y26721D01*
X44450Y26733D01*
D02*
G37*
G36*
X38450D02*
X37950D01*
X37859Y26721D01*
X37773Y26686D01*
X37700Y26630D01*
X37644Y26557D01*
X37609Y26471D01*
X37597Y26380D01*
X37609Y26289D01*
X37644Y26203D01*
X37700Y26130D01*
X37773Y26074D01*
X37859Y26039D01*
X37950Y26027D01*
X38450D01*
X38541Y26039D01*
X38627Y26074D01*
X38700Y26130D01*
X38756Y26203D01*
X38791Y26289D01*
X38803Y26380D01*
X38791Y26471D01*
X38756Y26557D01*
X38700Y26630D01*
X38627Y26686D01*
X38541Y26721D01*
X38450Y26733D01*
D02*
G37*
G36*
X56920Y26198D02*
X56816D01*
X56716Y26171D01*
X56625Y26119D01*
X56552Y26045D01*
X56500Y25955D01*
X56473Y25855D01*
Y25751D01*
X56500Y25650D01*
X56552Y25560D01*
X56625Y25486D01*
X56716Y25434D01*
X56816Y25407D01*
X56920D01*
X57021Y25434D01*
X57111Y25486D01*
X57184Y25560D01*
X57237Y25650D01*
X57263Y25751D01*
Y25855D01*
X57237Y25955D01*
X57184Y26045D01*
X57111Y26119D01*
X57021Y26171D01*
X56920Y26198D01*
D02*
G37*
G36*
X25222Y26023D02*
X25118D01*
X25017Y25996D01*
X24927Y25944D01*
X24853Y25871D01*
X24801Y25781D01*
X24775Y25680D01*
Y25576D01*
X24801Y25475D01*
X24853Y25385D01*
X24927Y25312D01*
X25017Y25260D01*
X25118Y25233D01*
X25222D01*
X25322Y25260D01*
X25412Y25312D01*
X25486Y25385D01*
X25538Y25475D01*
X25565Y25576D01*
Y25680D01*
X25538Y25781D01*
X25486Y25871D01*
X25412Y25944D01*
X25322Y25996D01*
X25222Y26023D01*
D02*
G37*
G36*
X44450Y25733D02*
X43950D01*
X43859Y25721D01*
X43773Y25686D01*
X43700Y25630D01*
X43644Y25557D01*
X43609Y25471D01*
X43597Y25380D01*
X43609Y25289D01*
X43644Y25203D01*
X43700Y25130D01*
X43773Y25074D01*
X43859Y25039D01*
X43950Y25027D01*
X44450D01*
X44541Y25039D01*
X44627Y25074D01*
X44700Y25130D01*
X44756Y25203D01*
X44791Y25289D01*
X44803Y25380D01*
X44791Y25471D01*
X44756Y25557D01*
X44700Y25630D01*
X44627Y25686D01*
X44541Y25721D01*
X44450Y25733D01*
D02*
G37*
G36*
X38450D02*
X37950D01*
X37859Y25721D01*
X37773Y25686D01*
X37700Y25630D01*
X37644Y25557D01*
X37609Y25471D01*
X37597Y25380D01*
X37609Y25289D01*
X37644Y25203D01*
X37700Y25130D01*
X37773Y25074D01*
X37859Y25039D01*
X37950Y25027D01*
X38450D01*
X38541Y25039D01*
X38627Y25074D01*
X38700Y25130D01*
X38756Y25203D01*
X38791Y25289D01*
X38803Y25380D01*
X38791Y25471D01*
X38756Y25557D01*
X38700Y25630D01*
X38627Y25686D01*
X38541Y25721D01*
X38450Y25733D01*
D02*
G37*
G36*
X56920Y25198D02*
X56816D01*
X56716Y25171D01*
X56625Y25119D01*
X56552Y25045D01*
X56500Y24955D01*
X56473Y24855D01*
Y24751D01*
X56500Y24650D01*
X56552Y24560D01*
X56625Y24486D01*
X56716Y24434D01*
X56816Y24407D01*
X56920D01*
X57021Y24434D01*
X57111Y24486D01*
X57184Y24560D01*
X57237Y24650D01*
X57263Y24751D01*
Y24855D01*
X57237Y24955D01*
X57184Y25045D01*
X57111Y25119D01*
X57021Y25171D01*
X56920Y25198D01*
D02*
G37*
G36*
X25222Y25023D02*
X25118D01*
X25017Y24996D01*
X24927Y24944D01*
X24853Y24871D01*
X24801Y24781D01*
X24775Y24680D01*
Y24576D01*
X24801Y24475D01*
X24853Y24385D01*
X24927Y24312D01*
X25017Y24260D01*
X25118Y24233D01*
X25222D01*
X25322Y24260D01*
X25412Y24312D01*
X25486Y24385D01*
X25538Y24475D01*
X25565Y24576D01*
Y24680D01*
X25538Y24781D01*
X25486Y24871D01*
X25412Y24944D01*
X25322Y24996D01*
X25222Y25023D01*
D02*
G37*
G36*
X44450Y24733D02*
X43950D01*
X43859Y24721D01*
X43773Y24686D01*
X43700Y24630D01*
X43644Y24557D01*
X43609Y24471D01*
X43597Y24380D01*
X43609Y24289D01*
X43644Y24203D01*
X43700Y24130D01*
X43773Y24074D01*
X43859Y24039D01*
X43950Y24027D01*
X44450D01*
X44541Y24039D01*
X44627Y24074D01*
X44700Y24130D01*
X44756Y24203D01*
X44791Y24289D01*
X44803Y24380D01*
X44791Y24471D01*
X44756Y24557D01*
X44700Y24630D01*
X44627Y24686D01*
X44541Y24721D01*
X44450Y24733D01*
D02*
G37*
G36*
X38450D02*
X37950D01*
X37859Y24721D01*
X37773Y24686D01*
X37700Y24630D01*
X37644Y24557D01*
X37609Y24471D01*
X37597Y24380D01*
X37609Y24289D01*
X37644Y24203D01*
X37700Y24130D01*
X37773Y24074D01*
X37859Y24039D01*
X37950Y24027D01*
X38450D01*
X38541Y24039D01*
X38627Y24074D01*
X38700Y24130D01*
X38756Y24203D01*
X38791Y24289D01*
X38803Y24380D01*
X38791Y24471D01*
X38756Y24557D01*
X38700Y24630D01*
X38627Y24686D01*
X38541Y24721D01*
X38450Y24733D01*
D02*
G37*
G36*
X56920Y24198D02*
X56816D01*
X56716Y24171D01*
X56625Y24119D01*
X56552Y24045D01*
X56500Y23955D01*
X56473Y23855D01*
Y23751D01*
X56500Y23650D01*
X56552Y23560D01*
X56625Y23486D01*
X56716Y23434D01*
X56816Y23407D01*
X56920D01*
X57021Y23434D01*
X57111Y23486D01*
X57184Y23560D01*
X57237Y23650D01*
X57263Y23751D01*
Y23855D01*
X57237Y23955D01*
X57184Y24045D01*
X57111Y24119D01*
X57021Y24171D01*
X56920Y24198D01*
D02*
G37*
G36*
X25222Y24023D02*
X25118D01*
X25017Y23996D01*
X24927Y23944D01*
X24853Y23871D01*
X24801Y23781D01*
X24775Y23680D01*
Y23576D01*
X24801Y23475D01*
X24853Y23385D01*
X24927Y23312D01*
X25017Y23260D01*
X25118Y23233D01*
X25222D01*
X25322Y23260D01*
X25412Y23312D01*
X25486Y23385D01*
X25538Y23475D01*
X25565Y23576D01*
Y23680D01*
X25538Y23781D01*
X25486Y23871D01*
X25412Y23944D01*
X25322Y23996D01*
X25222Y24023D01*
D02*
G37*
G36*
X44450Y23733D02*
X43950D01*
X43859Y23721D01*
X43773Y23686D01*
X43700Y23630D01*
X43644Y23557D01*
X43609Y23471D01*
X43597Y23380D01*
X43609Y23289D01*
X43644Y23203D01*
X43700Y23130D01*
X43773Y23074D01*
X43859Y23039D01*
X43950Y23027D01*
X44450D01*
X44541Y23039D01*
X44627Y23074D01*
X44700Y23130D01*
X44756Y23203D01*
X44791Y23289D01*
X44803Y23380D01*
X44791Y23471D01*
X44756Y23557D01*
X44700Y23630D01*
X44627Y23686D01*
X44541Y23721D01*
X44450Y23733D01*
D02*
G37*
G36*
X38450D02*
X37950D01*
X37859Y23721D01*
X37773Y23686D01*
X37700Y23630D01*
X37644Y23557D01*
X37609Y23471D01*
X37597Y23380D01*
X37609Y23289D01*
X37644Y23203D01*
X37700Y23130D01*
X37773Y23074D01*
X37859Y23039D01*
X37950Y23027D01*
X38450D01*
X38541Y23039D01*
X38627Y23074D01*
X38700Y23130D01*
X38756Y23203D01*
X38791Y23289D01*
X38803Y23380D01*
X38791Y23471D01*
X38756Y23557D01*
X38700Y23630D01*
X38627Y23686D01*
X38541Y23721D01*
X38450Y23733D01*
D02*
G37*
G36*
Y22733D02*
X38250D01*
Y22430D01*
X38796D01*
X38791Y22471D01*
X38756Y22557D01*
X38700Y22630D01*
X38627Y22686D01*
X38541Y22721D01*
X38450Y22733D01*
D02*
G37*
G36*
X38150D02*
X37950D01*
X37859Y22721D01*
X37773Y22686D01*
X37700Y22630D01*
X37644Y22557D01*
X37609Y22471D01*
X37604Y22430D01*
X38150D01*
Y22733D01*
D02*
G37*
G36*
X57263Y23198D02*
X56473D01*
Y22407D01*
X57263D01*
Y23198D01*
D02*
G37*
G36*
X25222Y23023D02*
X25118D01*
X25017Y22996D01*
X24927Y22944D01*
X24853Y22871D01*
X24801Y22781D01*
X24775Y22680D01*
Y22576D01*
X24801Y22475D01*
X24853Y22385D01*
X24927Y22312D01*
X25017Y22260D01*
X25118Y22233D01*
X25222D01*
X25322Y22260D01*
X25412Y22312D01*
X25486Y22385D01*
X25538Y22475D01*
X25565Y22576D01*
Y22680D01*
X25538Y22781D01*
X25486Y22871D01*
X25412Y22944D01*
X25322Y22996D01*
X25222Y23023D01*
D02*
G37*
G36*
X44450Y22733D02*
X43950D01*
X43859Y22721D01*
X43773Y22686D01*
X43700Y22630D01*
X43644Y22557D01*
X43609Y22471D01*
X43597Y22380D01*
X43609Y22289D01*
X43644Y22203D01*
X43700Y22130D01*
X43773Y22074D01*
X43859Y22039D01*
X43950Y22027D01*
X44450D01*
X44541Y22039D01*
X44627Y22074D01*
X44700Y22130D01*
X44756Y22203D01*
X44791Y22289D01*
X44803Y22380D01*
X44791Y22471D01*
X44756Y22557D01*
X44700Y22630D01*
X44627Y22686D01*
X44541Y22721D01*
X44450Y22733D01*
D02*
G37*
G36*
X38796Y22330D02*
X38250D01*
Y22131D01*
X38400D01*
X38381Y22129D01*
X38364Y22123D01*
X38349Y22113D01*
X38336Y22099D01*
X38325Y22081D01*
X38316Y22059D01*
X38309Y22033D01*
X38308Y22027D01*
X38450D01*
X38541Y22039D01*
X38627Y22074D01*
X38700Y22130D01*
X38756Y22203D01*
X38791Y22289D01*
X38796Y22330D01*
D02*
G37*
G36*
X38150D02*
X37604D01*
X37609Y22289D01*
X37644Y22203D01*
X37700Y22130D01*
X37773Y22074D01*
X37859Y22039D01*
X37950Y22027D01*
X38092D01*
X38091Y22033D01*
X38084Y22059D01*
X38075Y22081D01*
X38064Y22099D01*
X38051Y22113D01*
X38036Y22123D01*
X38019Y22129D01*
X38000Y22131D01*
X38150D01*
Y22330D01*
D02*
G37*
G36*
X38450Y21733D02*
X38308D01*
X38309Y21727D01*
X38316Y21701D01*
X38325Y21679D01*
X38336Y21661D01*
X38349Y21647D01*
X38364Y21637D01*
X38381Y21631D01*
X38400Y21629D01*
X38250D01*
Y21430D01*
X38598D01*
Y21579D01*
X38601Y21560D01*
X38609Y21543D01*
X38623Y21529D01*
X38643Y21516D01*
X38668Y21505D01*
X38699Y21496D01*
X38735Y21489D01*
X38778Y21484D01*
X38786Y21483D01*
X38756Y21557D01*
X38700Y21630D01*
X38627Y21686D01*
X38541Y21721D01*
X38450Y21733D01*
D02*
G37*
G36*
X38092D02*
X37950D01*
X37859Y21721D01*
X37773Y21686D01*
X37700Y21630D01*
X37644Y21557D01*
X37609Y21471D01*
X37604Y21430D01*
X38150D01*
Y21629D01*
X38000D01*
X38019Y21631D01*
X38036Y21637D01*
X38051Y21647D01*
X38064Y21661D01*
X38075Y21679D01*
X38084Y21701D01*
X38091Y21727D01*
X38092Y21733D01*
D02*
G37*
G36*
X56934Y21574D02*
X56802D01*
X56675Y21540D01*
X56561Y21474D01*
X56519Y21432D01*
X56511Y21427D01*
X56478Y21395D01*
X56447Y21368D01*
X56418Y21345D01*
X56389Y21325D01*
X56361Y21309D01*
X56335Y21297D01*
X56310Y21288D01*
X56286Y21281D01*
X56267Y21278D01*
X56221D01*
X56209Y21279D01*
X56187Y21282D01*
X56171Y21286D01*
Y21361D01*
X56074D01*
X56070Y21362D01*
X56066Y21361D01*
X55670D01*
X55656Y21361D01*
X55620D01*
X55606Y21361D01*
X55413D01*
Y21074D01*
Y20888D01*
X55519D01*
X55509Y20886D01*
X55501Y20880D01*
X55493Y20870D01*
X55486Y20856D01*
X55481Y20838D01*
X55476Y20816D01*
X55473Y20790D01*
X55473Y20787D01*
X55606D01*
X55620Y20787D01*
X55656D01*
X55670Y20787D01*
X56066D01*
X56070Y20786D01*
X56074Y20787D01*
X56171D01*
Y20862D01*
X56187Y20866D01*
X56209Y20869D01*
X56221Y20870D01*
X56267D01*
X56286Y20867D01*
X56310Y20861D01*
X56335Y20851D01*
X56361Y20839D01*
X56389Y20823D01*
X56416Y20804D01*
X56479Y20752D01*
X56511Y20721D01*
X56519Y20716D01*
X56561Y20674D01*
X56675Y20608D01*
X56802Y20574D01*
X56934D01*
X57061Y20608D01*
X57175Y20674D01*
X57268Y20767D01*
X57334Y20881D01*
X57368Y21008D01*
Y21140D01*
X57334Y21267D01*
X57268Y21381D01*
X57175Y21474D01*
X57061Y21540D01*
X56934Y21574D01*
D02*
G37*
G36*
X55313Y21361D02*
X55105D01*
Y21124D01*
X55313D01*
Y21361D01*
D02*
G37*
G36*
X44800Y21730D02*
X43600D01*
Y21030D01*
X44800D01*
Y21730D01*
D02*
G37*
G36*
X55313Y21024D02*
X55105D01*
Y20787D01*
X55263D01*
X55263Y20790D01*
X55258Y20816D01*
X55253Y20838D01*
X55246Y20856D01*
X55238Y20870D01*
X55229Y20880D01*
X55218Y20886D01*
X55206Y20888D01*
X55313D01*
Y21024D01*
D02*
G37*
G36*
X38598Y21330D02*
X38200D01*
X37604D01*
X37609Y21289D01*
X37644Y21203D01*
X37700Y21130D01*
X37760Y21084D01*
X37744Y21034D01*
X27368D01*
X27271Y21015D01*
X27188Y20960D01*
X26874Y20646D01*
X26819Y20563D01*
X26799Y20466D01*
Y19011D01*
X26793Y18976D01*
X26783Y18946D01*
X26771Y18924D01*
X26757Y18906D01*
X26739Y18892D01*
X26717Y18880D01*
X26687Y18870D01*
X26652Y18864D01*
X26602D01*
X26593Y18864D01*
X26542Y18868D01*
Y18896D01*
X26445D01*
X26441Y18897D01*
X26440Y18896D01*
X26438Y18897D01*
X26435Y18896D01*
X26041D01*
X26027Y18896D01*
X25991D01*
X25977Y18896D01*
X25581D01*
X25577Y18897D01*
X25573Y18896D01*
X25476D01*
Y18820D01*
X25460Y18817D01*
X25438Y18814D01*
X25426Y18813D01*
X25309D01*
X25231Y18797D01*
X25165Y18753D01*
X24560Y18148D01*
X24516Y18082D01*
X24500Y18004D01*
Y16402D01*
X24498Y16400D01*
X24464Y16341D01*
X24447Y16275D01*
Y16208D01*
X24464Y16142D01*
X24498Y16083D01*
X24546Y16035D01*
X24605Y16002D01*
X24670Y15984D01*
X24738D01*
X24803Y16002D01*
X24862Y16035D01*
X24910Y16083D01*
X24944Y16142D01*
X24962Y16208D01*
Y16275D01*
X24944Y16341D01*
X24910Y16400D01*
X24909Y16401D01*
X24908Y16416D01*
Y17920D01*
X25393Y18405D01*
X25426D01*
X25438Y18404D01*
X25460Y18401D01*
X25476Y18397D01*
Y18322D01*
X25573D01*
X25577Y18321D01*
X25581Y18322D01*
X25977D01*
X25991Y18322D01*
X26027D01*
X26041Y18322D01*
X26435D01*
X26438Y18321D01*
X26440Y18321D01*
X26441Y18321D01*
X26445Y18322D01*
X26542D01*
Y18347D01*
X26647Y18354D01*
X26652D01*
X26687Y18348D01*
X26717Y18338D01*
X26739Y18326D01*
X26757Y18311D01*
X26771Y18294D01*
X26783Y18271D01*
X26793Y18242D01*
X26799Y18206D01*
Y18140D01*
X26566D01*
Y18143D01*
X26468D01*
X26465Y18144D01*
X26464Y18144D01*
X26463Y18144D01*
X26460Y18143D01*
X25992D01*
Y17642D01*
X25992Y17628D01*
Y17592D01*
X25992Y17578D01*
Y17182D01*
X25991Y17178D01*
X25992Y17174D01*
Y17077D01*
X26067D01*
X26071Y17061D01*
X26074Y17039D01*
X26075Y17027D01*
Y16405D01*
X26073Y16403D01*
X26039Y16345D01*
X26021Y16279D01*
Y16211D01*
X26039Y16146D01*
X26073Y16087D01*
X26121Y16039D01*
X26179Y16005D01*
X26245Y15988D01*
X26313D01*
X26378Y16005D01*
X26437Y16039D01*
X26485Y16087D01*
X26519Y16146D01*
X26536Y16211D01*
Y16279D01*
X26519Y16345D01*
X26485Y16403D01*
X26484Y16404D01*
X26483Y16420D01*
Y17027D01*
X26484Y17039D01*
X26487Y17061D01*
X26490Y17077D01*
X26566D01*
Y17174D01*
X26567Y17178D01*
X26566Y17182D01*
Y17578D01*
X26566Y17592D01*
X26594Y17630D01*
X26625Y17631D01*
X26860D01*
X26860Y17631D01*
X29886D01*
X29943Y17627D01*
X29958Y17626D01*
Y17593D01*
X29960D01*
X29961Y17534D01*
Y17316D01*
X29958D01*
Y17219D01*
X29958Y17215D01*
X29958Y17214D01*
X29958Y17213D01*
X29958Y17210D01*
Y16847D01*
X29958Y16843D01*
X29958Y16839D01*
Y16742D01*
X30008D01*
X30009Y16734D01*
X30012Y16697D01*
Y16008D01*
X30010Y16006D01*
X29976Y15947D01*
X29958Y15882D01*
Y15814D01*
X29976Y15748D01*
X30010Y15690D01*
X30058Y15642D01*
X30117Y15608D01*
X30182Y15590D01*
X30250D01*
X30315Y15608D01*
X30374Y15642D01*
X30422Y15690D01*
X30456Y15748D01*
X30473Y15814D01*
Y15882D01*
X30456Y15947D01*
X30422Y16006D01*
X30421Y16007D01*
X30420Y16022D01*
Y16693D01*
X30449Y16742D01*
X30510Y16742D01*
X30523Y16742D01*
X30662D01*
X30662Y16745D01*
X30658Y16771D01*
X30653Y16793D01*
X30647Y16811D01*
X30640Y16825D01*
X30631Y16835D01*
X30622Y16841D01*
X30611Y16843D01*
X30717D01*
Y17029D01*
X30817D01*
Y16843D01*
X30923D01*
X30913Y16841D01*
X30903Y16835D01*
X30895Y16825D01*
X30887Y16811D01*
X30881Y16793D01*
X30876Y16771D01*
X30872Y16745D01*
X30872Y16742D01*
X30995D01*
X31025Y16742D01*
X31045Y16701D01*
Y15641D01*
X31061Y15563D01*
X31105Y15496D01*
X32343Y14258D01*
X32346Y14255D01*
X32355Y14242D01*
X32363Y14229D01*
X32369Y14217D01*
X32374Y14205D01*
X32378Y14192D01*
X32380Y14180D01*
X32382Y14167D01*
X32382Y14149D01*
X32384Y14141D01*
Y14103D01*
X32408Y14013D01*
X32455Y13931D01*
X32521Y13865D01*
X32603Y13818D01*
X32693Y13794D01*
X32787D01*
X32877Y13818D01*
X32959Y13865D01*
X32978Y13884D01*
X32994Y13896D01*
X33006Y13912D01*
X33025Y13931D01*
X33072Y14013D01*
X33096Y14103D01*
Y14197D01*
X33072Y14287D01*
X33025Y14369D01*
X32959Y14435D01*
X32877Y14482D01*
X32787Y14506D01*
X32749D01*
X32741Y14508D01*
X32723Y14508D01*
X32710Y14510D01*
X32698Y14512D01*
X32685Y14516D01*
X32673Y14521D01*
X32661Y14527D01*
X32648Y14535D01*
X32635Y14544D01*
X32632Y14547D01*
X31453Y15725D01*
Y16104D01*
X31503Y16117D01*
X31540Y16062D01*
X32343Y15258D01*
X32346Y15255D01*
X32355Y15242D01*
X32363Y15229D01*
X32369Y15217D01*
X32374Y15205D01*
X32378Y15192D01*
X32380Y15180D01*
X32382Y15167D01*
X32382Y15149D01*
X32384Y15141D01*
Y15103D01*
X32408Y15013D01*
X32455Y14931D01*
X32521Y14865D01*
X32603Y14818D01*
X32693Y14794D01*
X32787D01*
X32877Y14818D01*
X32907Y14835D01*
X32938Y14842D01*
X33004Y14886D01*
X33048Y14952D01*
X33055Y14983D01*
X33072Y15013D01*
X33096Y15103D01*
Y15197D01*
X33072Y15287D01*
X33025Y15369D01*
X32959Y15435D01*
X32877Y15482D01*
X32787Y15506D01*
X32749D01*
X32741Y15508D01*
X32723Y15508D01*
X32710Y15510D01*
X32698Y15512D01*
X32685Y15516D01*
X32673Y15521D01*
X32661Y15527D01*
X32648Y15535D01*
X32635Y15544D01*
X32632Y15547D01*
X31888Y16290D01*
Y16648D01*
X31934Y16667D01*
X32343Y16258D01*
X32346Y16255D01*
X32355Y16242D01*
X32363Y16229D01*
X32369Y16217D01*
X32374Y16205D01*
X32378Y16192D01*
X32380Y16180D01*
X32382Y16167D01*
X32382Y16149D01*
X32384Y16141D01*
Y16103D01*
X32408Y16013D01*
X32455Y15931D01*
X32521Y15865D01*
X32603Y15818D01*
X32693Y15794D01*
X32787D01*
X32877Y15818D01*
X32959Y15865D01*
X33025Y15931D01*
X33072Y16013D01*
X33096Y16103D01*
Y16197D01*
X33072Y16287D01*
X33025Y16369D01*
X32959Y16435D01*
X32877Y16482D01*
X32787Y16506D01*
X32749D01*
X32741Y16508D01*
X32723Y16508D01*
X32710Y16510D01*
X32698Y16512D01*
X32685Y16516D01*
X32673Y16521D01*
X32661Y16527D01*
X32648Y16535D01*
X32635Y16544D01*
X32632Y16547D01*
X32188Y16990D01*
Y17348D01*
X32234Y17367D01*
X32343Y17258D01*
X32346Y17255D01*
X32355Y17242D01*
X32363Y17229D01*
X32369Y17217D01*
X32374Y17205D01*
X32378Y17192D01*
X32380Y17180D01*
X32382Y17167D01*
X32382Y17149D01*
X32384Y17141D01*
Y17103D01*
X32408Y17013D01*
X32455Y16931D01*
X32521Y16865D01*
X32603Y16818D01*
X32693Y16794D01*
X32787D01*
X32877Y16818D01*
X32959Y16865D01*
X33025Y16931D01*
X33072Y17013D01*
X33096Y17103D01*
Y17197D01*
X33072Y17287D01*
X33025Y17369D01*
X32959Y17435D01*
X32877Y17482D01*
X32787Y17506D01*
X32749D01*
X32741Y17508D01*
X32723Y17508D01*
X32710Y17510D01*
X32698Y17512D01*
X32685Y17516D01*
X32673Y17521D01*
X32661Y17527D01*
X32648Y17535D01*
X32635Y17544D01*
X32632Y17547D01*
X32488Y17690D01*
Y17833D01*
X32538Y17856D01*
X32603Y17818D01*
X32693Y17794D01*
X32787D01*
X32877Y17818D01*
X32959Y17865D01*
X33025Y17931D01*
X33072Y18013D01*
X33096Y18103D01*
Y18112D01*
X33098Y18128D01*
X33101Y18142D01*
X33105Y18156D01*
X33110Y18170D01*
X33117Y18183D01*
X33124Y18197D01*
X33133Y18211D01*
X33143Y18224D01*
X33144Y18226D01*
X34653Y19735D01*
X34660Y19740D01*
X34675Y19750D01*
X34691Y19759D01*
X34708Y19766D01*
X34725Y19772D01*
X34743Y19777D01*
X34763Y19780D01*
X34784Y19782D01*
X34809Y19783D01*
X34818Y19785D01*
X34862D01*
X34963Y19812D01*
X35053Y19864D01*
X35126Y19937D01*
X35178Y20027D01*
X35205Y20128D01*
Y20232D01*
X35178Y20333D01*
X35126Y20423D01*
X35074Y20475D01*
X35095Y20525D01*
X35525D01*
X35546Y20475D01*
X35494Y20423D01*
X35442Y20333D01*
X35415Y20232D01*
Y20230D01*
X35810D01*
X36205D01*
Y20232D01*
X36178Y20333D01*
X36126Y20423D01*
X36074Y20475D01*
X36095Y20525D01*
X39446D01*
X39456Y20522D01*
X39524D01*
X39589Y20540D01*
X39648Y20573D01*
X39696Y20621D01*
X39730Y20680D01*
X39747Y20746D01*
Y20813D01*
X39730Y20879D01*
X39696Y20938D01*
X39648Y20985D01*
X39589Y21019D01*
X39524Y21037D01*
X39456D01*
X39446Y21034D01*
X38656D01*
X38640Y21084D01*
X38700Y21130D01*
X38756Y21203D01*
X38786Y21276D01*
X38735Y21271D01*
X38699Y21264D01*
X38668Y21255D01*
X38643Y21244D01*
X38623Y21231D01*
X38609Y21217D01*
X38601Y21200D01*
X38598Y21181D01*
Y21330D01*
D02*
G37*
G36*
X55418Y20409D02*
Y20372D01*
X55468D01*
X55468Y20354D01*
X55473Y20281D01*
X55475Y20275D01*
X55476Y20271D01*
X55478Y20268D01*
X55418D01*
Y20205D01*
X55621D01*
X55608Y20255D01*
X55574Y20314D01*
X55526Y20361D01*
X55468Y20395D01*
X55418Y20409D01*
D02*
G37*
G36*
X55318D02*
X55269Y20395D01*
X55210Y20361D01*
X55162Y20314D01*
X55128Y20255D01*
X55115Y20205D01*
X55318D01*
Y20268D01*
X55258D01*
X55260Y20271D01*
X55262Y20275D01*
X55263Y20281D01*
X55264Y20289D01*
X55267Y20310D01*
X55268Y20337D01*
X55268Y20372D01*
X55318D01*
Y20409D01*
D02*
G37*
G36*
X55621Y20105D02*
X55418D01*
Y20043D01*
X55478D01*
X55476Y20040D01*
X55475Y20036D01*
X55473Y20029D01*
X55472Y20022D01*
X55470Y20001D01*
X55469Y19973D01*
X55468Y19939D01*
X55418D01*
Y19902D01*
X55468Y19915D01*
X55526Y19949D01*
X55574Y19997D01*
X55608Y20056D01*
X55621Y20105D01*
D02*
G37*
G36*
X55318D02*
X55115D01*
X55128Y20056D01*
X55162Y19997D01*
X55210Y19949D01*
X55269Y19915D01*
X55318Y19902D01*
Y19939D01*
X55268D01*
X55268Y19957D01*
X55263Y20029D01*
X55262Y20036D01*
X55260Y20040D01*
X55258Y20043D01*
X55318D01*
Y20105D01*
D02*
G37*
G36*
X36205Y20130D02*
X35860D01*
Y19785D01*
X35862D01*
X35963Y19812D01*
X36053Y19864D01*
X36126Y19937D01*
X36178Y20027D01*
X36205Y20128D01*
Y20130D01*
D02*
G37*
G36*
X35760D02*
X35415D01*
Y20128D01*
X35442Y20027D01*
X35494Y19937D01*
X35567Y19864D01*
X35657Y19812D01*
X35758Y19785D01*
X35760D01*
Y20130D01*
D02*
G37*
G36*
X57368Y20196D02*
X56368D01*
Y19196D01*
X57368D01*
Y20196D01*
D02*
G37*
G36*
X50642Y18307D02*
Y18002D01*
X50947D01*
X50924Y18089D01*
X50877Y18171D01*
X50811Y18237D01*
X50729Y18284D01*
X50642Y18307D01*
D02*
G37*
G36*
X50542Y18307D02*
X50455Y18284D01*
X50374Y18237D01*
X50307Y18171D01*
X50260Y18089D01*
X50237Y18002D01*
X50542D01*
Y18307D01*
D02*
G37*
G36*
X55107Y19116D02*
X53307D01*
Y17916D01*
X55107D01*
Y19116D01*
D02*
G37*
G36*
X50542Y17902D02*
X50237D01*
X50260Y17815D01*
X50307Y17734D01*
X50374Y17667D01*
X50455Y17620D01*
X50542Y17597D01*
Y17902D01*
D02*
G37*
G36*
X50947D02*
X50642D01*
Y17597D01*
X50729Y17620D01*
X50811Y17667D01*
X50877Y17734D01*
X50924Y17815D01*
X50947Y17902D01*
D02*
G37*
G36*
X49342Y18312D02*
X49086D01*
X48997Y18295D01*
X48922Y18244D01*
X48871Y18169D01*
X48854Y18080D01*
Y17824D01*
X48871Y17735D01*
X48922Y17660D01*
X48997Y17609D01*
X49086Y17592D01*
X49342D01*
X49431Y17609D01*
X49506Y17660D01*
X49557Y17735D01*
X49575Y17824D01*
Y18080D01*
X49557Y18169D01*
X49506Y18244D01*
X49431Y18295D01*
X49342Y18312D01*
D02*
G37*
G36*
X56307Y17416D02*
X55815D01*
X55816Y17412D01*
X55823Y17386D01*
X55832Y17364D01*
X55843Y17346D01*
X55856Y17332D01*
X55871Y17322D01*
X55888Y17316D01*
X55907Y17314D01*
X55757D01*
Y16566D01*
X56307D01*
Y17416D01*
D02*
G37*
G36*
X55599D02*
X55107D01*
Y16566D01*
X55657D01*
Y17314D01*
X55507D01*
X55526Y17316D01*
X55543Y17322D01*
X55558Y17332D01*
X55571Y17346D01*
X55582Y17364D01*
X55591Y17386D01*
X55598Y17412D01*
X55599Y17416D01*
D02*
G37*
G36*
X35790Y16505D02*
Y16200D01*
X36095D01*
X36072Y16287D01*
X36025Y16369D01*
X35959Y16435D01*
X35877Y16482D01*
X35790Y16505D01*
D02*
G37*
G36*
X35690D02*
X35603Y16482D01*
X35521Y16435D01*
X35455Y16369D01*
X35408Y16287D01*
X35385Y16200D01*
X35690D01*
Y16505D01*
D02*
G37*
G36*
X36095Y16100D02*
X35790D01*
Y15795D01*
X35877Y15818D01*
X35959Y15865D01*
X36025Y15931D01*
X36072Y16013D01*
X36095Y16100D01*
D02*
G37*
G36*
X35690D02*
X35385D01*
X35408Y16013D01*
X35455Y15931D01*
X35521Y15865D01*
X35603Y15818D01*
X35690Y15795D01*
Y16100D01*
D02*
G37*
G36*
X56307Y16466D02*
X55757D01*
Y15717D01*
X55951D01*
X55932Y15715D01*
X55915Y15709D01*
X55900Y15699D01*
X55887Y15685D01*
X55876Y15667D01*
X55867Y15645D01*
X55860Y15619D01*
X55860Y15616D01*
X56307D01*
Y16466D01*
D02*
G37*
G36*
X55657D02*
X55107D01*
Y15616D01*
X55643D01*
X55642Y15619D01*
X55635Y15645D01*
X55626Y15667D01*
X55615Y15685D01*
X55602Y15699D01*
X55587Y15709D01*
X55570Y15715D01*
X55551Y15717D01*
X55657D01*
Y16466D01*
D02*
G37*
G36*
X53807Y17416D02*
X52607D01*
Y15616D01*
X53807D01*
Y17416D01*
D02*
G37*
G36*
X35790Y15505D02*
Y15200D01*
X36095D01*
X36072Y15287D01*
X36025Y15369D01*
X35959Y15435D01*
X35877Y15482D01*
X35790Y15505D01*
D02*
G37*
G36*
X35690D02*
X35603Y15482D01*
X35521Y15435D01*
X35455Y15369D01*
X35408Y15287D01*
X35385Y15200D01*
X35690D01*
Y15505D01*
D02*
G37*
G36*
X36095Y15100D02*
X35790D01*
Y14795D01*
X35877Y14818D01*
X35959Y14865D01*
X36025Y14931D01*
X36072Y15013D01*
X36095Y15100D01*
D02*
G37*
G36*
X35690D02*
X35385D01*
X35408Y15013D01*
X35455Y14931D01*
X35521Y14865D01*
X35603Y14818D01*
X35690Y14795D01*
Y15100D01*
D02*
G37*
G36*
X30817Y14913D02*
Y14876D01*
X30867D01*
X30867Y14858D01*
X30872Y14786D01*
X30874Y14780D01*
X30875Y14775D01*
X30877Y14772D01*
X30817D01*
Y14710D01*
X31020D01*
X31007Y14759D01*
X30973Y14818D01*
X30925Y14866D01*
X30866Y14900D01*
X30817Y14913D01*
D02*
G37*
G36*
X30717D02*
X30668Y14900D01*
X30609Y14866D01*
X30561Y14818D01*
X30527Y14759D01*
X30514Y14710D01*
X30717D01*
Y14772D01*
X30657D01*
X30659Y14775D01*
X30661Y14780D01*
X30662Y14786D01*
X30663Y14794D01*
X30665Y14815D01*
X30667Y14842D01*
X30667Y14876D01*
X30717D01*
Y14913D01*
D02*
G37*
G36*
X31020Y14610D02*
X30817D01*
Y14407D01*
X30866Y14420D01*
X30925Y14454D01*
X30973Y14502D01*
X31007Y14561D01*
X31020Y14610D01*
D02*
G37*
G36*
X30717D02*
X30514D01*
X30527Y14561D01*
X30561Y14502D01*
X30609Y14454D01*
X30668Y14420D01*
X30717Y14407D01*
Y14610D01*
D02*
G37*
G36*
X35790Y14505D02*
Y14200D01*
X36095D01*
X36072Y14287D01*
X36025Y14369D01*
X35959Y14435D01*
X35877Y14482D01*
X35790Y14505D01*
D02*
G37*
G36*
X35690D02*
X35603Y14482D01*
X35521Y14435D01*
X35455Y14369D01*
X35408Y14287D01*
X35385Y14200D01*
X35690D01*
Y14505D01*
D02*
G37*
G36*
X42070Y14421D02*
Y14116D01*
X42203D01*
Y14245D01*
X42219Y14230D01*
X42236Y14217D01*
X42254Y14205D01*
X42273Y14195D01*
X42293Y14186D01*
X42315Y14179D01*
X42337Y14173D01*
X42360Y14169D01*
X42361Y14169D01*
X42352Y14204D01*
X42305Y14285D01*
X42239Y14351D01*
X42158Y14398D01*
X42070Y14421D01*
D02*
G37*
G36*
X41970D02*
X41883Y14398D01*
X41802Y14351D01*
X41735Y14285D01*
X41689Y14204D01*
X41665Y14116D01*
X41970D01*
Y14421D01*
D02*
G37*
G36*
X36095Y14100D02*
X35790D01*
Y13795D01*
X35877Y13818D01*
X35959Y13865D01*
X36025Y13931D01*
X36072Y14013D01*
X36095Y14100D01*
D02*
G37*
G36*
X35690D02*
X35385D01*
X35408Y14013D01*
X35455Y13931D01*
X35521Y13865D01*
X35603Y13818D01*
X35690Y13795D01*
Y14100D01*
D02*
G37*
G36*
X42203Y14016D02*
X42070D01*
Y13711D01*
X42158Y13734D01*
X42239Y13781D01*
X42305Y13848D01*
X42352Y13929D01*
X42361Y13963D01*
X42360Y13963D01*
X42337Y13959D01*
X42315Y13953D01*
X42293Y13946D01*
X42273Y13938D01*
X42254Y13927D01*
X42236Y13915D01*
X42219Y13902D01*
X42203Y13887D01*
Y14016D01*
D02*
G37*
G36*
X41970D02*
X41665D01*
X41689Y13929D01*
X41735Y13848D01*
X41802Y13781D01*
X41883Y13734D01*
X41970Y13711D01*
Y14016D01*
D02*
G37*
G36*
X56831Y14638D02*
X56676D01*
X56523Y14608D01*
X56379Y14549D01*
X56250Y14462D01*
X56140Y14352D01*
X56053Y14223D01*
X55994Y14079D01*
X55963Y13926D01*
Y13771D01*
X55994Y13618D01*
X56053Y13474D01*
X56140Y13345D01*
X56250Y13235D01*
X56379Y13148D01*
X56523Y13089D01*
X56676Y13058D01*
X56831D01*
X56984Y13089D01*
X57128Y13148D01*
X57257Y13235D01*
X57367Y13345D01*
X57453Y13474D01*
X57513Y13618D01*
X57543Y13771D01*
Y13926D01*
X57513Y14079D01*
X57453Y14223D01*
X57367Y14352D01*
X57257Y14462D01*
X57128Y14549D01*
X56984Y14608D01*
X56831Y14638D01*
D02*
G37*
%LPD*%
G36*
X44390Y45713D02*
X44390Y45695D01*
X44395Y45623D01*
X44396Y45616D01*
X44398Y45612D01*
X44400Y45609D01*
X44180Y45610D01*
X44182Y45612D01*
X44183Y45617D01*
X44185Y45623D01*
X44186Y45631D01*
X44188Y45652D01*
X44190Y45679D01*
X44190Y45713D01*
X44390Y45713D01*
D02*
G37*
G36*
X37189Y45694D02*
X37194Y45622D01*
X37195Y45616D01*
X37197Y45611D01*
X37199Y45608D01*
X36978D01*
X36980Y45611D01*
X36982Y45616D01*
X36984Y45622D01*
X36985Y45630D01*
X36987Y45651D01*
X36988Y45678D01*
X36989Y45712D01*
X37189D01*
X37189Y45694D01*
D02*
G37*
G36*
X30368Y45858D02*
X30292Y45856D01*
X30224Y45850D01*
X30164Y45840D01*
X30112Y45826D01*
X30068Y45808D01*
X30032Y45786D01*
X30004Y45760D01*
X29984Y45730D01*
X29972Y45696D01*
X29971Y45684D01*
X29969Y45639D01*
X29969Y45566D01*
X29884Y45580D01*
X29768D01*
X29768Y45599D01*
X29752Y45602D01*
X29755Y45605D01*
X29757Y45610D01*
X29760Y45616D01*
X29762Y45624D01*
X29764Y45634D01*
X29765Y45645D01*
X29766Y45654D01*
X29763Y45699D01*
X29752Y45730D01*
X29732Y45760D01*
X29704Y45786D01*
X29668Y45808D01*
X29624Y45826D01*
X29572Y45840D01*
X29512Y45850D01*
X29444Y45856D01*
X29368Y45858D01*
X29868Y46258D01*
X30368Y45858D01*
D02*
G37*
G36*
X48378Y44216D02*
X48375Y44218D01*
X48370Y44219D01*
X48364Y44221D01*
X48356Y44222D01*
X48335Y44224D01*
X48308Y44225D01*
X48274Y44226D01*
Y44426D01*
X48292Y44426D01*
X48364Y44431D01*
X48370Y44432D01*
X48375Y44434D01*
X48378Y44436D01*
Y44216D01*
D02*
G37*
G36*
X38655Y44428D02*
X38660Y44427D01*
X38666Y44425D01*
X38674Y44424D01*
X38695Y44422D01*
X38722Y44420D01*
X38756Y44420D01*
Y44220D01*
X38738Y44220D01*
X38666Y44215D01*
X38660Y44213D01*
X38655Y44212D01*
X38652Y44210D01*
Y44430D01*
X38655Y44428D01*
D02*
G37*
G36*
X46125Y44018D02*
X46130Y44017D01*
X46136Y44015D01*
X46144Y44014D01*
X46165Y44012D01*
X46192Y44010D01*
X46226Y44010D01*
Y43810D01*
X46208Y43810D01*
X46136Y43805D01*
X46130Y43803D01*
X46125Y43802D01*
X46122Y43800D01*
Y44020D01*
X46125Y44018D01*
D02*
G37*
G36*
X40928Y43800D02*
X40925Y43802D01*
X40920Y43803D01*
X40914Y43805D01*
X40906Y43806D01*
X40885Y43808D01*
X40858Y43810D01*
X40824Y43810D01*
Y44010D01*
X40842Y44010D01*
X40914Y44015D01*
X40920Y44017D01*
X40925Y44018D01*
X40928Y44020D01*
Y43800D01*
D02*
G37*
G36*
X32063Y43810D02*
X32046Y43810D01*
X32003Y43807D01*
X31992Y43805D01*
X31982Y43803D01*
X31975Y43801D01*
X31969Y43798D01*
X31964Y43795D01*
X31962Y43791D01*
X31887Y43998D01*
X32061Y44010D01*
X32063Y43810D01*
D02*
G37*
G36*
X51503Y43938D02*
X51507Y43936D01*
X51513Y43935D01*
X51521Y43933D01*
X51542Y43931D01*
X51569Y43930D01*
X51603Y43930D01*
Y43730D01*
X51586Y43729D01*
X51513Y43724D01*
X51507Y43723D01*
X51503Y43721D01*
X51500Y43719D01*
Y43940D01*
X51503Y43938D01*
D02*
G37*
G36*
X47810Y43441D02*
X47772Y43439D01*
X47738Y43433D01*
X47708Y43423D01*
X47682Y43409D01*
X47660Y43391D01*
X47642Y43369D01*
X47628Y43343D01*
X47618Y43313D01*
X47612Y43279D01*
X47610Y43241D01*
X47410D01*
X47408Y43279D01*
X47402Y43313D01*
X47392Y43343D01*
X47378Y43369D01*
X47360Y43391D01*
X47338Y43409D01*
X47312Y43423D01*
X47282Y43433D01*
X47248Y43439D01*
X47210Y43441D01*
X47510Y43641D01*
X47810Y43441D01*
D02*
G37*
G36*
X40340Y43441D02*
X40302Y43439D01*
X40268Y43433D01*
X40238Y43423D01*
X40212Y43409D01*
X40190Y43391D01*
X40172Y43369D01*
X40158Y43343D01*
X40148Y43313D01*
X40142Y43279D01*
X40140Y43241D01*
X39940D01*
X39938Y43279D01*
X39932Y43313D01*
X39922Y43343D01*
X39908Y43369D01*
X39890Y43391D01*
X39868Y43409D01*
X39842Y43423D01*
X39812Y43433D01*
X39778Y43439D01*
X39740Y43441D01*
X40040Y43641D01*
X40340Y43441D01*
D02*
G37*
G36*
X34200D02*
X34162Y43439D01*
X34128Y43433D01*
X34098Y43423D01*
X34072Y43409D01*
X34050Y43391D01*
X34032Y43369D01*
X34018Y43343D01*
X34008Y43313D01*
X34002Y43279D01*
X34000Y43241D01*
X33800D01*
X33798Y43279D01*
X33792Y43313D01*
X33782Y43343D01*
X33768Y43369D01*
X33750Y43391D01*
X33728Y43409D01*
X33702Y43423D01*
X33672Y43433D01*
X33638Y43439D01*
X33600Y43441D01*
X33900Y43641D01*
X34200Y43441D01*
D02*
G37*
G36*
X47610Y42352D02*
X47615Y42279D01*
X47617Y42273D01*
X47618Y42269D01*
X47620Y42266D01*
X47400D01*
X47402Y42269D01*
X47403Y42273D01*
X47405Y42279D01*
X47406Y42287D01*
X47408Y42308D01*
X47410Y42335D01*
X47410Y42369D01*
X47610D01*
X47610Y42352D01*
D02*
G37*
G36*
X40140D02*
X40145Y42279D01*
X40147Y42273D01*
X40148Y42269D01*
X40150Y42266D01*
X39930D01*
X39932Y42269D01*
X39933Y42273D01*
X39935Y42279D01*
X39936Y42287D01*
X39938Y42308D01*
X39940Y42335D01*
X39940Y42369D01*
X40140D01*
X40140Y42352D01*
D02*
G37*
G36*
X34000Y42188D02*
X34005Y42116D01*
X34007Y42110D01*
X34008Y42105D01*
X34010Y42102D01*
X33790D01*
X33792Y42105D01*
X33793Y42110D01*
X33795Y42116D01*
X33796Y42124D01*
X33798Y42145D01*
X33800Y42172D01*
X33800Y42206D01*
X34000D01*
X34000Y42188D01*
D02*
G37*
G36*
X50334Y41916D02*
X50333Y41912D01*
X50332Y41906D01*
X50330Y41889D01*
X50329Y41835D01*
X50329Y41817D01*
X50129Y41793D01*
X50129Y41811D01*
X50126Y41866D01*
X50124Y41876D01*
X50122Y41884D01*
X50120Y41890D01*
X50118Y41895D01*
X50115Y41898D01*
X50335Y41918D01*
X50334Y41916D01*
D02*
G37*
G36*
X32230Y40836D02*
X32228Y40831D01*
X32226Y40825D01*
X32225Y40817D01*
X32223Y40797D01*
X32222Y40769D01*
X32221Y40735D01*
X32021D01*
X32021Y40753D01*
X32016Y40825D01*
X32015Y40831D01*
X32013Y40836D01*
X32011Y40839D01*
X32231D01*
X32230Y40836D01*
D02*
G37*
G36*
X48116Y40628D02*
X48121Y40627D01*
X48127Y40625D01*
X48135Y40624D01*
X48156Y40622D01*
X48183Y40620D01*
X48217Y40620D01*
Y40420D01*
X48199Y40420D01*
X48127Y40415D01*
X48121Y40413D01*
X48116Y40412D01*
X48113Y40410D01*
Y40630D01*
X48116Y40628D01*
D02*
G37*
G36*
X49560Y40520D02*
X49360Y40220D01*
X49358Y40258D01*
X49352Y40292D01*
X49342Y40322D01*
X49328Y40348D01*
X49310Y40370D01*
X49288Y40388D01*
X49262Y40402D01*
X49232Y40412D01*
X49198Y40418D01*
X49160Y40420D01*
Y40620D01*
X49198Y40622D01*
X49232Y40628D01*
X49262Y40638D01*
X49288Y40652D01*
X49310Y40670D01*
X49328Y40692D01*
X49342Y40718D01*
X49352Y40748D01*
X49358Y40782D01*
X49360Y40820D01*
X49560Y40520D01*
D02*
G37*
G36*
X33453Y39835D02*
X33451Y39837D01*
X33446Y39839D01*
X33440Y39840D01*
X33432Y39841D01*
X33411Y39843D01*
X33384Y39845D01*
X33350Y39845D01*
Y40045D01*
X33368Y40045D01*
X33440Y40050D01*
X33446Y40052D01*
X33451Y40053D01*
X33453Y40055D01*
Y39835D01*
D02*
G37*
G36*
X32641Y40207D02*
X32647Y40173D01*
X32657Y40143D01*
X32671Y40117D01*
X32689Y40095D01*
X32711Y40077D01*
X32737Y40063D01*
X32767Y40053D01*
X32801Y40047D01*
X32839Y40045D01*
Y39845D01*
X32801Y39843D01*
X32767Y39837D01*
X32737Y39827D01*
X32711Y39813D01*
X32689Y39795D01*
X32671Y39773D01*
X32657Y39747D01*
X32647Y39717D01*
X32641Y39683D01*
X32639Y39645D01*
X32439Y39945D01*
X32639Y40245D01*
X32641Y40207D01*
D02*
G37*
G36*
X49955Y39728D02*
X49960Y39656D01*
X49961Y39650D01*
X49963Y39645D01*
X49965Y39642D01*
X49744D01*
X49746Y39645D01*
X49748Y39650D01*
X49750Y39656D01*
X49751Y39664D01*
X49753Y39685D01*
X49754Y39712D01*
X49755Y39746D01*
X49955D01*
X49955Y39728D01*
D02*
G37*
G36*
X28613Y37714D02*
X28632Y37707D01*
X28658Y37700D01*
X28691Y37695D01*
X28777Y37687D01*
X28959Y37680D01*
X29022Y37680D01*
X29030Y37680D01*
X29102Y37685D01*
X29108Y37687D01*
X29112Y37688D01*
X29115Y37690D01*
Y37470D01*
X29112Y37472D01*
X29108Y37473D01*
X29102Y37475D01*
X29094Y37476D01*
X29073Y37478D01*
X29046Y37480D01*
X29019Y37480D01*
X28959Y37480D01*
X28658Y37460D01*
X28632Y37453D01*
X28613Y37446D01*
X28602Y37438D01*
Y37439D01*
X28602Y37438D01*
Y37722D01*
X28602Y37721D01*
Y37722D01*
X28613Y37714D01*
D02*
G37*
G36*
X51485Y37341D02*
X51488Y37340D01*
X51494Y37340D01*
X51547Y37339D01*
X51581Y37339D01*
X51619Y37139D01*
X51601Y37138D01*
X51546Y37135D01*
X51536Y37133D01*
X51528Y37131D01*
X51522Y37129D01*
X51517Y37126D01*
X51514Y37123D01*
X51483Y37341D01*
X51485Y37341D01*
D02*
G37*
G36*
X49963Y36205D02*
X49961Y36200D01*
X49960Y36194D01*
X49958Y36186D01*
X49956Y36165D01*
X49955Y36138D01*
X49955Y36104D01*
X49755D01*
X49754Y36122D01*
X49750Y36194D01*
X49748Y36200D01*
X49746Y36205D01*
X49744Y36208D01*
X49965D01*
X49963Y36205D01*
D02*
G37*
G36*
X31786Y35154D02*
X31784Y35151D01*
X31782Y35146D01*
X31780Y35140D01*
X31779Y35132D01*
X31778Y35122D01*
X31776Y35098D01*
X31775Y35050D01*
X31575Y35058D01*
X31575Y35076D01*
X31570Y35148D01*
X31569Y35154D01*
X31568Y35159D01*
X31566Y35161D01*
X31786Y35154D01*
D02*
G37*
G36*
X48116Y34928D02*
X48121Y34927D01*
X48127Y34925D01*
X48135Y34924D01*
X48156Y34922D01*
X48183Y34920D01*
X48217Y34920D01*
Y34720D01*
X48199Y34720D01*
X48127Y34715D01*
X48121Y34713D01*
X48116Y34712D01*
X48113Y34710D01*
Y34930D01*
X48116Y34928D01*
D02*
G37*
G36*
X33453Y34184D02*
X33451Y34185D01*
X33446Y34187D01*
X33440Y34189D01*
X33432Y34190D01*
X33411Y34192D01*
X33384Y34193D01*
X33350Y34194D01*
Y34394D01*
X33368Y34394D01*
X33440Y34399D01*
X33446Y34400D01*
X33451Y34402D01*
X33453Y34404D01*
Y34184D01*
D02*
G37*
G36*
X32641Y34556D02*
X32647Y34522D01*
X32657Y34492D01*
X32671Y34466D01*
X32689Y34444D01*
X32711Y34426D01*
X32737Y34412D01*
X32767Y34402D01*
X32801Y34396D01*
X32839Y34394D01*
Y34194D01*
X32801Y34192D01*
X32767Y34186D01*
X32737Y34176D01*
X32711Y34162D01*
X32689Y34144D01*
X32671Y34122D01*
X32657Y34096D01*
X32647Y34066D01*
X32641Y34032D01*
X32639Y33994D01*
X32439Y34294D01*
X32639Y34594D01*
X32641Y34556D01*
D02*
G37*
G36*
X50330Y34011D02*
X50335Y33939D01*
X50337Y33932D01*
X50338Y33928D01*
X50340Y33925D01*
X50120D01*
X50122Y33928D01*
X50123Y33932D01*
X50125Y33939D01*
X50126Y33946D01*
X50128Y33967D01*
X50130Y33995D01*
X50130Y34029D01*
X50330D01*
X50330Y34011D01*
D02*
G37*
G36*
X32206Y32982D02*
X32211Y32910D01*
X32213Y32904D01*
X32215Y32899D01*
X32217Y32897D01*
X31996D01*
X31998Y32899D01*
X32000Y32904D01*
X32001Y32910D01*
X32003Y32918D01*
X32005Y32939D01*
X32006Y32966D01*
X32006Y33000D01*
X32206D01*
X32206Y32982D01*
D02*
G37*
G36*
X29255Y30580D02*
X29252Y30582D01*
X29247Y30583D01*
X29241Y30585D01*
X29233Y30586D01*
X29213Y30588D01*
X29185Y30590D01*
X29151Y30590D01*
Y30790D01*
X29169Y30790D01*
X29241Y30795D01*
X29247Y30797D01*
X29252Y30798D01*
X29255Y30800D01*
Y30580D01*
D02*
G37*
G36*
X28613Y30824D02*
X28632Y30817D01*
X28658Y30810D01*
X28691Y30805D01*
X28777Y30797D01*
X28959Y30790D01*
X29033Y30790D01*
Y30590D01*
X28959Y30590D01*
X28658Y30570D01*
X28632Y30563D01*
X28613Y30556D01*
X28602Y30548D01*
Y30832D01*
X28613Y30824D01*
D02*
G37*
G36*
X51162Y30565D02*
X51166Y30563D01*
X51172Y30562D01*
X51180Y30561D01*
X51213Y30560D01*
X51261Y30559D01*
X51279Y30359D01*
X51261Y30359D01*
X51197Y30354D01*
X51189Y30353D01*
X51182Y30351D01*
X51177Y30348D01*
X51174Y30346D01*
X51160Y30566D01*
X51162Y30565D01*
D02*
G37*
G36*
X37744Y30241D02*
X37742Y30248D01*
X37737Y30255D01*
X37727Y30261D01*
X37715Y30266D01*
X37698Y30270D01*
X37678Y30274D01*
X37654Y30276D01*
X37595Y30280D01*
X37560Y30280D01*
Y30480D01*
X37595Y30480D01*
X37678Y30486D01*
X37698Y30490D01*
X37715Y30494D01*
X37727Y30499D01*
X37737Y30505D01*
X37742Y30512D01*
X37744Y30519D01*
Y30241D01*
D02*
G37*
G36*
X52209Y30459D02*
X51809Y29959D01*
X51807Y30035D01*
X51801Y30103D01*
X51791Y30163D01*
X51777Y30215D01*
X51759Y30259D01*
X51737Y30295D01*
X51711Y30323D01*
X51681Y30343D01*
X51651Y30354D01*
X51511Y30358D01*
X51436Y30359D01*
Y30559D01*
X51511Y30559D01*
X51666Y30570D01*
X51681Y30575D01*
X51711Y30595D01*
X51737Y30623D01*
X51759Y30659D01*
X51777Y30703D01*
X51791Y30755D01*
X51801Y30815D01*
X51807Y30883D01*
X51809Y30959D01*
X52209Y30459D01*
D02*
G37*
G36*
X32228Y26720D02*
X32226Y26716D01*
X32225Y26710D01*
X32223Y26702D01*
X32221Y26681D01*
X32220Y26638D01*
X32220Y26620D01*
X32020Y26615D01*
X32020Y26632D01*
X32016Y26697D01*
X32015Y26705D01*
X32013Y26711D01*
X32011Y26716D01*
X32009Y26719D01*
X32229Y26723D01*
X32228Y26720D01*
D02*
G37*
G36*
X48110Y26696D02*
X48114Y26694D01*
X48120Y26693D01*
X48128Y26692D01*
X48148Y26691D01*
X48209Y26690D01*
X48224Y26490D01*
X48206Y26489D01*
X48141Y26485D01*
X48133Y26483D01*
X48127Y26482D01*
X48122Y26479D01*
X48119Y26477D01*
X48107Y26697D01*
X48110Y26696D01*
D02*
G37*
G36*
X33453Y25726D02*
X33451Y25728D01*
X33446Y25729D01*
X33440Y25731D01*
X33432Y25732D01*
X33411Y25734D01*
X33384Y25735D01*
X33350Y25736D01*
Y25936D01*
X33368Y25936D01*
X33440Y25941D01*
X33446Y25942D01*
X33451Y25944D01*
X33453Y25946D01*
Y25726D01*
D02*
G37*
G36*
X49955Y25782D02*
X49955Y25764D01*
X49959Y25692D01*
X49960Y25686D01*
X49962Y25682D01*
X49963Y25679D01*
X49743Y25686D01*
X49745Y25689D01*
X49747Y25693D01*
X49749Y25699D01*
X49750Y25707D01*
X49752Y25717D01*
X49754Y25741D01*
X49755Y25790D01*
X49955Y25782D01*
D02*
G37*
G36*
X32641Y26098D02*
X32647Y26064D01*
X32657Y26034D01*
X32671Y26008D01*
X32689Y25986D01*
X32711Y25968D01*
X32737Y25954D01*
X32767Y25944D01*
X32801Y25938D01*
X32839Y25936D01*
Y25736D01*
X32801Y25734D01*
X32767Y25728D01*
X32737Y25718D01*
X32711Y25704D01*
X32689Y25686D01*
X32671Y25664D01*
X32657Y25638D01*
X32647Y25608D01*
X32641Y25574D01*
X32639Y25536D01*
X32439Y25836D01*
X32639Y26136D01*
X32641Y26098D01*
D02*
G37*
G36*
X48105Y24702D02*
X48109Y24701D01*
X48115Y24699D01*
X48123Y24698D01*
X48144Y24696D01*
X48171Y24695D01*
X48206Y24694D01*
Y24494D01*
X48188Y24494D01*
X48115Y24489D01*
X48109Y24488D01*
X48105Y24486D01*
X48102Y24484D01*
Y24704D01*
X48105Y24702D01*
D02*
G37*
G36*
X51871Y24453D02*
X51859Y24460D01*
X51840Y24468D01*
X51815Y24474D01*
X51782Y24479D01*
X51695Y24487D01*
X51514Y24494D01*
X51439Y24494D01*
Y24694D01*
X51514Y24695D01*
X51815Y24714D01*
X51840Y24721D01*
X51859Y24728D01*
X51871Y24736D01*
Y24453D01*
D02*
G37*
G36*
X31775Y24522D02*
X31775Y24504D01*
X31779Y24432D01*
X31780Y24426D01*
X31782Y24422D01*
X31783Y24419D01*
X31563Y24426D01*
X31565Y24429D01*
X31567Y24433D01*
X31569Y24439D01*
X31570Y24447D01*
X31572Y24457D01*
X31574Y24481D01*
X31575Y24530D01*
X31775Y24522D01*
D02*
G37*
G36*
X52212Y21863D02*
X51812Y21263D01*
X51808Y21339D01*
X51796Y21407D01*
X51776Y21467D01*
X51748Y21519D01*
X51712Y21563D01*
X51668Y21599D01*
X51616Y21627D01*
X51556Y21647D01*
X51488Y21659D01*
X51412Y21663D01*
Y22063D01*
X51488Y22067D01*
X51556Y22079D01*
X51616Y22099D01*
X51668Y22127D01*
X51712Y22163D01*
X51748Y22207D01*
X51776Y22259D01*
X51796Y22319D01*
X51808Y22387D01*
X51812Y22463D01*
X52212Y21863D01*
D02*
G37*
G36*
X42226Y15675D02*
X42246Y15669D01*
X42273Y15663D01*
X42307Y15658D01*
X42395Y15650D01*
X42578Y15644D01*
X42653Y15644D01*
Y15244D01*
X42578Y15244D01*
X42273Y15225D01*
X42246Y15219D01*
X42226Y15213D01*
X42212Y15205D01*
Y15683D01*
X42226Y15675D01*
D02*
G37*
G36*
X44018Y27131D02*
X44001Y27141D01*
X43982Y27146D01*
X43961Y27145D01*
X43937Y27139D01*
X43911Y27129D01*
X43882Y27113D01*
X43851Y27092D01*
X43818Y27066D01*
X43783Y27034D01*
X43745Y26998D01*
X43588Y27124D01*
X43624Y27161D01*
X43679Y27227D01*
X43698Y27257D01*
X43713Y27284D01*
X43721Y27308D01*
X43724Y27329D01*
X43722Y27348D01*
X43714Y27364D01*
X43701Y27378D01*
X44018Y27131D01*
D02*
G37*
G36*
X35939Y18314D02*
X35956Y18301D01*
X35974Y18289D01*
X35993Y18278D01*
X36013Y18270D01*
X36034Y18263D01*
X36056Y18257D01*
X36080Y18253D01*
X36104Y18251D01*
X36129Y18250D01*
Y18050D01*
X36104Y18049D01*
X36080Y18047D01*
X36056Y18043D01*
X36034Y18037D01*
X36013Y18030D01*
X35993Y18022D01*
X35974Y18011D01*
X35956Y17999D01*
X35939Y17986D01*
X35923Y17971D01*
Y18329D01*
X35939Y18314D01*
D02*
G37*
G36*
X43998Y26131D02*
X43983Y26142D01*
X43964Y26147D01*
X43943Y26148D01*
X43920Y26143D01*
X43894Y26132D01*
X43866Y26117D01*
X43836Y26096D01*
X43803Y26070D01*
X43767Y26039D01*
X43730Y26003D01*
X43581Y26137D01*
X43617Y26175D01*
X43674Y26242D01*
X43694Y26273D01*
X43709Y26300D01*
X43719Y26325D01*
X43723Y26347D01*
X43722Y26367D01*
X43715Y26384D01*
X43703Y26399D01*
X43998Y26131D01*
D02*
G37*
G36*
X35939Y17314D02*
X35956Y17301D01*
X35974Y17289D01*
X35993Y17278D01*
X36013Y17270D01*
X36034Y17263D01*
X36056Y17257D01*
X36080Y17253D01*
X36104Y17251D01*
X36129Y17250D01*
Y17050D01*
X36104Y17049D01*
X36080Y17047D01*
X36056Y17043D01*
X36034Y17037D01*
X36013Y17030D01*
X35993Y17022D01*
X35974Y17011D01*
X35956Y16999D01*
X35939Y16986D01*
X35923Y16971D01*
Y17329D01*
X35939Y17314D01*
D02*
G37*
G36*
X56583Y20794D02*
X56547Y20828D01*
X56478Y20886D01*
X56443Y20909D01*
X56409Y20929D01*
X56375Y20945D01*
X56341Y20958D01*
X56307Y20967D01*
X56274Y20972D01*
X56249Y20974D01*
X56232Y20973D01*
X56198Y20971D01*
X56168Y20966D01*
X56142Y20960D01*
X56120Y20953D01*
X56102Y20943D01*
X56088Y20932D01*
X56078Y20919D01*
X56072Y20905D01*
X56070Y20888D01*
Y21260D01*
X56072Y21244D01*
X56078Y21229D01*
X56088Y21216D01*
X56102Y21205D01*
X56120Y21196D01*
X56142Y21188D01*
X56168Y21182D01*
X56198Y21178D01*
X56232Y21175D01*
X56249Y21175D01*
X56274Y21176D01*
X56307Y21181D01*
X56341Y21190D01*
X56375Y21203D01*
X56409Y21219D01*
X56443Y21239D01*
X56478Y21262D01*
X56512Y21289D01*
X56547Y21320D01*
X56583Y21354D01*
Y20794D01*
D02*
G37*
G36*
X33260Y20629D02*
X33203Y20626D01*
X33152Y20617D01*
X33107Y20602D01*
X33068Y20581D01*
X33035Y20554D01*
X33010Y20524D01*
X33012Y20522D01*
X33031Y20501D01*
X33052Y20486D01*
X33077Y20477D01*
X33104Y20474D01*
X32984D01*
X32972Y20437D01*
X32963Y20386D01*
X32960Y20329D01*
X32660D01*
X32657Y20386D01*
X32648Y20437D01*
X32636Y20474D01*
X32516D01*
X32543Y20477D01*
X32568Y20486D01*
X32589Y20501D01*
X32608Y20522D01*
X32610Y20524D01*
X32585Y20554D01*
X32552Y20581D01*
X32513Y20602D01*
X32468Y20617D01*
X32417Y20626D01*
X32360Y20629D01*
X32810Y20929D01*
X33260Y20629D01*
D02*
G37*
G36*
X27965Y20406D02*
X27970Y20405D01*
X27976Y20403D01*
X27984Y20402D01*
X28005Y20400D01*
X28032Y20399D01*
X28066Y20398D01*
Y20198D01*
X28048Y20198D01*
X27976Y20193D01*
X27970Y20192D01*
X27965Y20190D01*
X27962Y20188D01*
Y20408D01*
X27965Y20406D01*
D02*
G37*
G36*
X27958Y20183D02*
X27957Y20178D01*
X27955Y20172D01*
X27954Y20164D01*
X27952Y20144D01*
X27950Y20116D01*
X27950Y20082D01*
X27750Y20082D01*
X27750Y20100D01*
X27745Y20172D01*
X27743Y20178D01*
X27742Y20183D01*
X27740Y20186D01*
X27960Y20186D01*
X27958Y20183D01*
D02*
G37*
G36*
X28753Y20048D02*
X28757Y20047D01*
X28763Y20045D01*
X28771Y20044D01*
X28792Y20042D01*
X28819Y20040D01*
X28854Y20040D01*
Y19840D01*
X28836Y19840D01*
X28763Y19835D01*
X28757Y19833D01*
X28753Y19832D01*
X28750Y19830D01*
Y20050D01*
X28753Y20048D01*
D02*
G37*
G36*
X34807Y19885D02*
X34778Y19884D01*
X34749Y19881D01*
X34722Y19877D01*
X34696Y19870D01*
X34670Y19861D01*
X34646Y19850D01*
X34623Y19838D01*
X34600Y19823D01*
X34579Y19806D01*
X34559Y19788D01*
X34418Y19929D01*
X34436Y19949D01*
X34453Y19970D01*
X34468Y19993D01*
X34480Y20016D01*
X34491Y20040D01*
X34500Y20066D01*
X34507Y20092D01*
X34511Y20119D01*
X34514Y20148D01*
X34515Y20177D01*
X34807Y19885D01*
D02*
G37*
G36*
X33821Y19885D02*
X33792Y19883D01*
X33763Y19879D01*
X33736Y19873D01*
X33709Y19866D01*
X33684Y19856D01*
X33660Y19845D01*
X33636Y19832D01*
X33614Y19817D01*
X33593Y19800D01*
X33573Y19781D01*
X33424Y19915D01*
X33443Y19936D01*
X33460Y19957D01*
X33474Y19980D01*
X33487Y20003D01*
X33497Y20027D01*
X33505Y20052D01*
X33511Y20078D01*
X33514Y20106D01*
X33516Y20134D01*
X33515Y20163D01*
X33821Y19885D01*
D02*
G37*
G36*
X28746Y19825D02*
X28744Y19820D01*
X28742Y19814D01*
X28741Y19806D01*
X28739Y19785D01*
X28738Y19758D01*
X28737Y19724D01*
X28537D01*
X28537Y19742D01*
X28532Y19814D01*
X28531Y19820D01*
X28529Y19825D01*
X28527Y19828D01*
X28748D01*
X28746Y19825D01*
D02*
G37*
G36*
X29674Y19520D02*
X29656Y19520D01*
X29601Y19516D01*
X29592Y19514D01*
X29584Y19511D01*
X29578Y19509D01*
X29573Y19506D01*
X29570Y19502D01*
X29518Y19716D01*
X29606Y19720D01*
X29674Y19520D01*
D02*
G37*
G36*
X29531Y19473D02*
X29531Y19467D01*
X29541Y19467D01*
X29539Y19464D01*
X29537Y19459D01*
X29535Y19453D01*
X29534Y19445D01*
X29534Y19443D01*
X29537Y19409D01*
X29543Y19383D01*
X29550Y19361D01*
X29559Y19343D01*
X29569Y19329D01*
X29581Y19319D01*
X29595Y19313D01*
X29611Y19311D01*
X29239D01*
X29256Y19313D01*
X29272Y19319D01*
X29285Y19329D01*
X29297Y19343D01*
X29307Y19361D01*
X29315Y19383D01*
X29322Y19409D01*
X29326Y19439D01*
X29326Y19443D01*
X29325Y19460D01*
X29324Y19466D01*
X29323Y19471D01*
X29321Y19474D01*
X29329Y19473D01*
X29330Y19511D01*
X29530D01*
X29531Y19473D01*
D02*
G37*
G36*
X27951Y19478D02*
X27953Y19444D01*
X27958Y19414D01*
X27964Y19388D01*
X27971Y19366D01*
X27981Y19348D01*
X27992Y19334D01*
X28005Y19324D01*
X28019Y19318D01*
X28036Y19316D01*
X27664D01*
X27680Y19318D01*
X27695Y19324D01*
X27708Y19334D01*
X27719Y19348D01*
X27729Y19366D01*
X27736Y19388D01*
X27742Y19414D01*
X27747Y19444D01*
X27749Y19478D01*
X27750Y19516D01*
X27950D01*
X27951Y19478D01*
D02*
G37*
G36*
X28738Y19473D02*
X28741Y19439D01*
X28745Y19409D01*
X28751Y19383D01*
X28759Y19361D01*
X28768Y19343D01*
X28779Y19329D01*
X28792Y19319D01*
X28807Y19313D01*
X28823Y19311D01*
X28452D01*
X28468Y19313D01*
X28482Y19319D01*
X28495Y19329D01*
X28507Y19343D01*
X28516Y19361D01*
X28524Y19383D01*
X28530Y19409D01*
X28534Y19439D01*
X28537Y19473D01*
X28537Y19511D01*
X28737D01*
X28738Y19473D01*
D02*
G37*
G36*
X27204Y18609D02*
X26904Y18159D01*
Y18159D01*
X26904Y18159D01*
X26901Y18216D01*
X26892Y18267D01*
X26877Y18312D01*
X26856Y18351D01*
X26829Y18384D01*
X26796Y18411D01*
X26757Y18432D01*
X26712Y18447D01*
X26661Y18456D01*
X26651Y18456D01*
X26489Y18446D01*
X26468Y18441D01*
X26453Y18436D01*
X26444Y18430D01*
X26441Y18423D01*
Y18795D01*
X26444Y18788D01*
X26453Y18782D01*
X26468Y18776D01*
X26489Y18772D01*
X26516Y18768D01*
X26588Y18762D01*
X26643Y18761D01*
X26661Y18762D01*
X26712Y18771D01*
X26757Y18786D01*
X26796Y18807D01*
X26828Y18833D01*
X26829Y18834D01*
X26856Y18867D01*
X26877Y18906D01*
X26892Y18951D01*
X26901Y19002D01*
X26904Y19059D01*
X26904Y19059D01*
X26904Y19059D01*
X27204Y18609D01*
D02*
G37*
G36*
X25577Y18423D02*
X25575Y18439D01*
X25569Y18454D01*
X25559Y18467D01*
X25545Y18478D01*
X25527Y18487D01*
X25505Y18495D01*
X25479Y18501D01*
X25449Y18505D01*
X25415Y18508D01*
X25377Y18509D01*
Y18709D01*
X25415Y18710D01*
X25449Y18712D01*
X25479Y18717D01*
X25505Y18723D01*
X25527Y18730D01*
X25545Y18740D01*
X25559Y18751D01*
X25569Y18764D01*
X25575Y18778D01*
X25577Y18795D01*
Y18423D01*
D02*
G37*
G36*
X33096Y18324D02*
X33079Y18306D01*
X33063Y18288D01*
X33049Y18269D01*
X33036Y18249D01*
X33025Y18229D01*
X33016Y18209D01*
X33008Y18189D01*
X33002Y18167D01*
X32998Y18146D01*
X32995Y18124D01*
X32771Y18404D01*
X32792Y18402D01*
X32814Y18403D01*
X32835Y18406D01*
X32855Y18410D01*
X32875Y18417D01*
X32895Y18426D01*
X32915Y18437D01*
X32934Y18450D01*
X32953Y18466D01*
X32972Y18483D01*
X33096Y18324D01*
D02*
G37*
G36*
X31045Y18248D02*
Y18208D01*
X31025Y18167D01*
X30995Y18167D01*
X30817D01*
Y17880D01*
X30717D01*
Y18167D01*
X30523D01*
X30510Y18167D01*
X30473D01*
X30460Y18167D01*
X30070D01*
X30069Y18167D01*
X30065Y18167D01*
X30063D01*
X30060Y18168D01*
X30056Y18167D01*
X29958D01*
Y18148D01*
X29852Y18140D01*
X29827D01*
X29792Y18147D01*
X29762Y18156D01*
X29740Y18169D01*
X29722Y18183D01*
X29708Y18201D01*
X29696Y18223D01*
X29686Y18253D01*
X29680Y18288D01*
X29680Y18295D01*
X29684Y18346D01*
X29712D01*
Y18443D01*
X29713Y18447D01*
X29712Y18448D01*
X29713Y18449D01*
X29712Y18453D01*
Y18861D01*
X29712D01*
Y18897D01*
X29712D01*
Y19307D01*
X29713Y19311D01*
X29712Y19315D01*
Y19412D01*
X29760Y19416D01*
X29877D01*
X31045Y18248D01*
D02*
G37*
G36*
X28029Y18450D02*
X28023Y18441D01*
X28018Y18426D01*
X28013Y18405D01*
X28009Y18378D01*
X28003Y18306D01*
X28000Y18153D01*
X27700D01*
X27700Y18210D01*
X27687Y18405D01*
X27682Y18426D01*
X27677Y18441D01*
X27671Y18450D01*
X27664Y18453D01*
X28036D01*
X28029Y18450D01*
D02*
G37*
G36*
X28816Y18444D02*
X28810Y18435D01*
X28805Y18420D01*
X28800Y18399D01*
X28796Y18372D01*
X28791Y18300D01*
X28787Y18147D01*
X28487D01*
X28487Y18204D01*
X28475Y18399D01*
X28470Y18420D01*
X28464Y18435D01*
X28458Y18444D01*
X28452Y18447D01*
X28823D01*
X28816Y18444D01*
D02*
G37*
G36*
X26468Y18041D02*
X26477Y18040D01*
X26492Y18039D01*
X26765Y18036D01*
Y17736D01*
X26465Y17729D01*
Y18042D01*
X26468Y18041D01*
D02*
G37*
G36*
X30913Y17692D02*
X30903Y17686D01*
X30895Y17676D01*
X30887Y17662D01*
X30881Y17644D01*
X30876Y17622D01*
X30872Y17596D01*
X30869Y17566D01*
X30867Y17494D01*
X30667D01*
X30667Y17532D01*
X30662Y17596D01*
X30658Y17622D01*
X30653Y17644D01*
X30647Y17662D01*
X30640Y17676D01*
X30631Y17686D01*
X30622Y17692D01*
X30611Y17694D01*
X30923D01*
X30913Y17692D01*
D02*
G37*
G36*
X30868Y17377D02*
X30872Y17313D01*
X30876Y17287D01*
X30881Y17265D01*
X30887Y17247D01*
X30895Y17233D01*
X30903Y17223D01*
X30913Y17217D01*
X30923Y17215D01*
X30611D01*
X30622Y17217D01*
X30631Y17223D01*
X30640Y17233D01*
X30647Y17247D01*
X30653Y17265D01*
X30658Y17287D01*
X30662Y17313D01*
X30665Y17343D01*
X30667Y17415D01*
X30867D01*
X30868Y17377D01*
D02*
G37*
G36*
X29604Y18444D02*
X29598Y18435D01*
X29592Y18420D01*
X29588Y18399D01*
X29584Y18372D01*
X29578Y18300D01*
X29578Y18282D01*
X29578Y18279D01*
X29587Y18228D01*
X29602Y18183D01*
X29623Y18144D01*
X29650Y18111D01*
X29683Y18084D01*
X29722Y18063D01*
X29767Y18048D01*
X29818Y18039D01*
X29840Y18037D01*
X30033Y18050D01*
X30048Y18055D01*
X30057Y18060D01*
X30060Y18066D01*
Y17694D01*
X30372D01*
X30371Y17691D01*
X30370Y17682D01*
X30369Y17667D01*
X30367Y17473D01*
X30372Y17215D01*
X30060D01*
X30061Y17218D01*
X30062Y17227D01*
X30063Y17242D01*
X30065Y17436D01*
X30060Y17694D01*
X30057Y17702D01*
X30048Y17709D01*
X30033Y17715D01*
X30012Y17721D01*
X29985Y17725D01*
X29952Y17729D01*
X29868Y17734D01*
X29760Y17736D01*
Y17959D01*
X29425Y17736D01*
X28975Y18036D01*
X29032Y18039D01*
X29083Y18048D01*
X29128Y18063D01*
X29167Y18084D01*
X29200Y18111D01*
X29227Y18144D01*
X29248Y18183D01*
X29263Y18228D01*
X29270Y18270D01*
X29262Y18399D01*
X29257Y18420D01*
X29252Y18435D01*
X29246Y18444D01*
X29239Y18447D01*
X29611D01*
X29604Y18444D01*
D02*
G37*
G36*
X32554Y17479D02*
X32573Y17463D01*
X32592Y17450D01*
X32612Y17438D01*
X32632Y17428D01*
X32652Y17420D01*
X32673Y17414D01*
X32694Y17409D01*
X32715Y17407D01*
X32737Y17406D01*
X32484Y17153D01*
X32483Y17175D01*
X32481Y17196D01*
X32476Y17217D01*
X32470Y17238D01*
X32462Y17258D01*
X32452Y17278D01*
X32441Y17298D01*
X32427Y17317D01*
X32411Y17336D01*
X32394Y17354D01*
X32536Y17496D01*
X32554Y17479D01*
D02*
G37*
G36*
X26448Y17176D02*
X26434Y17170D01*
X26421Y17160D01*
X26410Y17146D01*
X26400Y17128D01*
X26393Y17106D01*
X26387Y17080D01*
X26382Y17050D01*
X26380Y17016D01*
X26379Y16978D01*
X26179D01*
X26178Y17016D01*
X26175Y17050D01*
X26171Y17080D01*
X26165Y17106D01*
X26157Y17128D01*
X26148Y17146D01*
X26137Y17160D01*
X26124Y17170D01*
X26109Y17176D01*
X26093Y17178D01*
X26465D01*
X26448Y17176D01*
D02*
G37*
G36*
X30321Y16919D02*
X30320Y16909D01*
X30318Y16871D01*
X30318Y16843D01*
X30372D01*
X30361Y16841D01*
X30352Y16835D01*
X30343Y16825D01*
X30336Y16811D01*
X30330Y16793D01*
X30325Y16771D01*
X30321Y16745D01*
X30318Y16715D01*
X30316Y16653D01*
X30316Y16617D01*
X30116D01*
X30114Y16695D01*
X30111Y16745D01*
X30107Y16771D01*
X30102Y16793D01*
X30096Y16811D01*
X30088Y16825D01*
X30080Y16835D01*
X30070Y16841D01*
X30060Y16843D01*
X30111D01*
X30110Y16923D01*
X30322D01*
X30321Y16919D01*
D02*
G37*
G36*
X26379Y16443D02*
X26384Y16371D01*
X26385Y16365D01*
X26387Y16360D01*
X26389Y16358D01*
X26169D01*
X26171Y16360D01*
X26172Y16365D01*
X26174Y16371D01*
X26175Y16379D01*
X26177Y16400D01*
X26178Y16427D01*
X26179Y16461D01*
X26379D01*
X26379Y16443D01*
D02*
G37*
G36*
X24804Y16440D02*
X24809Y16368D01*
X24811Y16361D01*
X24812Y16357D01*
X24814Y16354D01*
X24594D01*
X24596Y16357D01*
X24598Y16361D01*
X24599Y16368D01*
X24600Y16375D01*
X24602Y16396D01*
X24604Y16424D01*
X24604Y16458D01*
X24804D01*
X24804Y16440D01*
D02*
G37*
G36*
X32554Y16479D02*
X32573Y16463D01*
X32592Y16450D01*
X32612Y16438D01*
X32632Y16428D01*
X32652Y16420D01*
X32673Y16414D01*
X32694Y16409D01*
X32715Y16407D01*
X32737Y16406D01*
X32484Y16153D01*
X32483Y16175D01*
X32481Y16196D01*
X32476Y16217D01*
X32470Y16238D01*
X32462Y16258D01*
X32452Y16278D01*
X32441Y16298D01*
X32427Y16317D01*
X32411Y16336D01*
X32394Y16354D01*
X32536Y16496D01*
X32554Y16479D01*
D02*
G37*
G36*
X30316Y16046D02*
X30321Y15974D01*
X30322Y15968D01*
X30324Y15963D01*
X30326Y15960D01*
X30106D01*
X30108Y15963D01*
X30109Y15968D01*
X30111Y15974D01*
X30112Y15982D01*
X30114Y16002D01*
X30115Y16030D01*
X30116Y16064D01*
X30316D01*
X30316Y16046D01*
D02*
G37*
G36*
X32554Y15479D02*
X32573Y15463D01*
X32592Y15450D01*
X32612Y15438D01*
X32632Y15428D01*
X32652Y15420D01*
X32673Y15414D01*
X32694Y15409D01*
X32715Y15407D01*
X32737Y15406D01*
X32484Y15153D01*
X32483Y15175D01*
X32481Y15196D01*
X32476Y15217D01*
X32470Y15238D01*
X32462Y15258D01*
X32452Y15278D01*
X32441Y15298D01*
X32427Y15317D01*
X32411Y15336D01*
X32394Y15354D01*
X32536Y15496D01*
X32554Y15479D01*
D02*
G37*
G36*
Y14479D02*
X32573Y14463D01*
X32592Y14449D01*
X32612Y14438D01*
X32632Y14428D01*
X32652Y14420D01*
X32673Y14414D01*
X32694Y14409D01*
X32715Y14407D01*
X32737Y14406D01*
X32484Y14153D01*
X32483Y14175D01*
X32481Y14196D01*
X32476Y14217D01*
X32470Y14238D01*
X32462Y14258D01*
X32452Y14278D01*
X32441Y14298D01*
X32427Y14317D01*
X32411Y14336D01*
X32394Y14354D01*
X32536Y14496D01*
X32554Y14479D01*
D02*
G37*
D15*
X28637Y17887D02*
X28639Y17886D01*
X27830D02*
X27850Y17905D01*
D26*
X26279Y17886D02*
D03*
Y17334D02*
D03*
X29425Y19154D02*
D03*
Y18603D02*
D03*
X27850Y19160D02*
D03*
Y18609D02*
D03*
X28637Y19154D02*
D03*
Y18603D02*
D03*
D28*
X55914Y21074D02*
D03*
X55363D02*
D03*
X30767Y17029D02*
D03*
X30216D02*
D03*
Y17880D02*
D03*
X30767D02*
D03*
X26284Y18609D02*
D03*
X25733D02*
D03*
D62*
X50553Y15444D02*
X52012Y16904D01*
Y21863D01*
X42020Y15444D02*
X50553D01*
X29287Y24836D02*
X31249D01*
X28460Y25663D02*
Y30690D01*
Y25663D02*
X29287Y24836D01*
X50121Y21863D02*
X52012D01*
Y24564D01*
X29329Y46058D02*
X29868D01*
X28460Y45189D02*
X29329Y46058D01*
X28460Y37580D02*
Y45189D01*
X44290Y46058D02*
X50944D01*
X52009Y43833D02*
Y44993D01*
X50944Y46058D02*
X52009Y44993D01*
Y30459D02*
Y37269D01*
Y24935D02*
Y30459D01*
Y37269D02*
Y43833D01*
X37097Y46058D02*
X44290D01*
X29868D02*
X37097D01*
X28460Y30690D02*
Y37580D01*
X52009Y24935D02*
X52012Y24932D01*
Y24594D02*
Y24932D01*
D63*
X40680Y23094D02*
X43966Y26380D01*
X38880Y17150D02*
X40680Y18950D01*
Y23094D01*
X32539Y34294D02*
Y39945D01*
X32121Y36479D02*
Y40951D01*
X32106Y36464D02*
X32121Y36479D01*
X31680Y38465D02*
X31700Y38445D01*
X31680Y38465D02*
Y43205D01*
X55707Y16516D02*
Y18599D01*
X55368Y18937D02*
Y20155D01*
Y18937D02*
X55707Y18599D01*
X55304Y21074D02*
X55368Y21009D01*
Y20155D02*
Y21009D01*
X55304Y21074D02*
X55363D01*
X55914D02*
X56868D01*
X51409Y37239D02*
X51978D01*
X52009Y37269D01*
X42756Y39350D02*
X44200D01*
X55751Y14542D02*
Y16516D01*
X50215Y42020D02*
X50229Y42006D01*
Y36561D02*
Y42006D01*
X49855Y39530D02*
Y43235D01*
X50229Y36561D02*
X50230Y36560D01*
X49180Y43910D02*
X49855Y43235D01*
X50230Y33813D02*
Y36560D01*
X49460Y40520D02*
Y42917D01*
X48836Y43541D02*
X49460Y42917D01*
X42020Y14066D02*
X55275D01*
X55751Y14542D01*
X55707Y16516D02*
X55751D01*
X51030Y33331D02*
Y36827D01*
X51065Y30459D02*
X52009D01*
X50548Y32848D02*
X51030Y33331D01*
X50548Y29321D02*
Y32848D01*
X51055Y30448D02*
X51065Y30459D01*
X30767Y17029D02*
Y17880D01*
Y14660D02*
Y17029D01*
X30216Y15848D02*
Y17029D01*
X35740Y17150D02*
X38880D01*
X38964Y18150D02*
X40110Y19296D01*
X35740Y18150D02*
X38964D01*
X32284Y17606D02*
X32740Y17150D01*
X32284Y17606D02*
Y18634D01*
X33820Y20170D01*
X31984Y16906D02*
Y18822D01*
Y16906D02*
X32740Y16150D01*
X31684Y16206D02*
Y18516D01*
Y16206D02*
X32860Y15030D01*
X31249Y15641D02*
Y18332D01*
Y15641D02*
X32850Y14040D01*
X32780Y18150D02*
X34810Y20180D01*
X32740Y18150D02*
X32780D01*
X30508Y20298D02*
X31984Y18822D01*
X27850Y20298D02*
X30508D01*
X29430Y19578D02*
X29435Y19583D01*
X29430Y19159D02*
Y19578D01*
X28637Y19940D02*
X29273D01*
X30260Y19940D02*
X31684Y18516D01*
X29425Y19154D02*
X29430Y19159D01*
X29273Y19940D02*
X30260D01*
X29273Y19940D02*
X29273Y19940D01*
X28637Y19154D02*
Y19940D01*
X27850Y19160D02*
Y20245D01*
X27850Y20245D02*
Y20298D01*
Y20245D02*
X27850Y20245D01*
X26279Y16245D02*
Y17334D01*
X24704Y16242D02*
Y18004D01*
X25309Y18609D01*
X25733D01*
X29961Y19620D02*
X31249Y18332D01*
X29435Y19620D02*
X29961D01*
X29425Y19610D02*
X29435Y19620D01*
X30385Y26311D02*
X31249D01*
X30061Y26635D02*
Y32380D01*
Y26635D02*
X30385Y26311D01*
X40110Y23505D02*
X43985Y27380D01*
X40110Y19296D02*
Y23505D01*
X43985Y27380D02*
X44200D01*
X43966Y26380D02*
X44200D01*
X32863Y24306D02*
X36240D01*
X37260Y25326D02*
Y28910D01*
X36240Y24306D02*
X37260Y25326D01*
X36960Y25456D02*
Y29780D01*
X33104Y24606D02*
X36110D01*
X36960Y25456D01*
X32120Y25049D02*
X32863Y24306D01*
X32539Y25171D02*
X33104Y24606D01*
X32539Y25171D02*
Y25836D01*
X30061Y32380D02*
X31247D01*
X30061D02*
Y38018D01*
X31216D01*
X30061D02*
Y44041D01*
X32106Y32784D02*
Y36464D01*
X39490Y21890D02*
Y36084D01*
X42756Y39350D01*
X38980Y21380D02*
X39490Y21890D01*
X51030Y42917D02*
Y44710D01*
Y36827D02*
Y42917D01*
X50634Y42925D02*
X51022D01*
X51030Y42917D01*
X32120Y25049D02*
Y26830D01*
X31273Y45113D02*
X37911D01*
X31133D02*
X31273D01*
X47989Y24594D02*
X52012D01*
X33900Y41990D02*
Y43541D01*
X32656D02*
X33900D01*
X40040D01*
X38200Y21380D02*
Y22380D01*
Y21380D02*
X38980D01*
X44200Y39350D02*
Y39380D01*
X50640Y36827D02*
X51030D01*
X38540Y44320D02*
X45627D01*
X45242Y45113D02*
X50627D01*
X37911D02*
X45242D01*
Y44679D02*
Y45113D01*
X45627Y44320D02*
X45633Y44326D01*
X48490D01*
X37911Y44688D02*
Y45113D01*
X31247Y45087D02*
X31273Y45113D01*
X31247Y44583D02*
Y45087D01*
X30061Y44041D02*
X31133Y45113D01*
X31903Y43910D02*
X41040D01*
X31818Y43856D02*
X31850D01*
X31903Y43910D01*
X34173Y44214D02*
X34289Y44330D01*
X31618Y44214D02*
X34173D01*
X34289Y44330D02*
X34320D01*
X31433Y44028D02*
X31618Y44214D01*
X50627Y45113D02*
X51030Y44710D01*
X49855Y25575D02*
Y36320D01*
X49460Y34821D02*
Y40520D01*
X49850Y25570D02*
X49855Y25575D01*
X51845Y43829D02*
X51848Y43833D01*
X51387Y37217D02*
X51409Y37239D01*
X51387Y43829D02*
X51845D01*
X51848Y43833D02*
X52009D01*
X48001Y40520D02*
X49460D01*
X44290Y45550D02*
X44290Y45550D01*
X44290Y45497D02*
Y45550D01*
X44290Y45550D02*
Y46057D01*
X44290Y46058D02*
X44290Y46057D01*
X37089Y45496D02*
Y46050D01*
X37097Y46058D01*
X29864Y45576D02*
X29868Y45580D01*
X29842Y45473D02*
X29864Y45495D01*
Y45576D01*
X29868Y45580D02*
Y46058D01*
X28460Y37580D02*
X28460Y37580D01*
X29228D01*
X28460Y30690D02*
X29367D01*
X31675Y24315D02*
Y35265D01*
X31670Y24310D02*
X31675Y24315D01*
X53130Y16516D02*
X53207D01*
X46010Y43910D02*
X49180D01*
X40040Y42153D02*
Y43541D01*
X32539Y39945D02*
Y43424D01*
X40040Y43541D02*
X43755D01*
X32539Y43424D02*
X32656Y43541D01*
X43755D02*
X43755Y43541D01*
X47510D02*
X48836D01*
X43755D02*
X47510D01*
Y42153D02*
Y43541D01*
X31433Y43453D02*
Y44028D01*
Y43453D02*
X31680Y43205D01*
X31675Y35265D02*
X31680Y35270D01*
X32117Y26833D02*
X32120Y26830D01*
X48001Y34820D02*
X49459D01*
X49343Y26590D02*
X49460Y26707D01*
Y34821D01*
X49459Y34820D02*
X49460Y34821D01*
X48010Y26590D02*
X49343D01*
X32539Y25836D02*
X33566D01*
X32539D02*
Y34294D01*
Y39945D02*
X33566D01*
X32539Y34294D02*
X33566D01*
X37260Y28910D02*
X37673Y29323D01*
X36960Y29780D02*
X37560Y30380D01*
X38143Y29323D02*
X38200Y29380D01*
X37673Y29323D02*
X38143D01*
X37560Y30380D02*
X38200D01*
X48001Y26581D02*
X48010Y26590D01*
D66*
X30216Y17029D02*
Y17880D01*
X32810Y20025D02*
Y20779D01*
X39490D01*
X27368D02*
X32810D01*
X29425Y17886D02*
X30210D01*
X28639D02*
X29425D01*
Y18603D01*
X27830Y17886D02*
X28639D01*
X28637Y17887D02*
Y18603D01*
X27054Y17886D02*
X27830D01*
X27850Y17905D02*
Y18609D01*
X27054Y18609D02*
Y20466D01*
Y17886D02*
Y18609D01*
X26284Y18609D02*
X27054D01*
X27054Y18609D01*
X26860Y17886D02*
X27054D01*
Y20466D02*
X27368Y20779D01*
X26279Y17886D02*
X26860D01*
D67*
X56868Y21074D02*
D03*
D68*
Y19696D02*
D03*
D69*
X35810Y20180D02*
D03*
X34810D02*
D03*
X33810D02*
D03*
X25150Y31018D02*
D03*
Y32018D02*
D03*
Y34018D02*
D03*
Y36018D02*
D03*
Y37018D02*
D03*
Y35018D02*
D03*
Y33018D02*
D03*
X25170Y22628D02*
D03*
Y23628D02*
D03*
Y25628D02*
D03*
Y27628D02*
D03*
Y28628D02*
D03*
Y26628D02*
D03*
Y24628D02*
D03*
X25147Y41416D02*
D03*
Y43416D02*
D03*
Y45416D02*
D03*
Y44416D02*
D03*
Y42416D02*
D03*
Y40416D02*
D03*
Y39416D02*
D03*
X31184Y49136D02*
D03*
X33184D02*
D03*
X35184D02*
D03*
X34184D02*
D03*
X32184D02*
D03*
X30184D02*
D03*
X29184D02*
D03*
X39597Y49138D02*
D03*
X41597D02*
D03*
X43597D02*
D03*
X42597D02*
D03*
X40597D02*
D03*
X38597D02*
D03*
X37597D02*
D03*
X48009Y49136D02*
D03*
X50009D02*
D03*
X52009D02*
D03*
X51009D02*
D03*
X49009D02*
D03*
X47009D02*
D03*
X46009D02*
D03*
X56868Y27803D02*
D03*
Y25803D02*
D03*
Y23803D02*
D03*
Y24803D02*
D03*
Y26803D02*
D03*
Y28803D02*
D03*
Y29803D02*
D03*
Y36213D02*
D03*
Y34213D02*
D03*
Y32213D02*
D03*
Y33213D02*
D03*
Y35213D02*
D03*
Y37213D02*
D03*
Y38213D02*
D03*
X56862Y44581D02*
D03*
Y42581D02*
D03*
Y40581D02*
D03*
Y41581D02*
D03*
Y43581D02*
D03*
Y45581D02*
D03*
Y46581D02*
D03*
D70*
X32810Y20180D02*
D03*
X36184Y49136D02*
D03*
X44597Y49138D02*
D03*
X53009Y49136D02*
D03*
D71*
X25150Y38018D02*
D03*
X25170Y29628D02*
D03*
X25147Y46416D02*
D03*
X56868Y22803D02*
D03*
Y31213D02*
D03*
X56862Y39581D02*
D03*
D72*
X53207Y16516D02*
D03*
X55707D02*
D03*
D73*
X54207Y18516D02*
D03*
D74*
X56753Y13848D02*
D03*
X25288Y13740D02*
D03*
X56744Y49018D02*
D03*
X25193Y49215D02*
D03*
D75*
X44200Y21380D02*
D03*
D76*
Y22380D02*
D03*
Y23380D02*
D03*
Y24380D02*
D03*
Y25380D02*
D03*
Y26380D02*
D03*
Y27380D02*
D03*
Y28380D02*
D03*
Y29380D02*
D03*
Y30380D02*
D03*
Y31380D02*
D03*
Y32380D02*
D03*
Y33380D02*
D03*
Y34380D02*
D03*
Y35380D02*
D03*
Y36380D02*
D03*
Y37380D02*
D03*
Y38380D02*
D03*
Y39380D02*
D03*
Y40380D02*
D03*
X38200Y21380D02*
D03*
Y22380D02*
D03*
Y23380D02*
D03*
Y24380D02*
D03*
Y25380D02*
D03*
Y26380D02*
D03*
Y27380D02*
D03*
Y28380D02*
D03*
Y29380D02*
D03*
Y30380D02*
D03*
Y31380D02*
D03*
Y32380D02*
D03*
Y33380D02*
D03*
Y34380D02*
D03*
Y35380D02*
D03*
Y36380D02*
D03*
Y37380D02*
D03*
Y38380D02*
D03*
Y39380D02*
D03*
Y40380D02*
D03*
D77*
X32740Y16150D02*
D03*
Y17150D02*
D03*
Y18150D02*
D03*
Y15150D02*
D03*
Y14150D02*
D03*
X35740D02*
D03*
Y15150D02*
D03*
Y16150D02*
D03*
Y17150D02*
D03*
Y18150D02*
D03*
X50592Y17952D02*
D03*
X42020Y14066D02*
D03*
D78*
X49214Y17952D02*
D03*
D79*
X42020Y15444D02*
D03*
D80*
X57000Y48000D02*
D03*
X57500Y47000D02*
D03*
Y45000D02*
D03*
Y43000D02*
D03*
Y41000D02*
D03*
Y39000D02*
D03*
Y37000D02*
D03*
Y35000D02*
D03*
Y33000D02*
D03*
Y31000D02*
D03*
Y29000D02*
D03*
Y27000D02*
D03*
Y25000D02*
D03*
Y23000D02*
D03*
X57000Y22000D02*
D03*
X57500Y19000D02*
D03*
X57000Y18000D02*
D03*
X57500Y17000D02*
D03*
X57000Y16000D02*
D03*
X57500Y15000D02*
D03*
X56000Y48000D02*
D03*
X56500Y47000D02*
D03*
Y43000D02*
D03*
Y41000D02*
D03*
Y39000D02*
D03*
Y19000D02*
D03*
X56000Y18000D02*
D03*
X56500Y17000D02*
D03*
Y15000D02*
D03*
X55500Y49000D02*
D03*
X55000Y48000D02*
D03*
X55500Y47000D02*
D03*
Y41000D02*
D03*
Y35000D02*
D03*
X55000Y32000D02*
D03*
X55500Y29000D02*
D03*
Y27000D02*
D03*
X55000Y26000D02*
D03*
Y24000D02*
D03*
X55500Y23000D02*
D03*
Y19000D02*
D03*
Y15000D02*
D03*
X55000Y14000D02*
D03*
X54500Y49000D02*
D03*
X54000Y48000D02*
D03*
X54500Y47000D02*
D03*
Y29000D02*
D03*
Y23000D02*
D03*
Y21000D02*
D03*
Y17000D02*
D03*
X54000Y16000D02*
D03*
X54500Y15000D02*
D03*
X54000Y14000D02*
D03*
X53000Y48000D02*
D03*
X53500Y47000D02*
D03*
X53000Y46000D02*
D03*
X53500Y39000D02*
D03*
Y29000D02*
D03*
X53000Y26000D02*
D03*
X53500Y23000D02*
D03*
X53000Y18000D02*
D03*
X52500Y47000D02*
D03*
Y45000D02*
D03*
Y23000D02*
D03*
Y19000D02*
D03*
X52000Y16000D02*
D03*
X52500Y15000D02*
D03*
X51500Y43000D02*
D03*
X51000Y32000D02*
D03*
X51500Y31000D02*
D03*
X51000Y30000D02*
D03*
Y20000D02*
D03*
X51500Y19000D02*
D03*
Y15000D02*
D03*
X50500Y31000D02*
D03*
X50000Y20000D02*
D03*
X50500Y19000D02*
D03*
Y17000D02*
D03*
X49000Y48000D02*
D03*
Y38000D02*
D03*
Y32000D02*
D03*
Y30000D02*
D03*
X49500Y23000D02*
D03*
X49000Y22000D02*
D03*
X49500Y21000D02*
D03*
X49000Y20000D02*
D03*
X48000Y40000D02*
D03*
Y34000D02*
D03*
X48500Y31000D02*
D03*
Y29000D02*
D03*
X48000Y26000D02*
D03*
X48500Y23000D02*
D03*
X48000Y22000D02*
D03*
Y16000D02*
D03*
Y14000D02*
D03*
X47000Y40000D02*
D03*
X47500Y39000D02*
D03*
X47000Y38000D02*
D03*
X47500Y37000D02*
D03*
X47000Y36000D02*
D03*
Y34000D02*
D03*
X47500Y33000D02*
D03*
X47000Y32000D02*
D03*
X47500Y31000D02*
D03*
X47000Y30000D02*
D03*
X47500Y29000D02*
D03*
X47000Y28000D02*
D03*
Y26000D02*
D03*
X47500Y25000D02*
D03*
Y23000D02*
D03*
X47000Y22000D02*
D03*
X47500Y21000D02*
D03*
Y17000D02*
D03*
X46500Y39000D02*
D03*
Y37000D02*
D03*
Y33000D02*
D03*
Y31000D02*
D03*
Y29000D02*
D03*
X46000Y26000D02*
D03*
X46500Y25000D02*
D03*
Y23000D02*
D03*
X46000Y22000D02*
D03*
X46500Y17000D02*
D03*
X45000Y48000D02*
D03*
X45500Y47000D02*
D03*
Y45000D02*
D03*
Y43000D02*
D03*
X45000Y40000D02*
D03*
Y38000D02*
D03*
Y36000D02*
D03*
Y34000D02*
D03*
Y32000D02*
D03*
Y28000D02*
D03*
Y26000D02*
D03*
Y24000D02*
D03*
X45500Y23000D02*
D03*
X45000Y22000D02*
D03*
X44500Y47000D02*
D03*
X44000Y16000D02*
D03*
Y14000D02*
D03*
X43500Y45000D02*
D03*
Y43000D02*
D03*
Y39000D02*
D03*
Y37000D02*
D03*
X43000Y36000D02*
D03*
X43500Y35000D02*
D03*
X43000Y34000D02*
D03*
X43500Y33000D02*
D03*
X43000Y32000D02*
D03*
X43500Y31000D02*
D03*
X43000Y30000D02*
D03*
X43500Y29000D02*
D03*
X43000Y28000D02*
D03*
X43500Y25000D02*
D03*
X43000Y24000D02*
D03*
X43500Y23000D02*
D03*
X43000Y22000D02*
D03*
Y20000D02*
D03*
Y14000D02*
D03*
X42500Y43000D02*
D03*
X42000Y42000D02*
D03*
Y40000D02*
D03*
X42500Y37000D02*
D03*
X42000Y36000D02*
D03*
X42500Y35000D02*
D03*
X42000Y34000D02*
D03*
X42500Y33000D02*
D03*
X42000Y32000D02*
D03*
X42500Y31000D02*
D03*
X42000Y30000D02*
D03*
X42500Y29000D02*
D03*
X42000Y28000D02*
D03*
X42500Y27000D02*
D03*
X42000Y26000D02*
D03*
X42500Y23000D02*
D03*
X42000Y22000D02*
D03*
X42500Y21000D02*
D03*
X42000Y20000D02*
D03*
X41000Y48000D02*
D03*
Y42000D02*
D03*
Y40000D02*
D03*
X41500Y39000D02*
D03*
X41000Y36000D02*
D03*
X41500Y35000D02*
D03*
X41000Y34000D02*
D03*
X41500Y33000D02*
D03*
X41000Y32000D02*
D03*
X41500Y31000D02*
D03*
X41000Y30000D02*
D03*
X41500Y29000D02*
D03*
X41000Y28000D02*
D03*
X41500Y27000D02*
D03*
X41000Y26000D02*
D03*
X41500Y23000D02*
D03*
Y21000D02*
D03*
X41000Y14000D02*
D03*
X40000Y40000D02*
D03*
X40500Y39000D02*
D03*
X40000Y38000D02*
D03*
X40500Y35000D02*
D03*
Y33000D02*
D03*
Y31000D02*
D03*
Y29000D02*
D03*
Y27000D02*
D03*
Y25000D02*
D03*
Y17000D02*
D03*
X40000Y14000D02*
D03*
X39000Y40000D02*
D03*
X39500Y39000D02*
D03*
X39000Y38000D02*
D03*
X39500Y37000D02*
D03*
X39000Y36000D02*
D03*
Y34000D02*
D03*
Y32000D02*
D03*
Y30000D02*
D03*
Y28000D02*
D03*
Y26000D02*
D03*
Y24000D02*
D03*
Y22000D02*
D03*
Y20000D02*
D03*
X39500Y17000D02*
D03*
X39000Y16000D02*
D03*
X39500Y15000D02*
D03*
X39000Y14000D02*
D03*
X38000Y20000D02*
D03*
X38500Y19000D02*
D03*
X38000Y16000D02*
D03*
X38500Y15000D02*
D03*
X38000Y14000D02*
D03*
X37000Y48000D02*
D03*
X37500Y47000D02*
D03*
Y45000D02*
D03*
Y43000D02*
D03*
X37000Y40000D02*
D03*
X37500Y39000D02*
D03*
X37000Y38000D02*
D03*
X37500Y37000D02*
D03*
X37000Y36000D02*
D03*
X37500Y35000D02*
D03*
X37000Y34000D02*
D03*
X37500Y33000D02*
D03*
X37000Y32000D02*
D03*
X37500Y31000D02*
D03*
Y25000D02*
D03*
X37000Y24000D02*
D03*
X37500Y23000D02*
D03*
X37000Y22000D02*
D03*
Y20000D02*
D03*
X37500Y19000D02*
D03*
X37000Y16000D02*
D03*
X37500Y15000D02*
D03*
X37000Y14000D02*
D03*
X36500Y47000D02*
D03*
Y45000D02*
D03*
Y43000D02*
D03*
X36000Y40000D02*
D03*
Y38000D02*
D03*
Y36000D02*
D03*
Y32000D02*
D03*
Y30000D02*
D03*
Y28000D02*
D03*
X36500Y23000D02*
D03*
X36000Y22000D02*
D03*
X36500Y19000D02*
D03*
Y15000D02*
D03*
X35000Y42000D02*
D03*
Y40000D02*
D03*
X35500Y39000D02*
D03*
X35000Y38000D02*
D03*
X35500Y37000D02*
D03*
X35000Y36000D02*
D03*
X35500Y35000D02*
D03*
Y33000D02*
D03*
X35000Y32000D02*
D03*
X35500Y31000D02*
D03*
X35000Y30000D02*
D03*
X35500Y29000D02*
D03*
X35000Y28000D02*
D03*
X35500Y27000D02*
D03*
X35000Y26000D02*
D03*
X35500Y23000D02*
D03*
X35000Y22000D02*
D03*
X35500Y19000D02*
D03*
X35000Y18000D02*
D03*
Y16000D02*
D03*
Y14000D02*
D03*
X34000Y48000D02*
D03*
Y40000D02*
D03*
X34500Y39000D02*
D03*
X34000Y38000D02*
D03*
X34500Y37000D02*
D03*
X34000Y36000D02*
D03*
X34500Y35000D02*
D03*
Y33000D02*
D03*
X34000Y32000D02*
D03*
X34500Y31000D02*
D03*
X34000Y30000D02*
D03*
X34500Y29000D02*
D03*
X34000Y28000D02*
D03*
X34500Y27000D02*
D03*
X34000Y26000D02*
D03*
X34500Y23000D02*
D03*
Y19000D02*
D03*
X34000Y18000D02*
D03*
X34500Y17000D02*
D03*
X34000Y16000D02*
D03*
X34500Y15000D02*
D03*
X34000Y14000D02*
D03*
X33500Y41000D02*
D03*
X33000Y38000D02*
D03*
X33500Y35000D02*
D03*
X33000Y32000D02*
D03*
Y30000D02*
D03*
X33500Y27000D02*
D03*
Y23000D02*
D03*
Y17000D02*
D03*
Y15000D02*
D03*
X32500Y23000D02*
D03*
X32000Y14000D02*
D03*
X31000Y44000D02*
D03*
X31500Y37000D02*
D03*
X31000Y32000D02*
D03*
Y30000D02*
D03*
Y24000D02*
D03*
X31500Y23000D02*
D03*
X30500Y45000D02*
D03*
X30000Y38000D02*
D03*
Y32000D02*
D03*
Y30000D02*
D03*
X30500Y29000D02*
D03*
X30000Y24000D02*
D03*
X30500Y23000D02*
D03*
X30000Y14000D02*
D03*
X29000Y48000D02*
D03*
X29500Y47000D02*
D03*
X29000Y44000D02*
D03*
Y38000D02*
D03*
Y30000D02*
D03*
X29500Y29000D02*
D03*
X29000Y26000D02*
D03*
X29500Y23000D02*
D03*
Y17000D02*
D03*
X29000Y16000D02*
D03*
Y14000D02*
D03*
X28500Y49000D02*
D03*
X28000Y48000D02*
D03*
X28500Y47000D02*
D03*
X28000Y46000D02*
D03*
Y38000D02*
D03*
Y30000D02*
D03*
X28500Y23000D02*
D03*
Y17000D02*
D03*
X28000Y16000D02*
D03*
X27500Y49000D02*
D03*
X27000Y48000D02*
D03*
X27500Y47000D02*
D03*
X27000Y46000D02*
D03*
Y38000D02*
D03*
X27500Y31000D02*
D03*
X27000Y30000D02*
D03*
X27500Y29000D02*
D03*
Y23000D02*
D03*
Y17000D02*
D03*
X27000Y16000D02*
D03*
X26500Y49000D02*
D03*
X26000Y48000D02*
D03*
X26500Y47000D02*
D03*
Y31000D02*
D03*
X26000Y30000D02*
D03*
Y28000D02*
D03*
Y26000D02*
D03*
Y20000D02*
D03*
X25000Y48000D02*
D03*
X25500Y47000D02*
D03*
X25000Y20000D02*
D03*
X25500Y17000D02*
D03*
X31700Y38445D02*
D03*
X50215Y42020D02*
D03*
X51055Y30448D02*
D03*
X31249Y26311D02*
D03*
X30767Y14660D02*
D03*
X30216Y15848D02*
D03*
X29435Y19583D02*
D03*
X28637Y19940D02*
D03*
X27850Y20298D02*
D03*
X26279Y16245D02*
D03*
X24704Y16242D02*
D03*
X39490Y20779D02*
D03*
X31247Y32380D02*
D03*
X31216Y38018D02*
D03*
X50634Y42925D02*
D03*
X50121Y21863D02*
D03*
X33900Y41990D02*
D03*
X55368Y20155D02*
D03*
X50548Y29321D02*
D03*
X50640Y36827D02*
D03*
X38540Y44320D02*
D03*
X45242Y44679D02*
D03*
X37911Y44688D02*
D03*
X31247Y44583D02*
D03*
X31818Y43856D02*
D03*
X49855Y36320D02*
D03*
X51387Y43829D02*
D03*
Y37217D02*
D03*
X48001Y40520D02*
D03*
X49855Y39530D02*
D03*
X44290Y45497D02*
D03*
X37089Y45496D02*
D03*
X29842Y45473D02*
D03*
X29228Y37580D02*
D03*
X29367Y30690D02*
D03*
X31249Y24836D02*
D03*
X31670Y24310D02*
D03*
X47989Y24594D02*
D03*
X49850Y25570D02*
D03*
X50230Y33813D02*
D03*
X46010Y43910D02*
D03*
X41040D02*
D03*
X34320Y44330D02*
D03*
X48490Y44326D02*
D03*
X31680Y35270D02*
D03*
X32121Y40951D02*
D03*
X32106Y32784D02*
D03*
X32117Y26833D02*
D03*
X48001Y34820D02*
D03*
X47510Y42153D02*
D03*
X40040D02*
D03*
X33566Y39945D02*
D03*
Y34294D02*
D03*
X48001Y26581D02*
D03*
X33566Y25836D02*
D03*
M02*
