G04*
G04 #@! TF.GenerationSoftware,Altium Limited,Altium Designer,22.7.1 (60)*
G04*
G04 Layer_Color=8421504*
%FSLAX24Y24*%
%MOIN*%
G70*
G04*
G04 #@! TF.SameCoordinates,1DD6C3B8-EF33-4A04-8B88-EBD51A11C9DD*
G04*
G04*
G04 #@! TF.FilePolarity,Positive*
G04*
G01*
G75*
%ADD19O,0.0650X0.0236*%
%ADD20R,0.0472X0.0787*%
%ADD21R,0.0669X0.0433*%
%ADD22R,0.0906X0.0591*%
%ADD23R,0.0394X0.1575*%
%ADD24R,0.2756X0.3543*%
%ADD25R,0.0354X0.0315*%
%ADD26R,0.0374X0.0315*%
%ADD27R,0.0315X0.0315*%
%ADD28R,0.0315X0.0374*%
%ADD29R,0.0610X0.0827*%
%ADD30R,0.0610X0.1264*%
%ADD31R,0.0827X0.0610*%
%ADD32R,0.2165X0.0846*%
%ADD33O,0.0236X0.0650*%
D19*
X51030Y24594D02*
D03*
Y25094D02*
D03*
Y25594D02*
D03*
Y26094D02*
D03*
Y26594D02*
D03*
Y27094D02*
D03*
Y27594D02*
D03*
Y28094D02*
D03*
X48805Y24594D02*
D03*
Y25094D02*
D03*
Y25594D02*
D03*
Y26094D02*
D03*
Y26594D02*
D03*
Y27094D02*
D03*
Y27594D02*
D03*
Y28094D02*
D03*
X30568Y27836D02*
D03*
Y27336D02*
D03*
Y26836D02*
D03*
Y26336D02*
D03*
Y25836D02*
D03*
Y25336D02*
D03*
Y24836D02*
D03*
Y24336D02*
D03*
X32792Y27836D02*
D03*
Y27336D02*
D03*
Y26836D02*
D03*
Y26336D02*
D03*
Y25836D02*
D03*
Y25336D02*
D03*
Y24836D02*
D03*
Y24336D02*
D03*
X48805Y36320D02*
D03*
Y35820D02*
D03*
Y35320D02*
D03*
Y34820D02*
D03*
Y34320D02*
D03*
Y33820D02*
D03*
Y33320D02*
D03*
Y32820D02*
D03*
X51030Y36320D02*
D03*
Y35820D02*
D03*
Y35320D02*
D03*
Y34820D02*
D03*
Y34320D02*
D03*
Y33820D02*
D03*
Y33320D02*
D03*
Y32820D02*
D03*
X30520Y41945D02*
D03*
Y41445D02*
D03*
Y40945D02*
D03*
Y40445D02*
D03*
Y39945D02*
D03*
Y39445D02*
D03*
Y38945D02*
D03*
Y38445D02*
D03*
X32745Y41945D02*
D03*
Y41445D02*
D03*
Y40945D02*
D03*
Y40445D02*
D03*
Y39945D02*
D03*
Y39445D02*
D03*
Y38945D02*
D03*
Y38445D02*
D03*
X30568Y36294D02*
D03*
Y35794D02*
D03*
Y35294D02*
D03*
Y34794D02*
D03*
Y34294D02*
D03*
Y33794D02*
D03*
Y33294D02*
D03*
Y32794D02*
D03*
X32792Y36294D02*
D03*
Y35794D02*
D03*
Y35294D02*
D03*
Y34794D02*
D03*
Y34294D02*
D03*
Y33794D02*
D03*
Y33294D02*
D03*
Y32794D02*
D03*
X48808Y42020D02*
D03*
Y41520D02*
D03*
Y41020D02*
D03*
Y40520D02*
D03*
Y40020D02*
D03*
Y39520D02*
D03*
Y39020D02*
D03*
Y38520D02*
D03*
X51032Y42020D02*
D03*
Y41520D02*
D03*
Y41020D02*
D03*
Y40520D02*
D03*
Y40020D02*
D03*
Y39520D02*
D03*
Y39020D02*
D03*
Y38520D02*
D03*
D20*
X24704Y15257D02*
D03*
X25491D02*
D03*
X26279D02*
D03*
X27066D02*
D03*
X27854D02*
D03*
X28641D02*
D03*
X29429D02*
D03*
X30216D02*
D03*
Y21163D02*
D03*
X29429D02*
D03*
X28641D02*
D03*
X27854D02*
D03*
X27066D02*
D03*
X26279D02*
D03*
X25491D02*
D03*
X24704D02*
D03*
D21*
X30806Y16242D02*
D03*
Y17029D02*
D03*
Y17816D02*
D03*
Y18604D02*
D03*
Y19391D02*
D03*
Y20178D02*
D03*
D22*
X30872Y13740D02*
D03*
X28234D02*
D03*
D23*
X47399Y18876D02*
D03*
X46730D02*
D03*
X46060D02*
D03*
X45391D02*
D03*
X44722D02*
D03*
D24*
X46060Y14884D02*
D03*
D25*
X53942Y30855D02*
D03*
Y31603D02*
D03*
X54729Y31229D02*
D03*
X53942Y29325D02*
D03*
Y30073D02*
D03*
X54729Y29699D02*
D03*
X53942Y27795D02*
D03*
Y28543D02*
D03*
X54729Y28169D02*
D03*
X53942Y26265D02*
D03*
Y27013D02*
D03*
X54729Y26639D02*
D03*
X53942Y24745D02*
D03*
Y25493D02*
D03*
X54729Y25119D02*
D03*
X53942Y23215D02*
D03*
Y23963D02*
D03*
X54729Y23589D02*
D03*
X53942Y21685D02*
D03*
Y22433D02*
D03*
X54729Y22059D02*
D03*
X53942Y20155D02*
D03*
Y20903D02*
D03*
X54729Y20529D02*
D03*
D26*
X53101Y21881D02*
D03*
Y22432D02*
D03*
Y23409D02*
D03*
Y23960D02*
D03*
Y24938D02*
D03*
Y25489D02*
D03*
Y27017D02*
D03*
Y26466D02*
D03*
Y28546D02*
D03*
Y27995D02*
D03*
Y30074D02*
D03*
Y29523D02*
D03*
Y31603D02*
D03*
Y31052D02*
D03*
X35184Y47247D02*
D03*
Y46696D02*
D03*
X35977Y47247D02*
D03*
Y46696D02*
D03*
X33597Y47247D02*
D03*
Y46696D02*
D03*
X34390Y47247D02*
D03*
Y46696D02*
D03*
X30422Y47247D02*
D03*
Y46696D02*
D03*
X32009Y47247D02*
D03*
Y46696D02*
D03*
X31216Y47247D02*
D03*
Y46696D02*
D03*
X32803Y47247D02*
D03*
Y46696D02*
D03*
X40571Y47247D02*
D03*
Y46696D02*
D03*
X42161Y47247D02*
D03*
Y46696D02*
D03*
X43751Y47247D02*
D03*
Y46696D02*
D03*
X38981Y47247D02*
D03*
Y46696D02*
D03*
X53101Y20352D02*
D03*
Y20903D02*
D03*
X47009Y46716D02*
D03*
Y47267D02*
D03*
X46193Y46716D02*
D03*
Y47267D02*
D03*
X51904Y46716D02*
D03*
Y47267D02*
D03*
X50272Y46716D02*
D03*
Y47267D02*
D03*
X49456Y46716D02*
D03*
Y47267D02*
D03*
X47825Y46716D02*
D03*
Y47267D02*
D03*
X48641Y46716D02*
D03*
Y47267D02*
D03*
X51088Y46716D02*
D03*
Y47267D02*
D03*
X38186Y46696D02*
D03*
Y47247D02*
D03*
X39776Y46696D02*
D03*
Y47247D02*
D03*
X41366Y46696D02*
D03*
Y47247D02*
D03*
X42956Y46696D02*
D03*
Y47247D02*
D03*
D27*
X50043Y20540D02*
D03*
X50673D02*
D03*
D28*
X50673Y21124D02*
D03*
X50121D02*
D03*
X27220Y44740D02*
D03*
X27771D02*
D03*
X27220Y43170D02*
D03*
X27771D02*
D03*
X27220Y43963D02*
D03*
X27771D02*
D03*
X27220Y42377D02*
D03*
X27771D02*
D03*
X27220Y40791D02*
D03*
X27771D02*
D03*
X27220Y39999D02*
D03*
X27771D02*
D03*
X27220Y41584D02*
D03*
X27771D02*
D03*
X27220Y39206D02*
D03*
X27771D02*
D03*
X54768Y38645D02*
D03*
X54217D02*
D03*
X27220Y26364D02*
D03*
X27771D02*
D03*
X27220Y25628D02*
D03*
X27771D02*
D03*
X27220Y27100D02*
D03*
X27771D02*
D03*
X27220Y24892D02*
D03*
X27771D02*
D03*
X27220Y28572D02*
D03*
X27771D02*
D03*
X27220Y23420D02*
D03*
X27771D02*
D03*
X27220Y24156D02*
D03*
X27771D02*
D03*
X27220Y36294D02*
D03*
X27771D02*
D03*
X27220Y35535D02*
D03*
X27771D02*
D03*
X27220Y37052D02*
D03*
X27771D02*
D03*
X27220Y32501D02*
D03*
X27771D02*
D03*
X27220Y33259D02*
D03*
X27771D02*
D03*
X27220Y34018D02*
D03*
X27771D02*
D03*
X27220Y31742D02*
D03*
X27771D02*
D03*
X27220Y27836D02*
D03*
X27771D02*
D03*
X27220Y34777D02*
D03*
X27771D02*
D03*
X54217Y32971D02*
D03*
X54768D02*
D03*
X54217Y33781D02*
D03*
X54768D02*
D03*
X54217Y36213D02*
D03*
X54768D02*
D03*
X54217Y37023D02*
D03*
X54768D02*
D03*
X54217Y35402D02*
D03*
X54768D02*
D03*
X54217Y34592D02*
D03*
X54768D02*
D03*
X54217Y37834D02*
D03*
X54768D02*
D03*
X54217Y43907D02*
D03*
X54768D02*
D03*
X54217Y43076D02*
D03*
X54768D02*
D03*
X54217Y39749D02*
D03*
X54768D02*
D03*
X54217Y41412D02*
D03*
X54768D02*
D03*
X54217Y40581D02*
D03*
X54768D02*
D03*
X54217Y42244D02*
D03*
X54768D02*
D03*
Y45570D02*
D03*
X54217D02*
D03*
Y44739D02*
D03*
X54768D02*
D03*
D29*
X49220Y15266D02*
D03*
Y13534D02*
D03*
D30*
X50654Y13819D02*
D03*
X52307D02*
D03*
D31*
X48462Y20529D02*
D03*
X46730D02*
D03*
D32*
X42077Y17735D02*
D03*
Y19250D02*
D03*
D33*
X46010Y42918D02*
D03*
X46510D02*
D03*
X47010D02*
D03*
X47510D02*
D03*
X48010D02*
D03*
X48510D02*
D03*
X49010D02*
D03*
X49510D02*
D03*
X46010Y45142D02*
D03*
X46510D02*
D03*
X47010D02*
D03*
X47510D02*
D03*
X48010D02*
D03*
X48510D02*
D03*
X49010D02*
D03*
X49510D02*
D03*
X38540Y42918D02*
D03*
X39040D02*
D03*
X39540D02*
D03*
X40040D02*
D03*
X40540D02*
D03*
X41040D02*
D03*
X41540D02*
D03*
X42040D02*
D03*
X38540Y45142D02*
D03*
X39040D02*
D03*
X39540D02*
D03*
X40040D02*
D03*
X40540D02*
D03*
X41040D02*
D03*
X41540D02*
D03*
X42040D02*
D03*
X35310D02*
D03*
X34810D02*
D03*
X34310D02*
D03*
X33810D02*
D03*
X33310D02*
D03*
X32810D02*
D03*
X32310D02*
D03*
X31810D02*
D03*
X35310Y42918D02*
D03*
X34810D02*
D03*
X34310D02*
D03*
X33810D02*
D03*
X33310D02*
D03*
X32810D02*
D03*
X32310D02*
D03*
X31810D02*
D03*
M02*
