G04*
G04 #@! TF.GenerationSoftware,Altium Limited,Altium Designer,22.7.1 (60)*
G04*
G04 Layer_Color=8388736*
%FSLAX24Y24*%
%MOIN*%
G70*
G04*
G04 #@! TF.SameCoordinates,1DD6C3B8-EF33-4A04-8B88-EBD51A11C9DD*
G04*
G04*
G04 #@! TF.FilePolarity,Negative*
G04*
G01*
G75*
%ADD34O,0.0730X0.0316*%
%ADD35R,0.0552X0.0867*%
%ADD36R,0.0749X0.0513*%
%ADD37R,0.0986X0.0671*%
%ADD38R,0.0474X0.1655*%
%ADD39R,0.2836X0.3623*%
%ADD40R,0.0434X0.0395*%
%ADD41R,0.0454X0.0395*%
%ADD42R,0.0395X0.0395*%
%ADD43R,0.0395X0.0454*%
%ADD44R,0.0690X0.0907*%
%ADD45R,0.0690X0.1344*%
%ADD46R,0.0907X0.0690*%
%ADD47R,0.2245X0.0926*%
%ADD48O,0.0316X0.0730*%
%ADD49C,0.0880*%
%ADD50R,0.0880X0.0880*%
%ADD51C,0.0671*%
%ADD52R,0.0671X0.0671*%
%ADD53R,0.0671X0.0671*%
%ADD54R,0.1080X0.1680*%
%ADD55R,0.1680X0.1080*%
%ADD56C,0.1460*%
%ADD57R,0.1080X0.0580*%
%ADD58O,0.1080X0.0580*%
%ADD59C,0.0592*%
G04:AMPARAMS|DCode=60|XSize=59.2mil|YSize=59.2mil|CornerRadius=16.8mil|HoleSize=0mil|Usage=FLASHONLY|Rotation=180.000|XOffset=0mil|YOffset=0mil|HoleType=Round|Shape=RoundedRectangle|*
%AMROUNDEDRECTD60*
21,1,0.0592,0.0256,0,0,180.0*
21,1,0.0256,0.0592,0,0,180.0*
1,1,0.0336,-0.0128,0.0128*
1,1,0.0336,0.0128,0.0128*
1,1,0.0336,0.0128,-0.0128*
1,1,0.0336,-0.0128,-0.0128*
%
%ADD60ROUNDEDRECTD60*%
G04:AMPARAMS|DCode=61|XSize=59.2mil|YSize=59.2mil|CornerRadius=16.8mil|HoleSize=0mil|Usage=FLASHONLY|Rotation=90.000|XOffset=0mil|YOffset=0mil|HoleType=Round|Shape=RoundedRectangle|*
%AMROUNDEDRECTD61*
21,1,0.0592,0.0256,0,0,90.0*
21,1,0.0256,0.0592,0,0,90.0*
1,1,0.0336,0.0128,0.0128*
1,1,0.0336,0.0128,-0.0128*
1,1,0.0336,-0.0128,-0.0128*
1,1,0.0336,-0.0128,0.0128*
%
%ADD61ROUNDEDRECTD61*%
D34*
X51030Y24594D02*
D03*
Y25094D02*
D03*
Y25594D02*
D03*
Y26094D02*
D03*
Y26594D02*
D03*
Y27094D02*
D03*
Y27594D02*
D03*
Y28094D02*
D03*
X48805Y24594D02*
D03*
Y25094D02*
D03*
Y25594D02*
D03*
Y26094D02*
D03*
Y26594D02*
D03*
Y27094D02*
D03*
Y27594D02*
D03*
Y28094D02*
D03*
X30568Y27836D02*
D03*
Y27336D02*
D03*
Y26836D02*
D03*
Y26336D02*
D03*
Y25836D02*
D03*
Y25336D02*
D03*
Y24836D02*
D03*
Y24336D02*
D03*
X32792Y27836D02*
D03*
Y27336D02*
D03*
Y26836D02*
D03*
Y26336D02*
D03*
Y25836D02*
D03*
Y25336D02*
D03*
Y24836D02*
D03*
Y24336D02*
D03*
X48805Y36320D02*
D03*
Y35820D02*
D03*
Y35320D02*
D03*
Y34820D02*
D03*
Y34320D02*
D03*
Y33820D02*
D03*
Y33320D02*
D03*
Y32820D02*
D03*
X51030Y36320D02*
D03*
Y35820D02*
D03*
Y35320D02*
D03*
Y34820D02*
D03*
Y34320D02*
D03*
Y33820D02*
D03*
Y33320D02*
D03*
Y32820D02*
D03*
X30520Y41945D02*
D03*
Y41445D02*
D03*
Y40945D02*
D03*
Y40445D02*
D03*
Y39945D02*
D03*
Y39445D02*
D03*
Y38945D02*
D03*
Y38445D02*
D03*
X32745Y41945D02*
D03*
Y41445D02*
D03*
Y40945D02*
D03*
Y40445D02*
D03*
Y39945D02*
D03*
Y39445D02*
D03*
Y38945D02*
D03*
Y38445D02*
D03*
X30568Y36294D02*
D03*
Y35794D02*
D03*
Y35294D02*
D03*
Y34794D02*
D03*
Y34294D02*
D03*
Y33794D02*
D03*
Y33294D02*
D03*
Y32794D02*
D03*
X32792Y36294D02*
D03*
Y35794D02*
D03*
Y35294D02*
D03*
Y34794D02*
D03*
Y34294D02*
D03*
Y33794D02*
D03*
Y33294D02*
D03*
Y32794D02*
D03*
X48808Y42020D02*
D03*
Y41520D02*
D03*
Y41020D02*
D03*
Y40520D02*
D03*
Y40020D02*
D03*
Y39520D02*
D03*
Y39020D02*
D03*
Y38520D02*
D03*
X51032Y42020D02*
D03*
Y41520D02*
D03*
Y41020D02*
D03*
Y40520D02*
D03*
Y40020D02*
D03*
Y39520D02*
D03*
Y39020D02*
D03*
Y38520D02*
D03*
D35*
X24704Y15257D02*
D03*
X25491D02*
D03*
X26279D02*
D03*
X27066D02*
D03*
X27854D02*
D03*
X28641D02*
D03*
X29429D02*
D03*
X30216D02*
D03*
Y21163D02*
D03*
X29429D02*
D03*
X28641D02*
D03*
X27854D02*
D03*
X27066D02*
D03*
X26279D02*
D03*
X25491D02*
D03*
X24704D02*
D03*
D36*
X30806Y16242D02*
D03*
Y17029D02*
D03*
Y17816D02*
D03*
Y18604D02*
D03*
Y19391D02*
D03*
Y20178D02*
D03*
D37*
X30872Y13740D02*
D03*
X28234D02*
D03*
D38*
X47399Y18876D02*
D03*
X46730D02*
D03*
X46060D02*
D03*
X45391D02*
D03*
X44722D02*
D03*
D39*
X46060Y14884D02*
D03*
D40*
X53942Y30855D02*
D03*
Y31603D02*
D03*
X54729Y31229D02*
D03*
X53942Y29325D02*
D03*
Y30073D02*
D03*
X54729Y29699D02*
D03*
X53942Y27795D02*
D03*
Y28543D02*
D03*
X54729Y28169D02*
D03*
X53942Y26265D02*
D03*
Y27013D02*
D03*
X54729Y26639D02*
D03*
X53942Y24745D02*
D03*
Y25493D02*
D03*
X54729Y25119D02*
D03*
X53942Y23215D02*
D03*
Y23963D02*
D03*
X54729Y23589D02*
D03*
X53942Y21685D02*
D03*
Y22433D02*
D03*
X54729Y22059D02*
D03*
X53942Y20155D02*
D03*
Y20903D02*
D03*
X54729Y20529D02*
D03*
D41*
X53101Y21881D02*
D03*
Y22432D02*
D03*
Y23409D02*
D03*
Y23960D02*
D03*
Y24938D02*
D03*
Y25489D02*
D03*
Y27017D02*
D03*
Y26466D02*
D03*
Y28546D02*
D03*
Y27995D02*
D03*
Y30074D02*
D03*
Y29523D02*
D03*
Y31603D02*
D03*
Y31052D02*
D03*
X35184Y47247D02*
D03*
Y46696D02*
D03*
X35977Y47247D02*
D03*
Y46696D02*
D03*
X33597Y47247D02*
D03*
Y46696D02*
D03*
X34390Y47247D02*
D03*
Y46696D02*
D03*
X30422Y47247D02*
D03*
Y46696D02*
D03*
X32009Y47247D02*
D03*
Y46696D02*
D03*
X31216Y47247D02*
D03*
Y46696D02*
D03*
X32803Y47247D02*
D03*
Y46696D02*
D03*
X40571Y47247D02*
D03*
Y46696D02*
D03*
X42161Y47247D02*
D03*
Y46696D02*
D03*
X43751Y47247D02*
D03*
Y46696D02*
D03*
X38981Y47247D02*
D03*
Y46696D02*
D03*
X53101Y20352D02*
D03*
Y20903D02*
D03*
X47009Y46716D02*
D03*
Y47267D02*
D03*
X46193Y46716D02*
D03*
Y47267D02*
D03*
X51904Y46716D02*
D03*
Y47267D02*
D03*
X50272Y46716D02*
D03*
Y47267D02*
D03*
X49456Y46716D02*
D03*
Y47267D02*
D03*
X47825Y46716D02*
D03*
Y47267D02*
D03*
X48641Y46716D02*
D03*
Y47267D02*
D03*
X51088Y46716D02*
D03*
Y47267D02*
D03*
X38186Y46696D02*
D03*
Y47247D02*
D03*
X39776Y46696D02*
D03*
Y47247D02*
D03*
X41366Y46696D02*
D03*
Y47247D02*
D03*
X42956Y46696D02*
D03*
Y47247D02*
D03*
D42*
X50043Y20540D02*
D03*
X50673D02*
D03*
D43*
X50673Y21124D02*
D03*
X50121D02*
D03*
X27220Y44740D02*
D03*
X27771D02*
D03*
X27220Y43170D02*
D03*
X27771D02*
D03*
X27220Y43963D02*
D03*
X27771D02*
D03*
X27220Y42377D02*
D03*
X27771D02*
D03*
X27220Y40791D02*
D03*
X27771D02*
D03*
X27220Y39999D02*
D03*
X27771D02*
D03*
X27220Y41584D02*
D03*
X27771D02*
D03*
X27220Y39206D02*
D03*
X27771D02*
D03*
X54768Y38645D02*
D03*
X54217D02*
D03*
X27220Y26364D02*
D03*
X27771D02*
D03*
X27220Y25628D02*
D03*
X27771D02*
D03*
X27220Y27100D02*
D03*
X27771D02*
D03*
X27220Y24892D02*
D03*
X27771D02*
D03*
X27220Y28572D02*
D03*
X27771D02*
D03*
X27220Y23420D02*
D03*
X27771D02*
D03*
X27220Y24156D02*
D03*
X27771D02*
D03*
X27220Y36294D02*
D03*
X27771D02*
D03*
X27220Y35535D02*
D03*
X27771D02*
D03*
X27220Y37052D02*
D03*
X27771D02*
D03*
X27220Y32501D02*
D03*
X27771D02*
D03*
X27220Y33259D02*
D03*
X27771D02*
D03*
X27220Y34018D02*
D03*
X27771D02*
D03*
X27220Y31742D02*
D03*
X27771D02*
D03*
X27220Y27836D02*
D03*
X27771D02*
D03*
X27220Y34777D02*
D03*
X27771D02*
D03*
X54217Y32971D02*
D03*
X54768D02*
D03*
X54217Y33781D02*
D03*
X54768D02*
D03*
X54217Y36213D02*
D03*
X54768D02*
D03*
X54217Y37023D02*
D03*
X54768D02*
D03*
X54217Y35402D02*
D03*
X54768D02*
D03*
X54217Y34592D02*
D03*
X54768D02*
D03*
X54217Y37834D02*
D03*
X54768D02*
D03*
X54217Y43907D02*
D03*
X54768D02*
D03*
X54217Y43076D02*
D03*
X54768D02*
D03*
X54217Y39749D02*
D03*
X54768D02*
D03*
X54217Y41412D02*
D03*
X54768D02*
D03*
X54217Y40581D02*
D03*
X54768D02*
D03*
X54217Y42244D02*
D03*
X54768D02*
D03*
Y45570D02*
D03*
X54217D02*
D03*
Y44739D02*
D03*
X54768D02*
D03*
D44*
X49220Y15266D02*
D03*
Y13534D02*
D03*
D45*
X50654Y13819D02*
D03*
X52307D02*
D03*
D46*
X48462Y20529D02*
D03*
X46730D02*
D03*
D47*
X42077Y17735D02*
D03*
Y19250D02*
D03*
D48*
X46010Y42918D02*
D03*
X46510D02*
D03*
X47010D02*
D03*
X47510D02*
D03*
X48010D02*
D03*
X48510D02*
D03*
X49010D02*
D03*
X49510D02*
D03*
X46010Y45142D02*
D03*
X46510D02*
D03*
X47010D02*
D03*
X47510D02*
D03*
X48010D02*
D03*
X48510D02*
D03*
X49010D02*
D03*
X49510D02*
D03*
X38540Y42918D02*
D03*
X39040D02*
D03*
X39540D02*
D03*
X40040D02*
D03*
X40540D02*
D03*
X41040D02*
D03*
X41540D02*
D03*
X42040D02*
D03*
X38540Y45142D02*
D03*
X39040D02*
D03*
X39540D02*
D03*
X40040D02*
D03*
X40540D02*
D03*
X41040D02*
D03*
X41540D02*
D03*
X42040D02*
D03*
X35310D02*
D03*
X34810D02*
D03*
X34310D02*
D03*
X33810D02*
D03*
X33310D02*
D03*
X32810D02*
D03*
X32310D02*
D03*
X31810D02*
D03*
X35310Y42918D02*
D03*
X34810D02*
D03*
X34310D02*
D03*
X33810D02*
D03*
X33310D02*
D03*
X32810D02*
D03*
X32310D02*
D03*
X31810D02*
D03*
D49*
X56868Y21074D02*
D03*
D50*
Y19696D02*
D03*
D51*
X35810Y20180D02*
D03*
X34810D02*
D03*
X33810D02*
D03*
X25150Y31018D02*
D03*
Y32018D02*
D03*
Y34018D02*
D03*
Y36018D02*
D03*
Y37018D02*
D03*
Y35018D02*
D03*
Y33018D02*
D03*
X25170Y22628D02*
D03*
Y23628D02*
D03*
Y25628D02*
D03*
Y27628D02*
D03*
Y28628D02*
D03*
Y26628D02*
D03*
Y24628D02*
D03*
X25147Y41416D02*
D03*
Y43416D02*
D03*
Y45416D02*
D03*
Y44416D02*
D03*
Y42416D02*
D03*
Y40416D02*
D03*
Y39416D02*
D03*
X31184Y49136D02*
D03*
X33184D02*
D03*
X35184D02*
D03*
X34184D02*
D03*
X32184D02*
D03*
X30184D02*
D03*
X29184D02*
D03*
X39597Y49138D02*
D03*
X41597D02*
D03*
X43597D02*
D03*
X42597D02*
D03*
X40597D02*
D03*
X38597D02*
D03*
X37597D02*
D03*
X48009Y49136D02*
D03*
X50009D02*
D03*
X52009D02*
D03*
X51009D02*
D03*
X49009D02*
D03*
X47009D02*
D03*
X46009D02*
D03*
X56868Y27803D02*
D03*
Y25803D02*
D03*
Y23803D02*
D03*
Y24803D02*
D03*
Y26803D02*
D03*
Y28803D02*
D03*
Y29803D02*
D03*
Y36213D02*
D03*
Y34213D02*
D03*
Y32213D02*
D03*
Y33213D02*
D03*
Y35213D02*
D03*
Y37213D02*
D03*
Y38213D02*
D03*
X56862Y44581D02*
D03*
Y42581D02*
D03*
Y40581D02*
D03*
Y41581D02*
D03*
Y43581D02*
D03*
Y45581D02*
D03*
Y46581D02*
D03*
D52*
X32810Y20180D02*
D03*
X36184Y49136D02*
D03*
X44597Y49138D02*
D03*
X53009Y49136D02*
D03*
D53*
X25150Y38018D02*
D03*
X25170Y29628D02*
D03*
X25147Y46416D02*
D03*
X56868Y22803D02*
D03*
Y31213D02*
D03*
X56862Y39581D02*
D03*
D54*
X53207Y16516D02*
D03*
X55707D02*
D03*
D55*
X54207Y18516D02*
D03*
D56*
X56753Y13848D02*
D03*
X25288Y13740D02*
D03*
X56744Y49018D02*
D03*
X25193Y49215D02*
D03*
D57*
X44200Y21380D02*
D03*
D58*
Y22380D02*
D03*
Y23380D02*
D03*
Y24380D02*
D03*
Y25380D02*
D03*
Y26380D02*
D03*
Y27380D02*
D03*
Y28380D02*
D03*
Y29380D02*
D03*
Y30380D02*
D03*
Y31380D02*
D03*
Y32380D02*
D03*
Y33380D02*
D03*
Y34380D02*
D03*
Y35380D02*
D03*
Y36380D02*
D03*
Y37380D02*
D03*
Y38380D02*
D03*
Y39380D02*
D03*
Y40380D02*
D03*
X38200Y21380D02*
D03*
Y22380D02*
D03*
Y23380D02*
D03*
Y24380D02*
D03*
Y25380D02*
D03*
Y26380D02*
D03*
Y27380D02*
D03*
Y28380D02*
D03*
Y29380D02*
D03*
Y30380D02*
D03*
Y31380D02*
D03*
Y32380D02*
D03*
Y33380D02*
D03*
Y34380D02*
D03*
Y35380D02*
D03*
Y36380D02*
D03*
Y37380D02*
D03*
Y38380D02*
D03*
Y39380D02*
D03*
Y40380D02*
D03*
D59*
X32740Y16150D02*
D03*
Y17150D02*
D03*
Y18150D02*
D03*
Y15150D02*
D03*
Y14150D02*
D03*
X35740D02*
D03*
Y15150D02*
D03*
Y16150D02*
D03*
Y17150D02*
D03*
Y18150D02*
D03*
X50592Y17952D02*
D03*
X42020Y14066D02*
D03*
D60*
X49214Y17952D02*
D03*
D61*
X42020Y15444D02*
D03*
M02*
