G04*
G04 #@! TF.GenerationSoftware,Altium Limited,Altium Designer,22.7.1 (60)*
G04*
G04 Layer_Color=65535*
%FSLAX24Y24*%
%MOIN*%
G70*
G04*
G04 #@! TF.SameCoordinates,1DD6C3B8-EF33-4A04-8B88-EBD51A11C9DD*
G04*
G04*
G04 #@! TF.FilePolarity,Positive*
G04*
G01*
G75*
%ADD10C,0.0098*%
%ADD11C,0.0236*%
%ADD12C,0.0050*%
%ADD13C,0.0157*%
%ADD14C,0.0079*%
%ADD15C,0.0100*%
%ADD16C,0.0070*%
%ADD17C,0.0039*%
%ADD18C,0.0060*%
G36*
X57828Y20276D02*
X57858Y20289D01*
X58358D01*
X58388Y20276D01*
X58401Y20246D01*
Y19246D01*
X58388Y19216D01*
X58358Y19204D01*
X57858D01*
X57828Y19216D01*
X57816Y19246D01*
Y20246D01*
X57828Y20276D01*
D02*
G37*
G36*
X57810Y21644D02*
X57848Y21660D01*
X58348D01*
X58386Y21644D01*
X58402Y21606D01*
Y20606D01*
X58386Y20568D01*
X58348Y20552D01*
X57848D01*
X57810Y20568D01*
X57794Y20606D01*
Y21606D01*
X57810Y21644D01*
D02*
G37*
D10*
X51079Y24259D02*
G03*
X51079Y24259I-49J0D01*
G01*
X32859Y21637D02*
G03*
X32859Y21637I-49J0D01*
G01*
X30617Y28170D02*
G03*
X30617Y28170I-49J0D01*
G01*
X51079Y32485D02*
G03*
X51079Y32485I-49J0D01*
G01*
X26656Y38018D02*
G03*
X26656Y38018I-49J0D01*
G01*
X26676Y29628D02*
G03*
X26676Y29628I-49J0D01*
G01*
X26653Y46416D02*
G03*
X26653Y46416I-49J0D01*
G01*
X30570Y42280D02*
G03*
X30570Y42280I-49J0D01*
G01*
X30617Y36628D02*
G03*
X30617Y36628I-49J0D01*
G01*
X48748Y13061D02*
G03*
X48748Y13061I-49J0D01*
G01*
X36233Y47680D02*
G03*
X36233Y47680I-49J0D01*
G01*
X44646Y47681D02*
G03*
X44646Y47681I-49J0D01*
G01*
X53058Y47680D02*
G03*
X53058Y47680I-49J0D01*
G01*
X48983Y20008D02*
G03*
X48983Y20008I-49J0D01*
G01*
X55461Y22803D02*
G03*
X55461Y22803I-49J0D01*
G01*
X42126Y19890D02*
G03*
X42126Y19890I-49J0D01*
G01*
X55461Y31213D02*
G03*
X55461Y31213I-49J0D01*
G01*
X55455Y39581D02*
G03*
X55455Y39581I-49J0D01*
G01*
X51081Y38185D02*
G03*
X51081Y38185I-49J0D01*
G01*
X49894Y45142D02*
G03*
X49894Y45142I-49J0D01*
G01*
X42424D02*
G03*
X42424Y45142I-49J0D01*
G01*
X35694D02*
G03*
X35694Y45142I-49J0D01*
G01*
D11*
X50272Y24769D02*
G03*
X50272Y24769I-118J0D01*
G01*
X31562Y27661D02*
G03*
X31562Y27661I-118J0D01*
G01*
X50272Y32995D02*
G03*
X50272Y32995I-118J0D01*
G01*
X31515Y41770D02*
G03*
X31515Y41770I-118J0D01*
G01*
X31562Y36119D02*
G03*
X31562Y36119I-118J0D01*
G01*
X50274Y38695D02*
G03*
X50274Y38695I-118J0D01*
G01*
X49453Y44266D02*
G03*
X49453Y44266I-118J0D01*
G01*
X41983D02*
G03*
X41983Y44266I-118J0D01*
G01*
X35253D02*
G03*
X35253Y44266I-118J0D01*
G01*
D12*
X24458Y14568D02*
G03*
X24458Y14568I-98J0D01*
G01*
X24413Y15848D02*
Y20572D01*
X30318D01*
Y15848D02*
Y20572D01*
X24413Y15848D02*
X30318D01*
X21358Y15060D02*
X24310D01*
X21358D02*
Y21360D01*
X24310D01*
X30610Y15060D02*
X30806D01*
Y15848D01*
X30610Y21360D02*
X30806D01*
Y20572D02*
Y21360D01*
X47556Y13864D02*
X48159D01*
Y17502D01*
X43962D02*
X48159D01*
X43962Y13864D02*
Y17502D01*
Y13864D02*
X44564D01*
X54611Y30631D02*
Y30945D01*
X54245Y30631D02*
X54611D01*
X54060Y31138D02*
Y31320D01*
X54611Y31512D02*
Y31827D01*
X54245D02*
X54611D01*
Y29101D02*
Y29415D01*
X54245Y29101D02*
X54611D01*
X54060Y29608D02*
Y29790D01*
X54611Y29982D02*
Y30297D01*
X54245D02*
X54611D01*
Y27571D02*
Y27885D01*
X54245Y27571D02*
X54611D01*
X54060Y28078D02*
Y28260D01*
X54611Y28452D02*
Y28767D01*
X54245D02*
X54611D01*
Y26041D02*
Y26355D01*
X54245Y26041D02*
X54611D01*
X54060Y26548D02*
Y26730D01*
X54611Y26922D02*
Y27237D01*
X54245D02*
X54611D01*
Y24521D02*
Y24836D01*
X54245Y24521D02*
X54611D01*
X54060Y25029D02*
Y25210D01*
X54611Y25403D02*
Y25718D01*
X54245D02*
X54611D01*
Y22991D02*
Y23306D01*
X54245Y22991D02*
X54611D01*
X54060Y23499D02*
Y23680D01*
X54611Y23873D02*
Y24188D01*
X54245D02*
X54611D01*
Y21461D02*
Y21776D01*
X54245Y21461D02*
X54611D01*
X54060Y21969D02*
Y22150D01*
X54611Y22343D02*
Y22658D01*
X54245D02*
X54611D01*
Y19931D02*
Y20246D01*
X54245Y19931D02*
X54611D01*
X54060Y20439D02*
Y20620D01*
X54611Y20813D02*
Y21128D01*
X54245D02*
X54611D01*
X52801Y21636D02*
X53401D01*
Y22686D01*
X52801D02*
X53401D01*
X52801Y21636D02*
Y22686D01*
Y23165D02*
X53401D01*
Y24215D01*
X52801D02*
X53401D01*
X52801Y23165D02*
Y24215D01*
Y24693D02*
X53401D01*
Y25743D01*
X52801D02*
X53401D01*
X52801Y24693D02*
Y25743D01*
Y26222D02*
Y27272D01*
X53401D01*
Y26222D02*
Y27272D01*
X52801Y26222D02*
X53401D01*
X52801Y27750D02*
Y28800D01*
X53401D01*
Y27750D02*
Y28800D01*
X52801Y27750D02*
X53401D01*
X52801Y29279D02*
Y30329D01*
X53401D01*
Y29279D02*
Y30329D01*
X52801Y29279D02*
X53401D01*
X52801Y30807D02*
Y31857D01*
X53401D01*
Y30807D02*
Y31857D01*
X52801Y30807D02*
X53401D01*
X50958Y20290D02*
Y20790D01*
X49708Y20690D02*
X49808Y20790D01*
X49708Y20390D02*
X49808Y20290D01*
X49708Y20390D02*
Y20690D01*
X49808Y20290D02*
X50208D01*
X50508D02*
X50958D01*
X49808Y20790D02*
X50208D01*
X50508D02*
X50958D01*
X49877Y21424D02*
X50927D01*
Y20824D02*
Y21424D01*
X49877Y20824D02*
X50927D01*
X49877D02*
Y21424D01*
X26976Y44440D02*
Y45040D01*
Y44440D02*
X28026D01*
Y45040D01*
X26976D02*
X28026D01*
X26976Y42870D02*
Y43470D01*
Y42870D02*
X28026D01*
Y43470D01*
X26976D02*
X28026D01*
X26976Y43663D02*
Y44263D01*
Y43663D02*
X28026D01*
Y44263D01*
X26976D02*
X28026D01*
X26976Y42077D02*
Y42677D01*
Y42077D02*
X28026D01*
Y42677D01*
X26976D02*
X28026D01*
X26976Y40491D02*
Y41091D01*
Y40491D02*
X28026D01*
Y41091D01*
X26976D02*
X28026D01*
X26976Y39699D02*
Y40299D01*
Y39699D02*
X28026D01*
Y40299D01*
X26976D02*
X28026D01*
X26976Y41284D02*
Y41884D01*
Y41284D02*
X28026D01*
Y41884D01*
X26976D02*
X28026D01*
X26976Y38906D02*
Y39506D01*
Y38906D02*
X28026D01*
Y39506D01*
X26976D02*
X28026D01*
X55013Y38345D02*
Y38945D01*
X53963D02*
X55013D01*
X53963Y38345D02*
Y38945D01*
Y38345D02*
X55013D01*
X34884Y47491D02*
X35484D01*
X34884Y46441D02*
Y47491D01*
Y46441D02*
X35484D01*
Y47491D01*
X35677D02*
X36277D01*
X35677Y46441D02*
Y47491D01*
Y46441D02*
X36277D01*
Y47491D01*
X33297D02*
X33897D01*
X33297Y46441D02*
Y47491D01*
Y46441D02*
X33897D01*
Y47491D01*
X34090D02*
X34690D01*
X34090Y46441D02*
Y47491D01*
Y46441D02*
X34690D01*
Y47491D01*
X30122D02*
X30722D01*
X30122Y46441D02*
Y47491D01*
Y46441D02*
X30722D01*
Y47491D01*
X31709D02*
X32309D01*
X31709Y46441D02*
Y47491D01*
Y46441D02*
X32309D01*
Y47491D01*
X30916D02*
X31516D01*
X30916Y46441D02*
Y47491D01*
Y46441D02*
X31516D01*
Y47491D01*
X32503D02*
X33103D01*
X32503Y46441D02*
Y47491D01*
Y46441D02*
X33103D01*
Y47491D01*
X40271D02*
X40871D01*
X40271Y46441D02*
Y47491D01*
Y46441D02*
X40871D01*
Y47491D01*
X26976Y26064D02*
Y26664D01*
Y26064D02*
X28026D01*
Y26664D01*
X26976D02*
X28026D01*
X26976Y25328D02*
Y25928D01*
Y25328D02*
X28026D01*
Y25928D01*
X26976D02*
X28026D01*
X26976Y26800D02*
Y27400D01*
Y26800D02*
X28026D01*
Y27400D01*
X26976D02*
X28026D01*
X26976Y24592D02*
Y25192D01*
Y24592D02*
X28026D01*
Y25192D01*
X26976D02*
X28026D01*
X26976Y28272D02*
Y28872D01*
Y28272D02*
X28026D01*
Y28872D01*
X26976D02*
X28026D01*
X26976Y23120D02*
Y23720D01*
Y23120D02*
X28026D01*
Y23720D01*
X26976D02*
X28026D01*
X26976Y23856D02*
Y24456D01*
Y23856D02*
X28026D01*
Y24456D01*
X26976D02*
X28026D01*
X26976Y35994D02*
Y36594D01*
Y35994D02*
X28026D01*
Y36594D01*
X26976D02*
X28026D01*
X26976Y35235D02*
Y35835D01*
Y35235D02*
X28026D01*
Y35835D01*
X26976D02*
X28026D01*
X26976Y36752D02*
Y37352D01*
Y36752D02*
X28026D01*
Y37352D01*
X26976D02*
X28026D01*
X26976Y32201D02*
Y32801D01*
Y32201D02*
X28026D01*
Y32801D01*
X26976D02*
X28026D01*
X26976Y32959D02*
Y33559D01*
Y32959D02*
X28026D01*
Y33559D01*
X26976D02*
X28026D01*
X26976Y33718D02*
Y34318D01*
Y33718D02*
X28026D01*
Y34318D01*
X26976D02*
X28026D01*
X26976Y31442D02*
Y32042D01*
Y31442D02*
X28026D01*
Y32042D01*
X26976D02*
X28026D01*
X26976Y27536D02*
Y28136D01*
Y27536D02*
X28026D01*
Y28136D01*
X26976D02*
X28026D01*
X26976Y34477D02*
Y35077D01*
Y34477D02*
X28026D01*
Y35077D01*
X26976D02*
X28026D01*
X41861Y47491D02*
X42461D01*
X41861Y46441D02*
Y47491D01*
Y46441D02*
X42461D01*
Y47491D01*
X43451D02*
X44051D01*
X43451Y46441D02*
Y47491D01*
Y46441D02*
X44051D01*
Y47491D01*
X38681D02*
X39281D01*
X38681Y46441D02*
Y47491D01*
Y46441D02*
X39281D01*
Y47491D01*
X52801Y20108D02*
X53401D01*
Y21158D01*
X52801D02*
X53401D01*
X52801Y20108D02*
Y21158D01*
X53963Y32671D02*
X55013D01*
X53963D02*
Y33271D01*
X55013D01*
Y32671D02*
Y33271D01*
X53963Y33481D02*
X55013D01*
X53963D02*
Y34081D01*
X55013D01*
Y33481D02*
Y34081D01*
X53963Y35913D02*
X55013D01*
X53963D02*
Y36513D01*
X55013D01*
Y35913D02*
Y36513D01*
X53963Y36723D02*
X55013D01*
X53963D02*
Y37324D01*
X55013D01*
Y36723D02*
Y37324D01*
X53963Y35102D02*
X55013D01*
X53963D02*
Y35702D01*
X55013D01*
Y35102D02*
Y35702D01*
X53963Y34292D02*
X55013D01*
X53963D02*
Y34892D01*
X55013D01*
Y34292D02*
Y34892D01*
X53963Y37534D02*
X55013D01*
X53963D02*
Y38134D01*
X55013D01*
Y37534D02*
Y38134D01*
X53963Y43607D02*
X55013D01*
X53963D02*
Y44207D01*
X55013D01*
Y43607D02*
Y44207D01*
X53963Y42776D02*
X55013D01*
X53963D02*
Y43376D01*
X55013D01*
Y42776D02*
Y43376D01*
X53963Y39449D02*
X55013D01*
X53963D02*
Y40049D01*
X55013D01*
Y39449D02*
Y40049D01*
X53963Y41112D02*
X55013D01*
X53963D02*
Y41712D01*
X55013D01*
Y41112D02*
Y41712D01*
X53963Y40281D02*
X55013D01*
X53963D02*
Y40881D01*
X55013D01*
Y40281D02*
Y40881D01*
X53963Y41944D02*
X55013D01*
X53963D02*
Y42544D01*
X55013D01*
Y41944D02*
Y42544D01*
Y45270D02*
Y45870D01*
X53963D02*
X55013D01*
X53963Y45270D02*
Y45870D01*
Y45270D02*
X55013D01*
X53963Y44439D02*
X55013D01*
X53963D02*
Y45039D01*
X55013D01*
Y44439D02*
Y45039D01*
X47309Y46461D02*
Y47511D01*
X46709Y46461D02*
X47309D01*
X46709D02*
Y47511D01*
X47309D01*
X46493Y46461D02*
Y47511D01*
X45893Y46461D02*
X46493D01*
X45893D02*
Y47511D01*
X46493D01*
X52204Y46461D02*
Y47511D01*
X51604Y46461D02*
X52204D01*
X51604D02*
Y47511D01*
X52204D01*
X50572Y46461D02*
Y47511D01*
X49972Y46461D02*
X50572D01*
X49972D02*
Y47511D01*
X50572D01*
X49756Y46461D02*
Y47511D01*
X49156Y46461D02*
X49756D01*
X49156D02*
Y47511D01*
X49756D01*
X48125Y46461D02*
Y47511D01*
X47525Y46461D02*
X48125D01*
X47525D02*
Y47511D01*
X48125D01*
X48941Y46461D02*
Y47511D01*
X48341Y46461D02*
X48941D01*
X48341D02*
Y47511D01*
X48941D01*
X51388Y46461D02*
Y47511D01*
X50788Y46461D02*
X51388D01*
X50788D02*
Y47511D01*
X51388D01*
X38486Y46441D02*
Y47491D01*
X37886Y46441D02*
X38486D01*
X37886D02*
Y47491D01*
X38486D01*
X40076Y46441D02*
Y47491D01*
X39476Y46441D02*
X40076D01*
X39476D02*
Y47491D01*
X40076D01*
X41666Y46441D02*
Y47491D01*
X41066Y46441D02*
X41666D01*
X41066D02*
Y47491D01*
X41666D01*
X43256Y46441D02*
Y47491D01*
X42656Y46441D02*
X43256D01*
X42656D02*
Y47491D01*
X43256D01*
X48112Y17952D02*
X47718D01*
X47915Y17755D02*
Y18149D01*
X42020Y16546D02*
Y16940D01*
X41824Y16743D02*
X42217D01*
D13*
X48009Y19337D02*
G03*
X48009Y19337I-79J0D01*
G01*
D14*
X53588Y31623D02*
G03*
X53588Y31623I-39J0D01*
G01*
Y30093D02*
G03*
X53588Y30093I-39J0D01*
G01*
Y28563D02*
G03*
X53588Y28563I-39J0D01*
G01*
Y27033D02*
G03*
X53588Y27033I-39J0D01*
G01*
Y25513D02*
G03*
X53588Y25513I-39J0D01*
G01*
Y23983D02*
G03*
X53588Y23983I-39J0D01*
G01*
Y22453D02*
G03*
X53588Y22453I-39J0D01*
G01*
Y20923D02*
G03*
X53588Y20923I-39J0D01*
G01*
X51576Y17952D02*
G03*
X51576Y17952I-1673J0D01*
G01*
X43693Y14755D02*
G03*
X43693Y14755I-1673J0D01*
G01*
X50548Y24376D02*
Y28313D01*
X49288Y24376D02*
Y28313D01*
Y24376D02*
X50548D01*
X49288Y28313D02*
X50548D01*
X36377Y19127D02*
Y21469D01*
X32243Y19127D02*
X36377D01*
X32243D02*
Y21469D01*
X36377D01*
X28372Y13051D02*
Y13327D01*
X30734Y13051D02*
Y13327D01*
Y14153D02*
Y14429D01*
X28372Y14153D02*
Y14429D01*
Y13051D02*
X30734D01*
X28372Y14429D02*
X30734D01*
X31050Y24117D02*
Y28054D01*
X32310Y24117D02*
Y28054D01*
X31050D02*
X32310D01*
X31050Y24117D02*
X32310D01*
X49288Y36539D02*
X50548D01*
X49288Y32601D02*
X50548D01*
X49288D02*
Y36539D01*
X50548Y32601D02*
Y36539D01*
X24097Y30451D02*
X26439D01*
X24097D02*
Y38585D01*
X26439D01*
Y30451D02*
Y38585D01*
X24117Y22061D02*
X26459D01*
X24117D02*
Y30195D01*
X26459D01*
Y22061D02*
Y30195D01*
X26437Y38849D02*
Y46983D01*
X24094D02*
X26437D01*
X24094Y38849D02*
Y46983D01*
Y38849D02*
X26437D01*
X31003Y38227D02*
Y42164D01*
X32263Y38227D02*
Y42164D01*
X31003D02*
X32263D01*
X31003Y38227D02*
X32263D01*
X31050Y32575D02*
Y36512D01*
X32310Y32575D02*
Y36512D01*
X31050D02*
X32310D01*
X31050Y32575D02*
X32310D01*
X49683Y15483D02*
X49771D01*
X49683Y13317D02*
X49771D01*
X48669Y15483D02*
X48757D01*
X48669Y13317D02*
X48757D01*
X49771D02*
Y15483D01*
X48669Y13317D02*
Y15483D01*
X50949Y14412D02*
X52012D01*
X50949Y13227D02*
X52012D01*
X28617Y47847D02*
X36751D01*
Y50189D01*
X28617D02*
X36751D01*
X28617Y47847D02*
Y50189D01*
X37030Y47849D02*
X45163D01*
Y50191D01*
X37030D02*
X45163D01*
X37030Y47849D02*
Y50191D01*
X45442Y47847D02*
X53576D01*
Y50189D01*
X45442D02*
X53576D01*
X45442Y47847D02*
Y50189D01*
X46513Y19978D02*
X48678D01*
X46513Y21081D02*
X48678D01*
Y19978D02*
Y20067D01*
X46513Y19978D02*
Y20067D01*
X48678Y20992D02*
Y21081D01*
X46513Y20992D02*
Y21081D01*
X36209Y13414D02*
Y18886D01*
X32271D02*
X36209D01*
X32271Y13414D02*
Y18886D01*
Y13414D02*
X36209D01*
X55579Y22236D02*
Y30370D01*
Y22236D02*
X57921D01*
Y30370D01*
X55579D02*
X57921D01*
X55579Y30646D02*
Y38780D01*
Y30646D02*
X57921D01*
Y38780D01*
X55579D02*
X57921D01*
X55573Y39014D02*
Y47148D01*
Y39014D02*
X57916D01*
Y47148D01*
X55573D02*
X57916D01*
X49290Y42238D02*
X50550D01*
X49290Y38301D02*
X50550D01*
X49290D02*
Y42238D01*
X50550Y38301D02*
Y42238D01*
X45792Y43400D02*
Y44660D01*
X49728Y43400D02*
Y44660D01*
X45792Y43400D02*
X49728D01*
X45792Y44660D02*
X49728D01*
X38321Y43400D02*
Y44660D01*
X42259Y43400D02*
Y44660D01*
X38321Y43400D02*
X42259D01*
X38321Y44660D02*
X42259D01*
X31591D02*
X35529D01*
X31591Y43400D02*
X35529D01*
Y44660D01*
X31591Y43400D02*
Y44660D01*
D15*
X41450Y20880D02*
G03*
X40950Y20880I-250J0D01*
G01*
X55868Y18896D02*
Y21846D01*
X55368Y18896D02*
X58368D01*
X55368D02*
Y21863D01*
X58368D01*
Y18896D02*
Y21863D01*
X51205Y42372D02*
Y46461D01*
Y42372D02*
X52199D01*
Y46461D01*
X45906Y47524D02*
X45919Y47511D01*
X52199D01*
Y46461D02*
Y47511D01*
X45898Y46461D02*
X52199D01*
X45898D02*
Y47511D01*
X44046Y46441D02*
Y47491D01*
X37890D02*
X44046D01*
X45242D01*
Y42499D02*
Y47491D01*
X44046Y42499D02*
X45242D01*
X44046D02*
Y46441D01*
X37890D02*
X44046D01*
X37890D02*
Y47491D01*
X30157Y46441D02*
Y47491D01*
X36303D01*
X36307Y42517D02*
Y46441D01*
Y42517D02*
X37408D01*
Y47491D01*
X36273D02*
X37408D01*
X30157Y46441D02*
X36307D01*
X36303Y46471D02*
Y47491D01*
X41450Y20880D02*
X43350D01*
X39050D02*
X40950D01*
X39050D02*
Y40880D01*
X43350D01*
Y20880D02*
Y40880D01*
D16*
X57848Y20606D02*
Y21606D01*
X58348D01*
Y20606D02*
Y21606D01*
X57848Y20606D02*
X58348D01*
X58358Y19246D02*
Y20246D01*
X57858D02*
X58358D01*
X57858Y19246D02*
Y20246D01*
Y19246D02*
X58358D01*
X58007Y15016D02*
Y18316D01*
X53257D02*
X58707D01*
X53257Y15016D02*
X58707D01*
X53257D02*
Y18316D01*
X58707Y15016D02*
Y18316D01*
D17*
X52951Y22086D02*
Y22236D01*
X53251Y22086D02*
Y22236D01*
X52951Y23615D02*
Y23765D01*
X53251Y23615D02*
Y23765D01*
X52951Y25143D02*
Y25293D01*
X53251Y25143D02*
Y25293D01*
Y26672D02*
Y26822D01*
X52951Y26672D02*
Y26822D01*
X53251Y28200D02*
Y28350D01*
X52951Y28200D02*
Y28350D01*
X53251Y29729D02*
Y29879D01*
X52951Y29729D02*
Y29879D01*
X53251Y31257D02*
Y31407D01*
X52951Y31257D02*
Y31407D01*
X50327Y20974D02*
X50477D01*
X50327Y21274D02*
X50477D01*
X27426Y44890D02*
X27576D01*
X27426Y44590D02*
X27576D01*
X27426Y43320D02*
X27576D01*
X27426Y43020D02*
X27576D01*
X27426Y44113D02*
X27576D01*
X27426Y43813D02*
X27576D01*
X27426Y42527D02*
X27576D01*
X27426Y42227D02*
X27576D01*
X27426Y40941D02*
X27576D01*
X27426Y40641D02*
X27576D01*
X27426Y40149D02*
X27576D01*
X27426Y39849D02*
X27576D01*
X27426Y41734D02*
X27576D01*
X27426Y41434D02*
X27576D01*
X27426Y39356D02*
X27576D01*
X27426Y39056D02*
X27576D01*
X54413Y38495D02*
X54563D01*
X54413Y38795D02*
X54563D01*
X35334Y46891D02*
Y47041D01*
X35034Y46891D02*
Y47041D01*
X36127Y46891D02*
Y47041D01*
X35827Y46891D02*
Y47041D01*
X33747Y46891D02*
Y47041D01*
X33447Y46891D02*
Y47041D01*
X34540Y46891D02*
Y47041D01*
X34240Y46891D02*
Y47041D01*
X30572Y46891D02*
Y47041D01*
X30272Y46891D02*
Y47041D01*
X32159Y46891D02*
Y47041D01*
X31859Y46891D02*
Y47041D01*
X31366Y46891D02*
Y47041D01*
X31066Y46891D02*
Y47041D01*
X32953Y46891D02*
Y47041D01*
X32653Y46891D02*
Y47041D01*
X40721Y46891D02*
Y47041D01*
X40421Y46891D02*
Y47041D01*
X27426Y26514D02*
X27576D01*
X27426Y26214D02*
X27576D01*
X27426Y25778D02*
X27576D01*
X27426Y25478D02*
X27576D01*
X27426Y27250D02*
X27576D01*
X27426Y26950D02*
X27576D01*
X27426Y25042D02*
X27576D01*
X27426Y24742D02*
X27576D01*
X27426Y28722D02*
X27576D01*
X27426Y28422D02*
X27576D01*
X27426Y23570D02*
X27576D01*
X27426Y23270D02*
X27576D01*
X27426Y24306D02*
X27576D01*
X27426Y24006D02*
X27576D01*
X27426Y36444D02*
X27576D01*
X27426Y36144D02*
X27576D01*
X27426Y35685D02*
X27576D01*
X27426Y35385D02*
X27576D01*
X27426Y37202D02*
X27576D01*
X27426Y36902D02*
X27576D01*
X27426Y32651D02*
X27576D01*
X27426Y32351D02*
X27576D01*
X27426Y33409D02*
X27576D01*
X27426Y33109D02*
X27576D01*
X27426Y34168D02*
X27576D01*
X27426Y33868D02*
X27576D01*
X27426Y31892D02*
X27576D01*
X27426Y31592D02*
X27576D01*
X27426Y27986D02*
X27576D01*
X27426Y27686D02*
X27576D01*
X27426Y34927D02*
X27576D01*
X27426Y34627D02*
X27576D01*
X42311Y46891D02*
Y47041D01*
X42011Y46891D02*
Y47041D01*
X43901Y46891D02*
Y47041D01*
X43601Y46891D02*
Y47041D01*
X39131Y46891D02*
Y47041D01*
X38831Y46891D02*
Y47041D01*
X52951Y20558D02*
Y20708D01*
X53251Y20558D02*
Y20708D01*
X54413Y33121D02*
X54563D01*
X54413Y32821D02*
X54563D01*
X54413Y33931D02*
X54563D01*
X54413Y33631D02*
X54563D01*
X54413Y36363D02*
X54563D01*
X54413Y36063D02*
X54563D01*
X54413Y37174D02*
X54563D01*
X54413Y36874D02*
X54563D01*
X54413Y35552D02*
X54563D01*
X54413Y35252D02*
X54563D01*
X54413Y34742D02*
X54563D01*
X54413Y34442D02*
X54563D01*
X54413Y37984D02*
X54563D01*
X54413Y37684D02*
X54563D01*
X54413Y44057D02*
X54563D01*
X54413Y43757D02*
X54563D01*
X54413Y43226D02*
X54563D01*
X54413Y42926D02*
X54563D01*
X54413Y39899D02*
X54563D01*
X54413Y39599D02*
X54563D01*
X54413Y41562D02*
X54563D01*
X54413Y41262D02*
X54563D01*
X54413Y40731D02*
X54563D01*
X54413Y40431D02*
X54563D01*
X54413Y42394D02*
X54563D01*
X54413Y42094D02*
X54563D01*
X54413Y45420D02*
X54563D01*
X54413Y45720D02*
X54563D01*
X54413Y44889D02*
X54563D01*
X54413Y44589D02*
X54563D01*
X46859Y46911D02*
Y47061D01*
X47159Y46911D02*
Y47061D01*
X46043Y46911D02*
Y47061D01*
X46343Y46911D02*
Y47061D01*
X51754Y46911D02*
Y47061D01*
X52054Y46911D02*
Y47061D01*
X50122Y46911D02*
Y47061D01*
X50422Y46911D02*
Y47061D01*
X49306Y46911D02*
Y47061D01*
X49606Y46911D02*
Y47061D01*
X47675Y46911D02*
Y47061D01*
X47975Y46911D02*
Y47061D01*
X48491Y46911D02*
Y47061D01*
X48791Y46911D02*
Y47061D01*
X50938Y46911D02*
Y47061D01*
X51238Y46911D02*
Y47061D01*
X38036Y46891D02*
Y47041D01*
X38336Y46891D02*
Y47041D01*
X39626Y46891D02*
Y47041D01*
X39926Y46891D02*
Y47041D01*
X41216Y46891D02*
Y47041D01*
X41516Y46891D02*
Y47041D01*
X42806Y46891D02*
Y47041D01*
X43106Y46891D02*
Y47041D01*
D18*
X52252Y28724D02*
X52552D01*
Y28574D01*
X52502Y28524D01*
X52402D01*
X52352Y28574D01*
Y28724D01*
Y28624D02*
X52252Y28524D01*
X52552Y28424D02*
Y28224D01*
X52502D01*
X52302Y28424D01*
X52252D01*
X52502Y28124D02*
X52552Y28074D01*
Y27974D01*
X52502Y27924D01*
X52302D01*
X52252Y27974D01*
Y28074D01*
X52302Y28124D01*
X52502D01*
X27224Y22226D02*
X27024D01*
Y21926D01*
X27224D01*
X27024Y22076D02*
X27124D01*
X27524Y22176D02*
X27474Y22226D01*
X27374D01*
X27324Y22176D01*
Y22126D01*
X27374Y22076D01*
X27474D01*
X27524Y22026D01*
Y21976D01*
X27474Y21926D01*
X27374D01*
X27324Y21976D01*
X27624Y21926D02*
Y22226D01*
X27774D01*
X27824Y22176D01*
Y22076D01*
X27774Y22026D01*
X27624D01*
X27924Y22176D02*
X27974Y22226D01*
X28074D01*
X28124Y22176D01*
Y22126D01*
X28074Y22076D01*
X28124Y22026D01*
Y21976D01*
X28074Y21926D01*
X27974D01*
X27924Y21976D01*
Y22026D01*
X27974Y22076D01*
X27924Y22126D01*
Y22176D01*
X27974Y22076D02*
X28074D01*
X28424Y21926D02*
X28224D01*
X28424Y22126D01*
Y22176D01*
X28374Y22226D01*
X28274D01*
X28224Y22176D01*
X28724Y22226D02*
X28624Y22176D01*
X28524Y22076D01*
Y21976D01*
X28574Y21926D01*
X28674D01*
X28724Y21976D01*
Y22026D01*
X28674Y22076D01*
X28524D01*
X29023Y22226D02*
X28924Y22176D01*
X28824Y22076D01*
Y21976D01*
X28874Y21926D01*
X28974D01*
X29023Y21976D01*
Y22026D01*
X28974Y22076D01*
X28824D01*
X29123D02*
X29323D01*
X29423Y21926D02*
X29523D01*
X29473D01*
Y22226D01*
X29423Y22176D01*
X29873Y21926D02*
X29673D01*
X29873Y22126D01*
Y22176D01*
X29823Y22226D01*
X29723D01*
X29673Y22176D01*
X30173Y22226D02*
X29973D01*
Y21926D01*
X30173D01*
X29973Y22076D02*
X30073D01*
X50196Y24218D02*
Y23968D01*
X50246Y23918D01*
X50346D01*
X50396Y23968D01*
Y24218D01*
X50496Y23918D02*
X50596D01*
X50546D01*
Y24218D01*
X50496Y24168D01*
X40740Y20622D02*
Y20322D01*
X40890D01*
X40940Y20372D01*
Y20422D01*
X40890Y20472D01*
X40740D01*
X40890D01*
X40940Y20522D01*
Y20572D01*
X40890Y20622D01*
X40740D01*
X41040D02*
Y20322D01*
X41240D01*
X41340Y20622D02*
Y20372D01*
X41390Y20322D01*
X41490D01*
X41540Y20372D01*
Y20622D01*
X41840D02*
X41640D01*
Y20322D01*
X41840D01*
X41640Y20472D02*
X41740D01*
X41940Y20322D02*
Y20622D01*
X42090D01*
X42140Y20572D01*
Y20472D01*
X42090Y20422D01*
X41940D01*
X42240Y20622D02*
X42339D01*
X42290D01*
Y20322D01*
X42240D01*
X42339D01*
X42489Y20622D02*
Y20322D01*
X42689D01*
X42789Y20622D02*
Y20322D01*
X42989D01*
X36694Y14544D02*
X36744Y14594D01*
Y14694D01*
X36694Y14744D01*
X36495D01*
X36445Y14694D01*
Y14594D01*
X36495Y14544D01*
X36595D01*
Y14644D01*
X36445Y14444D02*
X36744D01*
X36445Y14244D01*
X36744D01*
Y14144D02*
X36445D01*
Y13994D01*
X36495Y13944D01*
X36694D01*
X36744Y13994D01*
Y14144D01*
X36794Y18484D02*
X36545D01*
X36495Y18434D01*
Y18334D01*
X36545Y18284D01*
X36794D01*
X36495Y18184D02*
X36694D01*
X36794Y18084D01*
X36694Y17984D01*
X36495D01*
X36644D01*
Y18184D01*
X36495Y17884D02*
X36794D01*
Y17734D01*
X36744Y17684D01*
X36644D01*
X36595Y17734D01*
Y17884D01*
Y17784D02*
X36495Y17684D01*
X36794Y17584D02*
Y17385D01*
Y17485D01*
X36495D01*
Y17285D02*
Y17185D01*
Y17235D01*
X36794D01*
X36744Y17285D01*
X36445Y17035D02*
Y16835D01*
X36495Y16735D02*
X36794D01*
Y16585D01*
X36744Y16535D01*
X36644D01*
X36595Y16585D01*
Y16735D01*
Y16635D02*
X36495Y16535D01*
X36794Y16435D02*
X36495Y16235D01*
X36794D02*
X36495Y16435D01*
Y16135D02*
X36694Y15935D01*
X36794Y15835D02*
Y15635D01*
Y15735D01*
X36495D01*
X36794Y15535D02*
X36495Y15335D01*
X36794D02*
X36495Y15535D01*
X32011Y16267D02*
X32061Y16316D01*
Y16416D01*
X32011Y16466D01*
X31811D01*
X31761Y16416D01*
Y16316D01*
X31811Y16267D01*
X31911D01*
Y16366D01*
X31761Y16167D02*
X32061D01*
Y16017D01*
X32011Y15967D01*
X31911D01*
X31861Y16017D01*
Y16167D01*
X32061Y15867D02*
Y15767D01*
Y15817D01*
X31761D01*
Y15867D01*
Y15767D01*
X32061Y15467D02*
Y15567D01*
X32011Y15617D01*
X31811D01*
X31761Y15567D01*
Y15467D01*
X31811Y15417D01*
X32011D01*
X32061Y15467D01*
X32011Y15317D02*
X32061Y15267D01*
Y15167D01*
X32011Y15117D01*
X31811D01*
X31761Y15167D01*
Y15267D01*
X31811Y15317D01*
X32011D01*
X31761Y15017D02*
X31961Y14817D01*
X31761Y14517D02*
Y14717D01*
X31961Y14517D01*
X32011D01*
X32061Y14567D01*
Y14667D01*
X32011Y14717D01*
X31761Y14417D02*
X31961Y14217D01*
X31761Y14117D02*
Y14017D01*
Y14067D01*
X32061D01*
X32011Y14117D01*
X32061Y13667D02*
Y13867D01*
X31911D01*
X31961Y13767D01*
Y13717D01*
X31911Y13667D01*
X31811D01*
X31761Y13717D01*
Y13817D01*
X31811Y13867D01*
X31761Y17515D02*
X32061D01*
Y17365D01*
X32011Y17315D01*
X31911D01*
X31861Y17365D01*
Y17515D01*
Y17415D02*
X31761Y17315D01*
X32061Y17215D02*
X31761Y17015D01*
X32061D02*
X31761Y17215D01*
X32011Y16915D02*
X32061Y16865D01*
Y16765D01*
X32011Y16715D01*
X31811D01*
X31761Y16765D01*
Y16865D01*
X31811Y16915D01*
X32011D01*
X32061Y18531D02*
Y18331D01*
Y18431D01*
X31761D01*
X32061Y18231D02*
X31761Y18031D01*
X32061D02*
X31761Y18231D01*
X32011Y17931D02*
X32061Y17881D01*
Y17781D01*
X32011Y17731D01*
X31811D01*
X31761Y17781D01*
Y17881D01*
X31811Y17931D01*
X32011D01*
X35881Y22485D02*
X35831Y22535D01*
X35731D01*
X35681Y22485D01*
Y22285D01*
X35731Y22235D01*
X35831D01*
X35881Y22285D01*
Y22385D01*
X35781D01*
X35981Y22235D02*
Y22535D01*
X36181Y22235D01*
Y22535D01*
X36281D02*
Y22235D01*
X36431D01*
X36481Y22285D01*
Y22485D01*
X36431Y22535D01*
X36281D01*
X32323Y22485D02*
X32373Y22535D01*
X32473D01*
X32523Y22485D01*
Y22435D01*
X32473Y22385D01*
X32423D01*
X32473D01*
X32523Y22335D01*
Y22285D01*
X32473Y22235D01*
X32373D01*
X32323Y22285D01*
X32623Y22535D02*
Y22335D01*
X32723Y22235D01*
X32823Y22335D01*
Y22535D01*
X32923Y22485D02*
X32973Y22535D01*
X33073D01*
X33123Y22485D01*
Y22435D01*
X33073Y22385D01*
X33023D01*
X33073D01*
X33123Y22335D01*
Y22285D01*
X33073Y22235D01*
X32973D01*
X32923Y22285D01*
X34562Y22535D02*
X34762D01*
X34662D01*
Y22235D01*
X34862Y22535D02*
X35062Y22235D01*
Y22535D02*
X34862Y22235D01*
X35162Y22485D02*
X35212Y22535D01*
X35312D01*
X35362Y22485D01*
Y22285D01*
X35312Y22235D01*
X35212D01*
X35162Y22285D01*
Y22485D01*
X33443Y22235D02*
Y22535D01*
X33593D01*
X33643Y22485D01*
Y22385D01*
X33593Y22335D01*
X33443D01*
X33543D02*
X33643Y22235D01*
X33743Y22535D02*
X33942Y22235D01*
Y22535D02*
X33743Y22235D01*
X34042Y22485D02*
X34092Y22535D01*
X34192D01*
X34242Y22485D01*
Y22285D01*
X34192Y22235D01*
X34092D01*
X34042Y22285D01*
Y22485D01*
X26489Y14195D02*
Y14495D01*
X26639D01*
X26689Y14445D01*
Y14345D01*
X26639Y14295D01*
X26489D01*
X26589D02*
X26689Y14195D01*
X26989Y14495D02*
X26789D01*
Y14195D01*
X26989D01*
X26789Y14345D02*
X26889D01*
X27289Y14445D02*
X27239Y14495D01*
X27139D01*
X27089Y14445D01*
Y14395D01*
X27139Y14345D01*
X27239D01*
X27289Y14295D01*
Y14245D01*
X27239Y14195D01*
X27139D01*
X27089Y14245D01*
X27589Y14495D02*
X27389D01*
Y14195D01*
X27589D01*
X27389Y14345D02*
X27489D01*
X27688Y14495D02*
X27888D01*
X27788D01*
Y14195D01*
X43091Y17020D02*
Y16770D01*
X43141Y16720D01*
X43241D01*
X43291Y16770D01*
Y17020D01*
X43391Y16720D02*
X43491D01*
X43441D01*
Y17020D01*
X43391Y16970D01*
X43841Y16720D02*
X43641D01*
X43841Y16920D01*
Y16970D01*
X43791Y17020D01*
X43691D01*
X43641Y16970D01*
X54779Y30628D02*
X54979D01*
X55029Y30678D01*
Y30778D01*
X54979Y30828D01*
X54779D01*
X54729Y30778D01*
Y30678D01*
X54829Y30728D02*
X54729Y30628D01*
Y30678D02*
X54779Y30628D01*
X54729Y30328D02*
Y30528D01*
X54929Y30328D01*
X54979D01*
X55029Y30378D01*
Y30478D01*
X54979Y30528D01*
X54779Y29103D02*
X54979D01*
X55029Y29153D01*
Y29253D01*
X54979Y29303D01*
X54779D01*
X54729Y29253D01*
Y29153D01*
X54829Y29203D02*
X54729Y29103D01*
Y29153D02*
X54779Y29103D01*
X54729Y28853D02*
X55029D01*
X54879Y29003D01*
Y28803D01*
X54779Y27579D02*
X54979D01*
X55029Y27629D01*
Y27729D01*
X54979Y27779D01*
X54779D01*
X54729Y27729D01*
Y27629D01*
X54829Y27679D02*
X54729Y27579D01*
Y27629D02*
X54779Y27579D01*
X55029Y27279D02*
X54979Y27379D01*
X54879Y27479D01*
X54779D01*
X54729Y27429D01*
Y27329D01*
X54779Y27279D01*
X54829D01*
X54879Y27329D01*
Y27479D01*
X54779Y26054D02*
X54979D01*
X55029Y26104D01*
Y26204D01*
X54979Y26254D01*
X54779D01*
X54729Y26204D01*
Y26104D01*
X54829Y26154D02*
X54729Y26054D01*
Y26104D02*
X54779Y26054D01*
X54979Y25954D02*
X55029Y25904D01*
Y25804D01*
X54979Y25754D01*
X54929D01*
X54879Y25804D01*
X54829Y25754D01*
X54779D01*
X54729Y25804D01*
Y25904D01*
X54779Y25954D01*
X54829D01*
X54879Y25904D01*
X54929Y25954D01*
X54979D01*
X54879Y25904D02*
Y25804D01*
X54779Y24529D02*
X54979D01*
X55029Y24579D01*
Y24679D01*
X54979Y24729D01*
X54779D01*
X54729Y24679D01*
Y24579D01*
X54829Y24629D02*
X54729Y24529D01*
Y24579D02*
X54779Y24529D01*
X55029Y24429D02*
Y24229D01*
X54979D01*
X54779Y24429D01*
X54729D01*
X54779Y23005D02*
X54979D01*
X55029Y23055D01*
Y23155D01*
X54979Y23205D01*
X54779D01*
X54729Y23155D01*
Y23055D01*
X54829Y23105D02*
X54729Y23005D01*
Y23055D02*
X54779Y23005D01*
X55029Y22705D02*
Y22905D01*
X54879D01*
X54929Y22805D01*
Y22755D01*
X54879Y22705D01*
X54779D01*
X54729Y22755D01*
Y22855D01*
X54779Y22905D01*
Y21480D02*
X54979D01*
X55029Y21530D01*
Y21630D01*
X54979Y21680D01*
X54779D01*
X54729Y21630D01*
Y21530D01*
X54829Y21580D02*
X54729Y21480D01*
Y21530D02*
X54779Y21480D01*
X54979Y21380D02*
X55029Y21330D01*
Y21230D01*
X54979Y21180D01*
X54929D01*
X54879Y21230D01*
Y21280D01*
Y21230D01*
X54829Y21180D01*
X54779D01*
X54729Y21230D01*
Y21330D01*
X54779Y21380D01*
Y19956D02*
X54979D01*
X55029Y20005D01*
Y20105D01*
X54979Y20155D01*
X54779D01*
X54729Y20105D01*
Y20005D01*
X54829Y20055D02*
X54729Y19956D01*
Y20005D02*
X54779Y19956D01*
X54729Y19856D02*
Y19756D01*
Y19806D01*
X55029D01*
X54979Y19856D01*
X52252Y24272D02*
X52552D01*
Y24122D01*
X52502Y24072D01*
X52402D01*
X52352Y24122D01*
Y24272D01*
Y24172D02*
X52252Y24072D01*
X52552Y23772D02*
X52502Y23872D01*
X52402Y23972D01*
X52302D01*
X52252Y23922D01*
Y23822D01*
X52302Y23772D01*
X52352D01*
X52402Y23822D01*
Y23972D01*
X52302Y23672D02*
X52252Y23622D01*
Y23522D01*
X52302Y23472D01*
X52502D01*
X52552Y23522D01*
Y23622D01*
X52502Y23672D01*
X52452D01*
X52402Y23622D01*
Y23472D01*
X52252Y25709D02*
X52552D01*
Y25559D01*
X52502Y25509D01*
X52402D01*
X52352Y25559D01*
Y25709D01*
Y25609D02*
X52252Y25509D01*
X52552Y25409D02*
Y25209D01*
X52502D01*
X52302Y25409D01*
X52252D01*
Y25109D02*
Y25009D01*
Y25059D01*
X52552D01*
X52502Y25109D01*
X52252Y27247D02*
X52552D01*
Y27097D01*
X52502Y27047D01*
X52402D01*
X52352Y27097D01*
Y27247D01*
Y27147D02*
X52252Y27047D01*
X52552Y26947D02*
Y26747D01*
X52502D01*
X52302Y26947D01*
X52252D01*
Y26447D02*
Y26647D01*
X52452Y26447D01*
X52502D01*
X52552Y26497D01*
Y26597D01*
X52502Y26647D01*
X52252Y30321D02*
X52552D01*
Y30171D01*
X52502Y30122D01*
X52402D01*
X52352Y30171D01*
Y30321D01*
Y30221D02*
X52252Y30122D01*
X52552Y29822D02*
X52502Y29922D01*
X52402Y30022D01*
X52302D01*
X52252Y29972D01*
Y29872D01*
X52302Y29822D01*
X52352D01*
X52402Y29872D01*
Y30022D01*
X52502Y29722D02*
X52552Y29672D01*
Y29572D01*
X52502Y29522D01*
X52452D01*
X52402Y29572D01*
X52352Y29522D01*
X52302D01*
X52252Y29572D01*
Y29672D01*
X52302Y29722D01*
X52352D01*
X52402Y29672D01*
X52452Y29722D01*
X52502D01*
X52402Y29672D02*
Y29572D01*
X52252Y31859D02*
X52552D01*
Y31709D01*
X52502Y31659D01*
X52402D01*
X52352Y31709D01*
Y31859D01*
Y31759D02*
X52252Y31659D01*
X52552Y31359D02*
X52502Y31459D01*
X52402Y31559D01*
X52302D01*
X52252Y31509D01*
Y31409D01*
X52302Y31359D01*
X52352D01*
X52402Y31409D01*
Y31559D01*
X52552Y31059D02*
X52502Y31159D01*
X52402Y31259D01*
X52302D01*
X52252Y31209D01*
Y31109D01*
X52302Y31059D01*
X52352D01*
X52402Y31109D01*
Y31259D01*
X51344Y45965D02*
Y46265D01*
X51494D01*
X51544Y46215D01*
Y46115D01*
X51494Y46065D01*
X51344D01*
X51444D02*
X51544Y45965D01*
X51644D02*
X51744D01*
X51694D01*
Y46265D01*
X51644Y46215D01*
X44263Y47019D02*
Y47319D01*
X44413D01*
X44463Y47269D01*
Y47169D01*
X44413Y47119D01*
X44263D01*
X44363D02*
X44463Y47019D01*
X44563D02*
X44663D01*
X44613D01*
Y47319D01*
X44563Y47269D01*
X44813D02*
X44863Y47319D01*
X44963D01*
X45013Y47269D01*
Y47219D01*
X44963Y47169D01*
X45013Y47119D01*
Y47069D01*
X44963Y47019D01*
X44863D01*
X44813Y47069D01*
Y47119D01*
X44863Y47169D01*
X44813Y47219D01*
Y47269D01*
X44863Y47169D02*
X44963D01*
X44263Y44525D02*
Y44825D01*
X44413D01*
X44463Y44775D01*
Y44675D01*
X44413Y44625D01*
X44263D01*
X44363D02*
X44463Y44525D01*
X44563Y44775D02*
X44613Y44825D01*
X44713D01*
X44763Y44775D01*
Y44725D01*
X44713Y44675D01*
X44663D01*
X44713D01*
X44763Y44625D01*
Y44575D01*
X44713Y44525D01*
X44613D01*
X44563Y44575D01*
X44863Y44775D02*
X44913Y44825D01*
X45013D01*
X45063Y44775D01*
Y44725D01*
X45013Y44675D01*
X44963D01*
X45013D01*
X45063Y44625D01*
Y44575D01*
X45013Y44525D01*
X44913D01*
X44863Y44575D01*
X36486Y44525D02*
Y44825D01*
X36636D01*
X36686Y44775D01*
Y44675D01*
X36636Y44625D01*
X36486D01*
X36586D02*
X36686Y44525D01*
X36986Y44825D02*
X36786D01*
Y44675D01*
X36886Y44725D01*
X36936D01*
X36986Y44675D01*
Y44575D01*
X36936Y44525D01*
X36836D01*
X36786Y44575D01*
X37236Y44525D02*
Y44825D01*
X37086Y44675D01*
X37286D01*
X36486Y43902D02*
Y44202D01*
X36636D01*
X36686Y44152D01*
Y44052D01*
X36636Y44002D01*
X36486D01*
X36586D02*
X36686Y43902D01*
X36986Y44202D02*
X36786D01*
Y44052D01*
X36886Y44102D01*
X36936D01*
X36986Y44052D01*
Y43952D01*
X36936Y43902D01*
X36836D01*
X36786Y43952D01*
X37086Y44202D02*
X37286D01*
Y44152D01*
X37086Y43952D01*
Y43902D01*
X44263D02*
Y44202D01*
X44413D01*
X44463Y44152D01*
Y44052D01*
X44413Y44002D01*
X44263D01*
X44363D02*
X44463Y43902D01*
X44563Y44152D02*
X44613Y44202D01*
X44713D01*
X44763Y44152D01*
Y44102D01*
X44713Y44052D01*
X44663D01*
X44713D01*
X44763Y44002D01*
Y43952D01*
X44713Y43902D01*
X44613D01*
X44563Y43952D01*
X44863Y44152D02*
X44913Y44202D01*
X45013D01*
X45063Y44152D01*
Y43952D01*
X45013Y43902D01*
X44913D01*
X44863Y43952D01*
Y44152D01*
X44263Y45149D02*
Y45449D01*
X44413D01*
X44463Y45399D01*
Y45299D01*
X44413Y45249D01*
X44263D01*
X44363D02*
X44463Y45149D01*
X44763D02*
X44563D01*
X44763Y45349D01*
Y45399D01*
X44713Y45449D01*
X44613D01*
X44563Y45399D01*
X44863Y45449D02*
X45063D01*
Y45399D01*
X44863Y45199D01*
Y45149D01*
X36486D02*
Y45449D01*
X36636D01*
X36686Y45399D01*
Y45299D01*
X36636Y45249D01*
X36486D01*
X36586D02*
X36686Y45149D01*
X36986Y45449D02*
X36786D01*
Y45299D01*
X36886Y45349D01*
X36936D01*
X36986Y45299D01*
Y45199D01*
X36936Y45149D01*
X36836D01*
X36786Y45199D01*
X37086Y45149D02*
X37186D01*
X37136D01*
Y45449D01*
X37086Y45399D01*
X44263Y42655D02*
Y42955D01*
X44413D01*
X44463Y42905D01*
Y42805D01*
X44413Y42755D01*
X44263D01*
X44363D02*
X44463Y42655D01*
X44563Y42905D02*
X44613Y42955D01*
X44713D01*
X44763Y42905D01*
Y42855D01*
X44713Y42805D01*
X44663D01*
X44713D01*
X44763Y42755D01*
Y42705D01*
X44713Y42655D01*
X44613D01*
X44563Y42705D01*
X44863D02*
X44913Y42655D01*
X45013D01*
X45063Y42705D01*
Y42905D01*
X45013Y42955D01*
X44913D01*
X44863Y42905D01*
Y42855D01*
X44913Y42805D01*
X45063D01*
X44263Y43278D02*
Y43578D01*
X44413D01*
X44463Y43528D01*
Y43428D01*
X44413Y43378D01*
X44263D01*
X44363D02*
X44463Y43278D01*
X44563Y43528D02*
X44613Y43578D01*
X44713D01*
X44763Y43528D01*
Y43478D01*
X44713Y43428D01*
X44663D01*
X44713D01*
X44763Y43378D01*
Y43328D01*
X44713Y43278D01*
X44613D01*
X44563Y43328D01*
X45063Y43578D02*
X44963Y43528D01*
X44863Y43428D01*
Y43328D01*
X44913Y43278D01*
X45013D01*
X45063Y43328D01*
Y43378D01*
X45013Y43428D01*
X44863D01*
X44263Y45772D02*
Y46072D01*
X44413D01*
X44463Y46022D01*
Y45922D01*
X44413Y45872D01*
X44263D01*
X44363D02*
X44463Y45772D01*
X44763D02*
X44563D01*
X44763Y45972D01*
Y46022D01*
X44713Y46072D01*
X44613D01*
X44563Y46022D01*
X45013Y45772D02*
Y46072D01*
X44863Y45922D01*
X45063D01*
X44263Y46396D02*
Y46695D01*
X44413D01*
X44463Y46645D01*
Y46545D01*
X44413Y46496D01*
X44263D01*
X44363D02*
X44463Y46396D01*
X44763D02*
X44563D01*
X44763Y46595D01*
Y46645D01*
X44713Y46695D01*
X44613D01*
X44563Y46645D01*
X44863Y46396D02*
X44963D01*
X44913D01*
Y46695D01*
X44863Y46645D01*
X52252Y22734D02*
X52552D01*
Y22584D01*
X52502Y22534D01*
X52402D01*
X52352Y22584D01*
Y22734D01*
Y22634D02*
X52252Y22534D01*
X52552Y22234D02*
X52502Y22334D01*
X52402Y22434D01*
X52302D01*
X52252Y22384D01*
Y22284D01*
X52302Y22234D01*
X52352D01*
X52402Y22284D01*
Y22434D01*
X52552Y22134D02*
Y21935D01*
X52502D01*
X52302Y22134D01*
X52252D01*
X31089Y28453D02*
Y28203D01*
X31139Y28153D01*
X31239D01*
X31289Y28203D01*
Y28453D01*
X31389Y28203D02*
X31439Y28153D01*
X31539D01*
X31589Y28203D01*
Y28403D01*
X31539Y28453D01*
X31439D01*
X31389Y28403D01*
Y28353D01*
X31439Y28303D01*
X31589D01*
X33442Y17277D02*
X33461D01*
X33499Y17258D01*
X33519Y17239D01*
X33538Y17200D01*
Y17124D01*
X33519Y17086D01*
X33499Y17067D01*
X33461Y17048D01*
X33423D01*
X33385Y17067D01*
X33328Y17105D01*
X33138Y17296D01*
Y17029D01*
X33461Y18241D02*
X33480Y18202D01*
X33538Y18145D01*
X33138D01*
X35349Y18351D02*
X35330Y18389D01*
X35291Y18427D01*
X35253Y18446D01*
X35196Y18465D01*
X35101D01*
X35044Y18446D01*
X35006Y18427D01*
X34968Y18389D01*
X34949Y18351D01*
Y18275D01*
X34968Y18236D01*
X35006Y18198D01*
X35044Y18179D01*
X35101Y18160D01*
X35196D01*
X35253Y18179D01*
X35291Y18198D01*
X35330Y18236D01*
X35349Y18275D01*
Y18351D01*
Y18067D02*
X34949D01*
X35349D02*
X34949Y17800D01*
X35349D02*
X34949D01*
X33538Y16258D02*
Y16048D01*
X33385Y16162D01*
Y16105D01*
X33366Y16067D01*
X33347Y16048D01*
X33290Y16029D01*
X33252D01*
X33195Y16048D01*
X33157Y16086D01*
X33138Y16143D01*
Y16200D01*
X33157Y16258D01*
X33176Y16277D01*
X33214Y16296D01*
X33538Y15105D02*
X33271Y15296D01*
Y15010D01*
X33538Y15105D02*
X33138D01*
X33538Y14067D02*
Y14258D01*
X33366Y14277D01*
X33385Y14258D01*
X33404Y14200D01*
Y14143D01*
X33385Y14086D01*
X33347Y14048D01*
X33290Y14029D01*
X33252D01*
X33195Y14048D01*
X33157Y14086D01*
X33138Y14143D01*
Y14200D01*
X33157Y14258D01*
X33176Y14277D01*
X33214Y14296D01*
X51108Y20974D02*
Y21274D01*
X51258D01*
X51308Y21224D01*
Y21124D01*
X51258Y21074D01*
X51108D01*
X51208D02*
X51308Y20974D01*
X51408Y21274D02*
X51608D01*
Y21224D01*
X51408Y21024D01*
Y20974D01*
X51708Y21024D02*
X51758Y20974D01*
X51858D01*
X51908Y21024D01*
Y21224D01*
X51858Y21274D01*
X51758D01*
X51708Y21224D01*
Y21174D01*
X51758Y21124D01*
X51908D01*
X51192Y20679D02*
Y20380D01*
X51342D01*
X51392Y20429D01*
Y20629D01*
X51342Y20679D01*
X51192D01*
X51492Y20629D02*
X51542Y20679D01*
X51642D01*
X51692Y20629D01*
Y20579D01*
X51642Y20529D01*
X51592D01*
X51642D01*
X51692Y20479D01*
Y20429D01*
X51642Y20380D01*
X51542D01*
X51492Y20429D01*
X50877Y14975D02*
X50677D01*
Y14825D01*
X50777D01*
X50677D01*
Y14675D01*
X50977D02*
X51077D01*
X51027D01*
Y14975D01*
X50977Y14925D01*
X56752Y18717D02*
X56652D01*
X56702D01*
Y18467D01*
X56652Y18417D01*
X56602D01*
X56552Y18467D01*
X56852Y18717D02*
Y18417D01*
X57002D01*
X57052Y18467D01*
Y18667D01*
X57002Y18717D01*
X56852D01*
X57352Y18667D02*
X57302Y18717D01*
X57202D01*
X57152Y18667D01*
Y18467D01*
X57202Y18417D01*
X57302D01*
X57352Y18467D01*
X57452Y18417D02*
X57552D01*
X57502D01*
Y18717D01*
X57452Y18667D01*
X28436Y28428D02*
Y28727D01*
X28586D01*
X28636Y28677D01*
Y28577D01*
X28586Y28528D01*
X28436D01*
X28536D02*
X28636Y28428D01*
X28936Y28727D02*
X28836Y28677D01*
X28736Y28577D01*
Y28478D01*
X28786Y28428D01*
X28886D01*
X28936Y28478D01*
Y28528D01*
X28886Y28577D01*
X28736D01*
X29186Y28428D02*
Y28727D01*
X29036Y28577D01*
X29236D01*
X28436Y27700D02*
Y28000D01*
X28586D01*
X28636Y27950D01*
Y27850D01*
X28586Y27800D01*
X28436D01*
X28536D02*
X28636Y27700D01*
X28936Y28000D02*
X28836Y27950D01*
X28736Y27850D01*
Y27750D01*
X28786Y27700D01*
X28886D01*
X28936Y27750D01*
Y27800D01*
X28886Y27850D01*
X28736D01*
X29036Y27700D02*
X29136D01*
X29086D01*
Y28000D01*
X29036Y27950D01*
X28436Y26956D02*
Y27256D01*
X28586D01*
X28636Y27206D01*
Y27106D01*
X28586Y27056D01*
X28436D01*
X28536D02*
X28636Y26956D01*
X28936Y27256D02*
X28736D01*
Y27106D01*
X28836Y27156D01*
X28886D01*
X28936Y27106D01*
Y27006D01*
X28886Y26956D01*
X28786D01*
X28736Y27006D01*
X29036Y27206D02*
X29086Y27256D01*
X29186D01*
X29236Y27206D01*
Y27156D01*
X29186Y27106D01*
X29236Y27056D01*
Y27006D01*
X29186Y26956D01*
X29086D01*
X29036Y27006D01*
Y27056D01*
X29086Y27106D01*
X29036Y27156D01*
Y27206D01*
X29086Y27106D02*
X29186D01*
X28436Y26212D02*
Y26512D01*
X28586D01*
X28636Y26462D01*
Y26362D01*
X28586Y26312D01*
X28436D01*
X28536D02*
X28636Y26212D01*
X28936Y26512D02*
X28736D01*
Y26362D01*
X28836Y26412D01*
X28886D01*
X28936Y26362D01*
Y26262D01*
X28886Y26212D01*
X28786D01*
X28736Y26262D01*
X29236Y26512D02*
X29036D01*
Y26362D01*
X29136Y26412D01*
X29186D01*
X29236Y26362D01*
Y26262D01*
X29186Y26212D01*
X29086D01*
X29036Y26262D01*
X28436Y25471D02*
Y25770D01*
X28586D01*
X28636Y25721D01*
Y25621D01*
X28586Y25571D01*
X28436D01*
X28536D02*
X28636Y25471D01*
X28936Y25770D02*
X28736D01*
Y25621D01*
X28836Y25671D01*
X28886D01*
X28936Y25621D01*
Y25521D01*
X28886Y25471D01*
X28786D01*
X28736Y25521D01*
X29236Y25471D02*
X29036D01*
X29236Y25671D01*
Y25721D01*
X29186Y25770D01*
X29086D01*
X29036Y25721D01*
X28436Y24742D02*
Y25042D01*
X28586D01*
X28636Y24992D01*
Y24892D01*
X28586Y24842D01*
X28436D01*
X28536D02*
X28636Y24742D01*
X28886D02*
Y25042D01*
X28736Y24892D01*
X28936D01*
X29036Y24792D02*
X29086Y24742D01*
X29186D01*
X29236Y24792D01*
Y24992D01*
X29186Y25042D01*
X29086D01*
X29036Y24992D01*
Y24942D01*
X29086Y24892D01*
X29236D01*
X28436Y24023D02*
Y24323D01*
X28586D01*
X28636Y24273D01*
Y24173D01*
X28586Y24123D01*
X28436D01*
X28536D02*
X28636Y24023D01*
X28886D02*
Y24323D01*
X28736Y24173D01*
X28936D01*
X29236Y24323D02*
X29136Y24273D01*
X29036Y24173D01*
Y24073D01*
X29086Y24023D01*
X29186D01*
X29236Y24073D01*
Y24123D01*
X29186Y24173D01*
X29036D01*
X28436Y23312D02*
Y23612D01*
X28586D01*
X28636Y23562D01*
Y23462D01*
X28586Y23412D01*
X28436D01*
X28536D02*
X28636Y23312D01*
X28886D02*
Y23612D01*
X28736Y23462D01*
X28936D01*
X29036Y23562D02*
X29086Y23612D01*
X29186D01*
X29236Y23562D01*
Y23512D01*
X29186Y23462D01*
X29136D01*
X29186D01*
X29236Y23412D01*
Y23362D01*
X29186Y23312D01*
X29086D01*
X29036Y23362D01*
X43460Y13398D02*
X43410Y13448D01*
X43310D01*
X43260Y13398D01*
Y13198D01*
X43310Y13148D01*
X43410D01*
X43460Y13198D01*
X43710Y13148D02*
Y13448D01*
X43560Y13298D01*
X43760D01*
X51437Y19587D02*
X51387Y19637D01*
X51287D01*
X51237Y19587D01*
Y19387D01*
X51287Y19337D01*
X51387D01*
X51437Y19387D01*
X51536Y19587D02*
X51586Y19637D01*
X51686D01*
X51736Y19587D01*
Y19537D01*
X51686Y19487D01*
X51636D01*
X51686D01*
X51736Y19437D01*
Y19387D01*
X51686Y19337D01*
X51586D01*
X51536Y19387D01*
X50343Y15246D02*
X50043D01*
Y15096D01*
X50093Y15046D01*
X50293D01*
X50343Y15096D01*
Y15246D01*
X50043Y14946D02*
Y14846D01*
Y14896D01*
X50343D01*
X50293Y14946D01*
X50127Y44660D02*
X49877D01*
X49827Y44610D01*
Y44510D01*
X49877Y44460D01*
X50127D01*
X49827Y44160D02*
Y44360D01*
X50027Y44160D01*
X50077D01*
X50127Y44210D01*
Y44310D01*
X50077Y44360D01*
X35927Y44659D02*
X35677D01*
X35627Y44609D01*
Y44509D01*
X35677Y44459D01*
X35927D01*
X35877Y44359D02*
X35927Y44309D01*
Y44209D01*
X35877Y44159D01*
X35827D01*
X35777Y44209D01*
X35727Y44159D01*
X35677D01*
X35627Y44209D01*
Y44309D01*
X35677Y44359D01*
X35727D01*
X35777Y44309D01*
X35827Y44359D01*
X35877D01*
X35777Y44309D02*
Y44209D01*
X50072Y38118D02*
Y37868D01*
X50122Y37818D01*
X50222D01*
X50272Y37868D01*
Y38118D01*
X50372D02*
X50572D01*
Y38068D01*
X50372Y37868D01*
Y37818D01*
X31050Y36911D02*
Y36661D01*
X31100Y36611D01*
X31200D01*
X31250Y36661D01*
Y36911D01*
X31550D02*
X31450Y36861D01*
X31350Y36761D01*
Y36661D01*
X31400Y36611D01*
X31500D01*
X31550Y36661D01*
Y36711D01*
X31500Y36761D01*
X31350D01*
X42657Y44679D02*
X42407D01*
X42357Y44629D01*
Y44529D01*
X42407Y44479D01*
X42657D01*
Y44179D02*
Y44379D01*
X42507D01*
X42557Y44279D01*
Y44229D01*
X42507Y44179D01*
X42407D01*
X42357Y44229D01*
Y44329D01*
X42407Y44379D01*
X50131Y32485D02*
Y32235D01*
X50181Y32185D01*
X50281D01*
X50331Y32235D01*
Y32485D01*
X50580Y32185D02*
Y32485D01*
X50431Y32335D01*
X50630D01*
X31018Y42562D02*
Y42312D01*
X31068Y42262D01*
X31167D01*
X31217Y42312D01*
Y42562D01*
X31317Y42512D02*
X31367Y42562D01*
X31467D01*
X31517Y42512D01*
Y42462D01*
X31467Y42412D01*
X31417D01*
X31467D01*
X31517Y42362D01*
Y42312D01*
X31467Y42262D01*
X31367D01*
X31317Y42312D01*
X52252Y21197D02*
X52552D01*
Y21047D01*
X52502Y20997D01*
X52402D01*
X52352Y21047D01*
Y21197D01*
Y21097D02*
X52252Y20997D01*
X52552Y20697D02*
X52502Y20797D01*
X52402Y20897D01*
X52302D01*
X52252Y20847D01*
Y20747D01*
X52302Y20697D01*
X52352D01*
X52402Y20747D01*
Y20897D01*
X52552Y20397D02*
Y20597D01*
X52402D01*
X52452Y20497D01*
Y20447D01*
X52402Y20397D01*
X52302D01*
X52252Y20447D01*
Y20547D01*
X52302Y20597D01*
X36507Y42655D02*
Y42955D01*
X36657D01*
X36707Y42905D01*
Y42805D01*
X36657Y42755D01*
X36507D01*
X36607D02*
X36707Y42655D01*
X37007Y42955D02*
X36907Y42905D01*
X36807Y42805D01*
Y42705D01*
X36857Y42655D01*
X36957D01*
X37007Y42705D01*
Y42755D01*
X36957Y42805D01*
X36807D01*
X37107Y42905D02*
X37157Y42955D01*
X37257D01*
X37307Y42905D01*
Y42855D01*
X37257Y42805D01*
X37207D01*
X37257D01*
X37307Y42755D01*
Y42705D01*
X37257Y42655D01*
X37157D01*
X37107Y42705D01*
X52860Y39655D02*
Y39955D01*
X53010D01*
X53060Y39905D01*
Y39805D01*
X53010Y39755D01*
X52860D01*
X52960D02*
X53060Y39655D01*
X53360Y39955D02*
X53260Y39905D01*
X53160Y39805D01*
Y39705D01*
X53210Y39655D01*
X53310D01*
X53360Y39705D01*
Y39755D01*
X53310Y39805D01*
X53160D01*
X53660Y39655D02*
X53460D01*
X53660Y39855D01*
Y39905D01*
X53610Y39955D01*
X53510D01*
X53460Y39905D01*
X36486Y43278D02*
Y43578D01*
X36636D01*
X36686Y43528D01*
Y43428D01*
X36636Y43378D01*
X36486D01*
X36586D02*
X36686Y43278D01*
X36986Y43578D02*
X36886Y43528D01*
X36786Y43428D01*
Y43328D01*
X36836Y43278D01*
X36936D01*
X36986Y43328D01*
Y43378D01*
X36936Y43428D01*
X36786D01*
X37086Y43528D02*
X37136Y43578D01*
X37236D01*
X37286Y43528D01*
Y43328D01*
X37236Y43278D01*
X37136D01*
X37086Y43328D01*
Y43528D01*
X52860Y40484D02*
Y40784D01*
X53010D01*
X53060Y40734D01*
Y40634D01*
X53010Y40584D01*
X52860D01*
X52960D02*
X53060Y40484D01*
X53360Y40784D02*
X53160D01*
Y40634D01*
X53260Y40684D01*
X53310D01*
X53360Y40634D01*
Y40534D01*
X53310Y40484D01*
X53210D01*
X53160Y40534D01*
X53460D02*
X53510Y40484D01*
X53610D01*
X53660Y40534D01*
Y40734D01*
X53610Y40784D01*
X53510D01*
X53460Y40734D01*
Y40684D01*
X53510Y40634D01*
X53660D01*
X52860Y41312D02*
Y41612D01*
X53010D01*
X53060Y41562D01*
Y41462D01*
X53010Y41412D01*
X52860D01*
X52960D02*
X53060Y41312D01*
X53360Y41612D02*
X53160D01*
Y41462D01*
X53260Y41512D01*
X53310D01*
X53360Y41462D01*
Y41362D01*
X53310Y41312D01*
X53210D01*
X53160Y41362D01*
X53660Y41612D02*
X53560Y41562D01*
X53460Y41462D01*
Y41362D01*
X53510Y41312D01*
X53610D01*
X53660Y41362D01*
Y41412D01*
X53610Y41462D01*
X53460D01*
X52860Y42140D02*
Y42440D01*
X53010D01*
X53060Y42390D01*
Y42290D01*
X53010Y42240D01*
X52860D01*
X52960D02*
X53060Y42140D01*
X53360Y42440D02*
X53160D01*
Y42290D01*
X53260Y42340D01*
X53310D01*
X53360Y42290D01*
Y42190D01*
X53310Y42140D01*
X53210D01*
X53160Y42190D01*
X53460Y42390D02*
X53510Y42440D01*
X53610D01*
X53660Y42390D01*
Y42340D01*
X53610Y42290D01*
X53560D01*
X53610D01*
X53660Y42240D01*
Y42190D01*
X53610Y42140D01*
X53510D01*
X53460Y42190D01*
X52860Y42969D02*
Y43269D01*
X53010D01*
X53060Y43219D01*
Y43119D01*
X53010Y43069D01*
X52860D01*
X52960D02*
X53060Y42969D01*
X53360Y43269D02*
X53160D01*
Y43119D01*
X53260Y43169D01*
X53310D01*
X53360Y43119D01*
Y43019D01*
X53310Y42969D01*
X53210D01*
X53160Y43019D01*
X53460Y43219D02*
X53510Y43269D01*
X53610D01*
X53660Y43219D01*
Y43019D01*
X53610Y42969D01*
X53510D01*
X53460Y43019D01*
Y43219D01*
X36486Y45772D02*
Y46072D01*
X36636D01*
X36686Y46022D01*
Y45922D01*
X36636Y45872D01*
X36486D01*
X36586D02*
X36686Y45772D01*
X36936D02*
Y46072D01*
X36786Y45922D01*
X36986D01*
X37086Y46022D02*
X37136Y46072D01*
X37236D01*
X37286Y46022D01*
Y45972D01*
X37236Y45922D01*
X37286Y45872D01*
Y45822D01*
X37236Y45772D01*
X37136D01*
X37086Y45822D01*
Y45872D01*
X37136Y45922D01*
X37086Y45972D01*
Y46022D01*
X37136Y45922D02*
X37236D01*
X52860Y43797D02*
Y44097D01*
X53010D01*
X53060Y44047D01*
Y43947D01*
X53010Y43897D01*
X52860D01*
X52960D02*
X53060Y43797D01*
X53310D02*
Y44097D01*
X53160Y43947D01*
X53360D01*
X53460Y44097D02*
X53660D01*
Y44047D01*
X53460Y43847D01*
Y43797D01*
X36486Y46396D02*
Y46695D01*
X36636D01*
X36686Y46645D01*
Y46545D01*
X36636Y46496D01*
X36486D01*
X36586D02*
X36686Y46396D01*
X36936D02*
Y46695D01*
X36786Y46545D01*
X36986D01*
X37286Y46695D02*
X37086D01*
Y46545D01*
X37186Y46595D01*
X37236D01*
X37286Y46545D01*
Y46446D01*
X37236Y46396D01*
X37136D01*
X37086Y46446D01*
X52860Y44625D02*
Y44925D01*
X53010D01*
X53060Y44875D01*
Y44775D01*
X53010Y44725D01*
X52860D01*
X52960D02*
X53060Y44625D01*
X53310D02*
Y44925D01*
X53160Y44775D01*
X53360D01*
X53610Y44625D02*
Y44925D01*
X53460Y44775D01*
X53660D01*
X36486Y47019D02*
Y47319D01*
X36636D01*
X36686Y47269D01*
Y47169D01*
X36636Y47119D01*
X36486D01*
X36586D02*
X36686Y47019D01*
X36936D02*
Y47319D01*
X36786Y47169D01*
X36986D01*
X37286Y47019D02*
X37086D01*
X37286Y47219D01*
Y47269D01*
X37236Y47319D01*
X37136D01*
X37086Y47269D01*
X52860Y45454D02*
Y45754D01*
X53010D01*
X53060Y45704D01*
Y45604D01*
X53010Y45554D01*
X52860D01*
X52960D02*
X53060Y45454D01*
X53310D02*
Y45754D01*
X53160Y45604D01*
X53360D01*
X53460Y45454D02*
X53560D01*
X53510D01*
Y45754D01*
X53460Y45704D01*
X28345Y36908D02*
Y37208D01*
X28494D01*
X28544Y37158D01*
Y37058D01*
X28494Y37008D01*
X28345D01*
X28444D02*
X28544Y36908D01*
X28794D02*
Y37208D01*
X28644Y37058D01*
X28844D01*
X28944Y37158D02*
X28994Y37208D01*
X29094D01*
X29144Y37158D01*
Y36958D01*
X29094Y36908D01*
X28994D01*
X28944Y36958D01*
Y37158D01*
X52860Y32850D02*
Y33150D01*
X53010D01*
X53060Y33100D01*
Y33000D01*
X53010Y32950D01*
X52860D01*
X52960D02*
X53060Y32850D01*
X53160Y33100D02*
X53210Y33150D01*
X53310D01*
X53360Y33100D01*
Y33050D01*
X53310Y33000D01*
X53260D01*
X53310D01*
X53360Y32950D01*
Y32900D01*
X53310Y32850D01*
X53210D01*
X53160Y32900D01*
X53460Y33100D02*
X53510Y33150D01*
X53610D01*
X53660Y33100D01*
Y33050D01*
X53610Y33000D01*
X53660Y32950D01*
Y32900D01*
X53610Y32850D01*
X53510D01*
X53460Y32900D01*
Y32950D01*
X53510Y33000D01*
X53460Y33050D01*
Y33100D01*
X53510Y33000D02*
X53610D01*
X28345Y36144D02*
Y36444D01*
X28494D01*
X28544Y36394D01*
Y36294D01*
X28494Y36244D01*
X28345D01*
X28444D02*
X28544Y36144D01*
X28644Y36394D02*
X28694Y36444D01*
X28794D01*
X28844Y36394D01*
Y36344D01*
X28794Y36294D01*
X28744D01*
X28794D01*
X28844Y36244D01*
Y36194D01*
X28794Y36144D01*
X28694D01*
X28644Y36194D01*
X28944Y36444D02*
X29144D01*
Y36394D01*
X28944Y36194D01*
Y36144D01*
X52860Y33656D02*
Y33956D01*
X53010D01*
X53060Y33906D01*
Y33806D01*
X53010Y33756D01*
X52860D01*
X52960D02*
X53060Y33656D01*
X53160Y33906D02*
X53210Y33956D01*
X53310D01*
X53360Y33906D01*
Y33856D01*
X53310Y33806D01*
X53260D01*
X53310D01*
X53360Y33756D01*
Y33706D01*
X53310Y33656D01*
X53210D01*
X53160Y33706D01*
X53660Y33956D02*
X53460D01*
Y33806D01*
X53560Y33856D01*
X53610D01*
X53660Y33806D01*
Y33706D01*
X53610Y33656D01*
X53510D01*
X53460Y33706D01*
X28345Y35347D02*
Y35647D01*
X28494D01*
X28544Y35597D01*
Y35497D01*
X28494Y35447D01*
X28345D01*
X28444D02*
X28544Y35347D01*
X28644Y35597D02*
X28694Y35647D01*
X28794D01*
X28844Y35597D01*
Y35547D01*
X28794Y35497D01*
X28744D01*
X28794D01*
X28844Y35447D01*
Y35397D01*
X28794Y35347D01*
X28694D01*
X28644Y35397D01*
X29094Y35347D02*
Y35647D01*
X28944Y35497D01*
X29144D01*
X52860Y34463D02*
Y34763D01*
X53010D01*
X53060Y34713D01*
Y34613D01*
X53010Y34563D01*
X52860D01*
X52960D02*
X53060Y34463D01*
X53160Y34713D02*
X53210Y34763D01*
X53310D01*
X53360Y34713D01*
Y34663D01*
X53310Y34613D01*
X53260D01*
X53310D01*
X53360Y34563D01*
Y34513D01*
X53310Y34463D01*
X53210D01*
X53160Y34513D01*
X53660Y34463D02*
X53460D01*
X53660Y34663D01*
Y34713D01*
X53610Y34763D01*
X53510D01*
X53460Y34713D01*
X28345Y34590D02*
Y34890D01*
X28494D01*
X28544Y34840D01*
Y34740D01*
X28494Y34690D01*
X28345D01*
X28444D02*
X28544Y34590D01*
X28644Y34840D02*
X28694Y34890D01*
X28794D01*
X28844Y34840D01*
Y34790D01*
X28794Y34740D01*
X28744D01*
X28794D01*
X28844Y34690D01*
Y34640D01*
X28794Y34590D01*
X28694D01*
X28644Y34640D01*
X28944Y34590D02*
X29044D01*
X28994D01*
Y34890D01*
X28944Y34840D01*
X52860Y35269D02*
Y35569D01*
X53010D01*
X53060Y35519D01*
Y35419D01*
X53010Y35369D01*
X52860D01*
X52960D02*
X53060Y35269D01*
X53360D02*
X53160D01*
X53360Y35469D01*
Y35519D01*
X53310Y35569D01*
X53210D01*
X53160Y35519D01*
X53460Y35319D02*
X53510Y35269D01*
X53610D01*
X53660Y35319D01*
Y35519D01*
X53610Y35569D01*
X53510D01*
X53460Y35519D01*
Y35469D01*
X53510Y35419D01*
X53660D01*
X28345Y33868D02*
Y34168D01*
X28494D01*
X28544Y34118D01*
Y34018D01*
X28494Y33968D01*
X28345D01*
X28444D02*
X28544Y33868D01*
X28844D02*
X28644D01*
X28844Y34068D01*
Y34118D01*
X28794Y34168D01*
X28694D01*
X28644Y34118D01*
X28944D02*
X28994Y34168D01*
X29094D01*
X29144Y34118D01*
Y34068D01*
X29094Y34018D01*
X29144Y33968D01*
Y33918D01*
X29094Y33868D01*
X28994D01*
X28944Y33918D01*
Y33968D01*
X28994Y34018D01*
X28944Y34068D01*
Y34118D01*
X28994Y34018D02*
X29094D01*
X52860Y36075D02*
Y36375D01*
X53010D01*
X53060Y36325D01*
Y36225D01*
X53010Y36175D01*
X52860D01*
X52960D02*
X53060Y36075D01*
X53360D02*
X53160D01*
X53360Y36275D01*
Y36325D01*
X53310Y36375D01*
X53210D01*
X53160Y36325D01*
X53660Y36375D02*
X53560Y36325D01*
X53460Y36225D01*
Y36125D01*
X53510Y36075D01*
X53610D01*
X53660Y36125D01*
Y36175D01*
X53610Y36225D01*
X53460D01*
X28345Y33109D02*
Y33409D01*
X28494D01*
X28544Y33359D01*
Y33259D01*
X28494Y33209D01*
X28345D01*
X28444D02*
X28544Y33109D01*
X28844D02*
X28644D01*
X28844Y33309D01*
Y33359D01*
X28794Y33409D01*
X28694D01*
X28644Y33359D01*
X29144Y33409D02*
X28944D01*
Y33259D01*
X29044Y33309D01*
X29094D01*
X29144Y33259D01*
Y33159D01*
X29094Y33109D01*
X28994D01*
X28944Y33159D01*
X52860Y36882D02*
Y37182D01*
X53010D01*
X53060Y37132D01*
Y37032D01*
X53010Y36982D01*
X52860D01*
X52960D02*
X53060Y36882D01*
X53360D02*
X53160D01*
X53360Y37082D01*
Y37132D01*
X53310Y37182D01*
X53210D01*
X53160Y37132D01*
X53460D02*
X53510Y37182D01*
X53610D01*
X53660Y37132D01*
Y37082D01*
X53610Y37032D01*
X53560D01*
X53610D01*
X53660Y36982D01*
Y36932D01*
X53610Y36882D01*
X53510D01*
X53460Y36932D01*
X28345Y32351D02*
Y32651D01*
X28494D01*
X28544Y32601D01*
Y32501D01*
X28494Y32451D01*
X28345D01*
X28444D02*
X28544Y32351D01*
X28844D02*
X28644D01*
X28844Y32551D01*
Y32601D01*
X28794Y32651D01*
X28694D01*
X28644Y32601D01*
X29144Y32351D02*
X28944D01*
X29144Y32551D01*
Y32601D01*
X29094Y32651D01*
X28994D01*
X28944Y32601D01*
X52860Y37688D02*
Y37988D01*
X53010D01*
X53060Y37938D01*
Y37838D01*
X53010Y37788D01*
X52860D01*
X52960D02*
X53060Y37688D01*
X53360D02*
X53160D01*
X53360Y37888D01*
Y37938D01*
X53310Y37988D01*
X53210D01*
X53160Y37938D01*
X53460D02*
X53510Y37988D01*
X53610D01*
X53660Y37938D01*
Y37738D01*
X53610Y37688D01*
X53510D01*
X53460Y37738D01*
Y37938D01*
X28345Y31592D02*
Y31892D01*
X28494D01*
X28544Y31842D01*
Y31742D01*
X28494Y31692D01*
X28345D01*
X28444D02*
X28544Y31592D01*
X28644D02*
X28744D01*
X28694D01*
Y31892D01*
X28644Y31842D01*
X28894Y31642D02*
X28944Y31592D01*
X29044D01*
X29094Y31642D01*
Y31842D01*
X29044Y31892D01*
X28944D01*
X28894Y31842D01*
Y31792D01*
X28944Y31742D01*
X29094D01*
X52924Y38495D02*
Y38794D01*
X53074D01*
X53124Y38744D01*
Y38644D01*
X53074Y38594D01*
X52924D01*
X53024D02*
X53124Y38495D01*
X53224D02*
X53324D01*
X53274D01*
Y38794D01*
X53224Y38744D01*
X53474Y38794D02*
X53673D01*
Y38744D01*
X53474Y38545D01*
Y38495D01*
X28246Y44659D02*
Y44959D01*
X28396D01*
X28446Y44909D01*
Y44809D01*
X28396Y44759D01*
X28246D01*
X28346D02*
X28446Y44659D01*
X28546D02*
X28646D01*
X28596D01*
Y44959D01*
X28546Y44909D01*
X28996Y44959D02*
X28896Y44909D01*
X28796Y44809D01*
Y44709D01*
X28846Y44659D01*
X28946D01*
X28996Y44709D01*
Y44759D01*
X28946Y44809D01*
X28796D01*
X51344Y42511D02*
Y42811D01*
X51494D01*
X51544Y42761D01*
Y42661D01*
X51494Y42611D01*
X51344D01*
X51444D02*
X51544Y42511D01*
X51644D02*
X51744D01*
X51694D01*
Y42811D01*
X51644Y42761D01*
X52094Y42811D02*
X51894D01*
Y42661D01*
X51994Y42711D01*
X52044D01*
X52094Y42661D01*
Y42561D01*
X52044Y42511D01*
X51944D01*
X51894Y42561D01*
X28246Y43885D02*
Y44185D01*
X28396D01*
X28446Y44135D01*
Y44035D01*
X28396Y43985D01*
X28246D01*
X28346D02*
X28446Y43885D01*
X28546D02*
X28646D01*
X28596D01*
Y44185D01*
X28546Y44135D01*
X28946Y43885D02*
Y44185D01*
X28796Y44035D01*
X28996D01*
X51344Y43005D02*
Y43305D01*
X51494D01*
X51544Y43255D01*
Y43155D01*
X51494Y43105D01*
X51344D01*
X51444D02*
X51544Y43005D01*
X51644D02*
X51744D01*
X51694D01*
Y43305D01*
X51644Y43255D01*
X51894D02*
X51944Y43305D01*
X52044D01*
X52094Y43255D01*
Y43205D01*
X52044Y43155D01*
X51994D01*
X52044D01*
X52094Y43105D01*
Y43055D01*
X52044Y43005D01*
X51944D01*
X51894Y43055D01*
X28246Y43013D02*
Y43313D01*
X28396D01*
X28446Y43263D01*
Y43163D01*
X28396Y43113D01*
X28246D01*
X28346D02*
X28446Y43013D01*
X28546D02*
X28646D01*
X28596D01*
Y43313D01*
X28546Y43263D01*
X28996Y43013D02*
X28796D01*
X28996Y43213D01*
Y43263D01*
X28946Y43313D01*
X28846D01*
X28796Y43263D01*
X51344Y43498D02*
Y43798D01*
X51494D01*
X51544Y43748D01*
Y43648D01*
X51494Y43598D01*
X51344D01*
X51444D02*
X51544Y43498D01*
X51644D02*
X51744D01*
X51694D01*
Y43798D01*
X51644Y43748D01*
X51894Y43498D02*
X51994D01*
X51944D01*
Y43798D01*
X51894Y43748D01*
X28246Y42196D02*
Y42496D01*
X28396D01*
X28446Y42446D01*
Y42346D01*
X28396Y42296D01*
X28246D01*
X28346D02*
X28446Y42196D01*
X28546D02*
X28646D01*
X28596D01*
Y42496D01*
X28546Y42446D01*
X28796D02*
X28846Y42496D01*
X28946D01*
X28996Y42446D01*
Y42246D01*
X28946Y42196D01*
X28846D01*
X28796Y42246D01*
Y42446D01*
X51344Y43992D02*
Y44292D01*
X51494D01*
X51544Y44242D01*
Y44142D01*
X51494Y44092D01*
X51344D01*
X51444D02*
X51544Y43992D01*
X51644Y44042D02*
X51694Y43992D01*
X51794D01*
X51844Y44042D01*
Y44242D01*
X51794Y44292D01*
X51694D01*
X51644Y44242D01*
Y44192D01*
X51694Y44142D01*
X51844D01*
X28246Y41400D02*
Y41700D01*
X28396D01*
X28446Y41650D01*
Y41550D01*
X28396Y41500D01*
X28246D01*
X28346D02*
X28446Y41400D01*
X28546Y41650D02*
X28596Y41700D01*
X28696D01*
X28746Y41650D01*
Y41600D01*
X28696Y41550D01*
X28746Y41500D01*
Y41450D01*
X28696Y41400D01*
X28596D01*
X28546Y41450D01*
Y41500D01*
X28596Y41550D01*
X28546Y41600D01*
Y41650D01*
X28596Y41550D02*
X28696D01*
X51344Y44485D02*
Y44785D01*
X51494D01*
X51544Y44735D01*
Y44635D01*
X51494Y44585D01*
X51344D01*
X51444D02*
X51544Y44485D01*
X51644Y44785D02*
X51844D01*
Y44735D01*
X51644Y44535D01*
Y44485D01*
X28246Y40557D02*
Y40856D01*
X28396D01*
X28446Y40806D01*
Y40706D01*
X28396Y40656D01*
X28246D01*
X28346D02*
X28446Y40557D01*
X28746Y40856D02*
X28646Y40806D01*
X28546Y40706D01*
Y40606D01*
X28596Y40557D01*
X28696D01*
X28746Y40606D01*
Y40656D01*
X28696Y40706D01*
X28546D01*
X51344Y44978D02*
Y45278D01*
X51494D01*
X51544Y45228D01*
Y45128D01*
X51494Y45078D01*
X51344D01*
X51444D02*
X51544Y44978D01*
X51844Y45278D02*
X51644D01*
Y45128D01*
X51744Y45178D01*
X51794D01*
X51844Y45128D01*
Y45028D01*
X51794Y44978D01*
X51694D01*
X51644Y45028D01*
X28246Y39736D02*
Y40036D01*
X28396D01*
X28446Y39986D01*
Y39886D01*
X28396Y39836D01*
X28246D01*
X28346D02*
X28446Y39736D01*
X28696D02*
Y40036D01*
X28546Y39886D01*
X28746D01*
X51344Y45472D02*
Y45772D01*
X51494D01*
X51544Y45722D01*
Y45622D01*
X51494Y45572D01*
X51344D01*
X51444D02*
X51544Y45472D01*
X51644Y45722D02*
X51694Y45772D01*
X51794D01*
X51844Y45722D01*
Y45672D01*
X51794Y45622D01*
X51744D01*
X51794D01*
X51844Y45572D01*
Y45522D01*
X51794Y45472D01*
X51694D01*
X51644Y45522D01*
X28166Y39002D02*
Y39302D01*
X28316D01*
X28366Y39252D01*
Y39152D01*
X28316Y39102D01*
X28166D01*
X28266D02*
X28366Y39002D01*
X28665D02*
X28466D01*
X28665Y39202D01*
Y39252D01*
X28615Y39302D01*
X28516D01*
X28466Y39252D01*
X43627Y19555D02*
X43327D01*
Y19355D01*
Y19255D02*
Y19155D01*
Y19205D01*
X43627D01*
X43577Y19255D01*
X46513Y21581D02*
Y21281D01*
X46663D01*
X46713Y21331D01*
Y21531D01*
X46663Y21581D01*
X46513D01*
X47013Y21281D02*
X46813D01*
X47013Y21481D01*
Y21531D01*
X46963Y21581D01*
X46863D01*
X46813Y21531D01*
M02*
