G04*
G04 #@! TF.GenerationSoftware,Altium Limited,Altium Designer,22.7.1 (60)*
G04*
G04 Layer_Color=16711935*
%FSLAX24Y24*%
%MOIN*%
G70*
G04*
G04 #@! TF.SameCoordinates,1DD6C3B8-EF33-4A04-8B88-EBD51A11C9DD*
G04*
G04*
G04 #@! TF.FilePolarity,Negative*
G04*
G01*
G75*
%ADD41R,0.0454X0.0395*%
%ADD43R,0.0395X0.0454*%
%ADD49C,0.0880*%
%ADD50R,0.0880X0.0880*%
%ADD51C,0.0671*%
%ADD52R,0.0671X0.0671*%
%ADD53R,0.0671X0.0671*%
%ADD54R,0.1080X0.1680*%
%ADD55R,0.1680X0.1080*%
%ADD56C,0.1460*%
%ADD57R,0.1080X0.0580*%
%ADD58O,0.1080X0.0580*%
%ADD59C,0.0592*%
G04:AMPARAMS|DCode=60|XSize=59.2mil|YSize=59.2mil|CornerRadius=16.8mil|HoleSize=0mil|Usage=FLASHONLY|Rotation=180.000|XOffset=0mil|YOffset=0mil|HoleType=Round|Shape=RoundedRectangle|*
%AMROUNDEDRECTD60*
21,1,0.0592,0.0256,0,0,180.0*
21,1,0.0256,0.0592,0,0,180.0*
1,1,0.0336,-0.0128,0.0128*
1,1,0.0336,0.0128,0.0128*
1,1,0.0336,0.0128,-0.0128*
1,1,0.0336,-0.0128,-0.0128*
%
%ADD60ROUNDEDRECTD60*%
G04:AMPARAMS|DCode=61|XSize=59.2mil|YSize=59.2mil|CornerRadius=16.8mil|HoleSize=0mil|Usage=FLASHONLY|Rotation=90.000|XOffset=0mil|YOffset=0mil|HoleType=Round|Shape=RoundedRectangle|*
%AMROUNDEDRECTD61*
21,1,0.0592,0.0256,0,0,90.0*
21,1,0.0256,0.0592,0,0,90.0*
1,1,0.0336,0.0128,0.0128*
1,1,0.0336,0.0128,-0.0128*
1,1,0.0336,-0.0128,-0.0128*
1,1,0.0336,-0.0128,0.0128*
%
%ADD61ROUNDEDRECTD61*%
D41*
X26279Y17886D02*
D03*
Y17334D02*
D03*
X29425Y19154D02*
D03*
Y18603D02*
D03*
X27850Y19160D02*
D03*
Y18609D02*
D03*
X28637Y19154D02*
D03*
Y18603D02*
D03*
D43*
X55914Y21074D02*
D03*
X55363D02*
D03*
X30767Y17029D02*
D03*
X30216D02*
D03*
Y17880D02*
D03*
X30767D02*
D03*
X26284Y18609D02*
D03*
X25733D02*
D03*
D49*
X56868Y21074D02*
D03*
D50*
Y19696D02*
D03*
D51*
X35810Y20180D02*
D03*
X34810D02*
D03*
X33810D02*
D03*
X25150Y31018D02*
D03*
Y32018D02*
D03*
Y34018D02*
D03*
Y36018D02*
D03*
Y37018D02*
D03*
Y35018D02*
D03*
Y33018D02*
D03*
X25170Y22628D02*
D03*
Y23628D02*
D03*
Y25628D02*
D03*
Y27628D02*
D03*
Y28628D02*
D03*
Y26628D02*
D03*
Y24628D02*
D03*
X25147Y41416D02*
D03*
Y43416D02*
D03*
Y45416D02*
D03*
Y44416D02*
D03*
Y42416D02*
D03*
Y40416D02*
D03*
Y39416D02*
D03*
X31184Y49136D02*
D03*
X33184D02*
D03*
X35184D02*
D03*
X34184D02*
D03*
X32184D02*
D03*
X30184D02*
D03*
X29184D02*
D03*
X39597Y49138D02*
D03*
X41597D02*
D03*
X43597D02*
D03*
X42597D02*
D03*
X40597D02*
D03*
X38597D02*
D03*
X37597D02*
D03*
X48009Y49136D02*
D03*
X50009D02*
D03*
X52009D02*
D03*
X51009D02*
D03*
X49009D02*
D03*
X47009D02*
D03*
X46009D02*
D03*
X56868Y27803D02*
D03*
Y25803D02*
D03*
Y23803D02*
D03*
Y24803D02*
D03*
Y26803D02*
D03*
Y28803D02*
D03*
Y29803D02*
D03*
Y36213D02*
D03*
Y34213D02*
D03*
Y32213D02*
D03*
Y33213D02*
D03*
Y35213D02*
D03*
Y37213D02*
D03*
Y38213D02*
D03*
X56862Y44581D02*
D03*
Y42581D02*
D03*
Y40581D02*
D03*
Y41581D02*
D03*
Y43581D02*
D03*
Y45581D02*
D03*
Y46581D02*
D03*
D52*
X32810Y20180D02*
D03*
X36184Y49136D02*
D03*
X44597Y49138D02*
D03*
X53009Y49136D02*
D03*
D53*
X25150Y38018D02*
D03*
X25170Y29628D02*
D03*
X25147Y46416D02*
D03*
X56868Y22803D02*
D03*
Y31213D02*
D03*
X56862Y39581D02*
D03*
D54*
X53207Y16516D02*
D03*
X55707D02*
D03*
D55*
X54207Y18516D02*
D03*
D56*
X56753Y13848D02*
D03*
X25288Y13740D02*
D03*
X56744Y49018D02*
D03*
X25193Y49215D02*
D03*
D57*
X44200Y21380D02*
D03*
D58*
Y22380D02*
D03*
Y23380D02*
D03*
Y24380D02*
D03*
Y25380D02*
D03*
Y26380D02*
D03*
Y27380D02*
D03*
Y28380D02*
D03*
Y29380D02*
D03*
Y30380D02*
D03*
Y31380D02*
D03*
Y32380D02*
D03*
Y33380D02*
D03*
Y34380D02*
D03*
Y35380D02*
D03*
Y36380D02*
D03*
Y37380D02*
D03*
Y38380D02*
D03*
Y39380D02*
D03*
Y40380D02*
D03*
X38200Y21380D02*
D03*
Y22380D02*
D03*
Y23380D02*
D03*
Y24380D02*
D03*
Y25380D02*
D03*
Y26380D02*
D03*
Y27380D02*
D03*
Y28380D02*
D03*
Y29380D02*
D03*
Y30380D02*
D03*
Y31380D02*
D03*
Y32380D02*
D03*
Y33380D02*
D03*
Y34380D02*
D03*
Y35380D02*
D03*
Y36380D02*
D03*
Y37380D02*
D03*
Y38380D02*
D03*
Y39380D02*
D03*
Y40380D02*
D03*
D59*
X32740Y16150D02*
D03*
Y17150D02*
D03*
Y18150D02*
D03*
Y15150D02*
D03*
Y14150D02*
D03*
X35740D02*
D03*
Y15150D02*
D03*
Y16150D02*
D03*
Y17150D02*
D03*
Y18150D02*
D03*
X50592Y17952D02*
D03*
X42020Y14066D02*
D03*
D60*
X49214Y17952D02*
D03*
D61*
X42020Y15444D02*
D03*
M02*
