M48
;Layer_Color=9474304
;FILE_FORMAT=2:4
INCH,LZ
;TYPE=PLATED
T1F00S00C0.0157
T2F00S00C0.0300
T3F00S00C0.0315
T4F00S00C0.0394
T5F00S00C0.0450
T7F00S00C0.1181
%
T01
X029Y014
X03
X030767Y01466
X032Y014
X034
X035
X0345Y015
X0335
X0365
X0375
X0385
X0395
X04Y014
X041
X043
X044
X039
X038
X037
X048
X0515Y015
X0525
X0545
X0555
X0565
X0575
X055Y014
X054
Y016
X0545Y017
X0565
X0575
X057Y018
X056
X0565Y019
X0575
X0555
X055368Y020155
X0545Y021
Y023
X0555
X055Y024
Y026
X0555Y027
X0575
Y029
Y031
X0555Y029
X0545
X0535
X050548Y029321
X051Y03
X051055Y030448
X0515Y031
X0505
X0485
X0475
X047Y03
X0475Y029
X0485
X049Y03
X047Y028
Y026
X048
X048001Y026581
X047989Y024594
X0475Y025
Y023
X0485
X0495
X049Y022
X048
X047
X0475Y021
X0495
X050121Y021863
X05Y02
X051
X0515Y019
X0525
X053Y018
X052Y016
X0505Y017
Y019
X049Y02
X0475Y017
X048Y016
X057
Y022
X0575Y023
Y025
X053Y026
X0535Y023
X0525
X04985Y02557
X0465Y025
X046Y026
X045
Y028
X043
X042
X041
X0415Y029
X0425
X0435
X043Y03
X042
X041
X0415Y031
X0425
X0435
X0465
Y029
Y023
X0455
X046Y022
X045
Y024
X043
X0435Y025
Y023
X0425
X0415
X042Y022
X043
X0425Y021
X0415
X042Y02
X043
X039
X038
X037
X0375Y019
X0385
X0365
X0355
X0345
X035Y018
X034
X0345Y017
X0335
X034Y016
X035
X037
X038
X039
X0395Y017
X0405
X044Y016
X0465Y017
X03949Y020779
X039Y022
Y024
Y026
X041
X042
X0425Y027
X0415
X0405
Y029
Y031
X039Y03
Y028
X036
X035
X034
X0345Y029
X0355
X036Y03
X035
X034
X033
X0345Y031
X0355
X0375
Y025
X037Y024
X0375Y023
X0365
X0355
X0345
X0335
X0325
X0315
X03167Y02431
X032117Y026833
X0335Y027
X0345
X0355
X035Y026
X034
X033566Y025836
X035Y022
X036
X037
X0405Y025
X031249Y024836
X031Y024
X03
X0305Y023
X0295
X0285
X0275
X02785Y020298
X028637Y01994
X029435Y019583
X0295Y017
X0285
X0275
X028Y016
X029
X030216Y015848
X027Y016
X026279Y016245
X0255Y017
X024704Y016242
X025Y02
X026
Y026
Y028
Y03
X027
X028
X029
X03
X031
X0305Y029
X0295
X029367Y03069
X0275Y031
X0265
X0275Y029
X029Y026
X031249Y026311
X031Y032
X031247Y03238
X03Y032
Y038
X029
X029228Y03758
X028Y038
X027
X031216Y038018
X031Y044
X031247Y044583
X0305Y045
X029842Y045473
X029Y044
X028Y046
X027
X031818Y043856
X03432Y04433
X0339Y04199
X035Y042
Y04
X036
X037
X0375Y039
X037Y038
X036
X035
X034
X033
X0317Y038445
X0315Y037
X03168Y03527
X0335Y035
X033566Y034294
X0345Y035
X0355
X036Y036
X037
X0375Y037
X0395
X04Y038
X039
X0395Y039
X0405
X0415
X042Y04
X041
X04
X039
X04004Y042153
X041Y042
X042
X0425Y043
X0435
X0455
X04601Y04391
X045242Y044679
X0455Y045
X04429Y045497
X0435Y045
X04104Y04391
X03854Y04432
X037911Y044688
X0375Y045
X037089Y045496
X0365Y045
Y043
X0375
X0355Y039
X0345
X034Y04
X033566Y039945
X0335Y041
X032121Y040951
X0345Y037
X0355
X035Y036
X034
X0345Y033
X0355
X036Y032
X037
X0375Y033
X037Y034
X0375Y035
X039Y036
X041
X042
X043
X0435Y037
X0425
Y035
X0435
X043Y034
X042
X041
X0415Y035
X0405
Y033
X0415
X0425
X0435
X043Y032
X042
X041
X039
Y034
X045
Y036
Y038
Y04
X0465Y039
Y037
Y033
X045Y032
X0435Y039
X035Y032
X034
X033
X032106Y032784
X0475Y033
X048Y034
X048001Y03482
X047Y034
Y036
X0475Y037
X047Y038
X0475Y039
X048Y04
X048001Y04052
X047Y04
X04751Y042153
X050215Y04202
X050634Y042925
X0515Y043
X051387Y043829
X0525Y045
X053Y046
X0575Y045
Y043
X0565
Y041
X0575
Y039
X0565
X0575Y037
Y035
Y033
X055Y032
X0555Y035
Y041
X0535Y039
X051387Y037217
X05064Y036827
X049855Y03632
X049Y038
X049855Y03953
X05023Y033813
X051Y032
X049
X047
X04849Y044326
X049Y048
X053
X054
X055
X056
X057
X0575Y047
X0565
X0555
X0545
X0535
X0525
X0545Y049
X0555
X045Y048
X0455Y047
X0445
X041Y048
X037
X0375Y047
X0365
X034Y048
X029
X028
X027
X026
X025
X0255Y047
X0265
X0275
X0285
X0295
X0285Y049
X0275
X0265
T02
X0382Y02138
Y02238
Y02338
Y02438
Y02538
Y02638
Y02738
Y02838
Y02938
Y03038
X0442
Y02938
Y02838
Y02738
Y02638
Y02538
Y02438
Y02338
Y02238
Y02138
Y03138
Y03238
Y03338
Y03438
Y03538
Y03638
Y03738
Y03838
Y03938
Y04038
X0382
Y03938
Y03838
Y03738
Y03638
Y03538
Y03438
Y03338
Y03238
Y03138
T03
X03274Y01415
Y01515
X03574
Y01415
X04202Y014066
Y015444
X049214Y017952
X050592
X03574Y01815
Y01715
Y01615
X03274
Y01715
Y01815
T04
X056868Y022803
Y023803
Y024803
Y025803
Y026803
Y027803
Y028803
Y029803
Y031213
X03581Y02018
X03481
X03381
X03281
X02517Y022628
Y023628
Y024628
Y025628
Y026628
Y027628
Y028628
Y029628
X02515Y031018
Y032018
Y033018
Y034018
Y035018
Y036018
Y037018
Y038018
X025147Y039416
Y040416
Y041416
Y042416
Y043416
Y044416
Y045416
Y046416
X056862Y046581
Y045581
Y044581
Y043581
Y042581
Y041581
Y040581
Y039581
X056868Y038213
Y037213
Y036213
Y035213
Y034213
Y033213
Y032213
X053009Y049136
X052009
X051009
X050009
X049009
X048009
X047009
X046009
X044597Y049138
X043597
X042597
X041597
X040597
X039597
X038597
X037597
X036184Y049136
X035184
X034184
X033184
X032184
X031184
X030184
X029184
T05
X056868Y019696
Y021074
T07
X025288Y01374
X056753Y013848
X056744Y049018
X025193Y049215
M30
