G04*
G04 #@! TF.GenerationSoftware,Altium Limited,Altium Designer,22.7.1 (60)*
G04*
G04 Layer_Color=32896*
%FSLAX24Y24*%
%MOIN*%
G70*
G04*
G04 #@! TF.SameCoordinates,CA99F4AA-E310-4CAD-8695-46E652682A35*
G04*
G04*
G04 #@! TF.FilePolarity,Positive*
G04*
G01*
G75*
%ADD10C,0.0050*%
%ADD17C,0.0039*%
%ADD18C,0.0060*%
D10*
X55118Y20774D02*
X56168D01*
Y21374D01*
X55118D02*
X56168D01*
X55118Y20774D02*
Y21374D01*
X25869Y18132D02*
X26469D01*
Y17082D02*
Y18132D01*
X25869Y17082D02*
X26469D01*
X25869D02*
Y18132D01*
X26419Y18311D02*
Y18911D01*
X25369Y18311D02*
X26419D01*
X25369D02*
Y18911D01*
X26419D01*
X29015Y19394D02*
X29615D01*
Y18344D02*
Y19394D01*
X29015Y18344D02*
X29615D01*
X29015D02*
Y19394D01*
X27440Y19400D02*
X28040D01*
Y18350D02*
Y19400D01*
X27440Y18350D02*
X28040D01*
X27440D02*
Y19400D01*
X28227Y19394D02*
X28827D01*
Y18344D02*
Y19394D01*
X28227Y18344D02*
X28827D01*
X28227D02*
Y19394D01*
D17*
X55568Y21224D02*
X55718D01*
X55568Y20924D02*
X55718D01*
X26019Y17532D02*
Y17682D01*
X26319Y17532D02*
Y17682D01*
X25819Y18761D02*
X25969D01*
X25819Y18461D02*
X25969D01*
X29165Y18794D02*
Y18944D01*
X29465Y18794D02*
Y18944D01*
X27590Y18800D02*
Y18950D01*
X27890Y18800D02*
Y18950D01*
X28377Y18794D02*
Y18944D01*
X28677Y18794D02*
Y18944D01*
D18*
X56168Y21606D02*
Y21906D01*
X56018D01*
X55968Y21856D01*
Y21756D01*
X56018Y21706D01*
X56168D01*
X56068D02*
X55968Y21606D01*
X55868Y21906D02*
X55668D01*
Y21856D01*
X55868Y21656D01*
Y21606D01*
X55568Y21856D02*
X55518Y21906D01*
X55418D01*
X55368Y21856D01*
Y21806D01*
X55418Y21756D01*
X55468D01*
X55418D01*
X55368Y21706D01*
Y21656D01*
X55418Y21606D01*
X55518D01*
X55568Y21656D01*
X29900Y17954D02*
X29950Y18004D01*
X30050D01*
X30100Y17954D01*
Y17754D01*
X30050Y17704D01*
X29950D01*
X29900Y17754D01*
X29800Y17704D02*
X29700D01*
X29750D01*
Y18004D01*
X29800Y17954D01*
X27440Y17430D02*
X27740D01*
Y17580D01*
X27690Y17630D01*
X27590D01*
X27540Y17580D01*
Y17430D01*
Y17530D02*
X27440Y17630D01*
X27740Y17730D02*
Y17930D01*
X27690D01*
X27490Y17730D01*
X27440D01*
X27690Y18030D02*
X27740Y18080D01*
Y18180D01*
X27690Y18230D01*
X27640D01*
X27590Y18180D01*
X27540Y18230D01*
X27490D01*
X27440Y18180D01*
Y18080D01*
X27490Y18030D01*
X27540D01*
X27590Y18080D01*
X27640Y18030D01*
X27690D01*
X27590Y18080D02*
Y18180D01*
X28227Y17430D02*
X28527D01*
Y17580D01*
X28477Y17630D01*
X28377D01*
X28327Y17580D01*
Y17430D01*
Y17530D02*
X28227Y17630D01*
X28527Y17730D02*
Y17930D01*
X28477D01*
X28277Y17730D01*
X28227D01*
X28527Y18030D02*
Y18230D01*
X28477D01*
X28277Y18030D01*
X28227D01*
X29015Y17430D02*
X29315D01*
Y17580D01*
X29265Y17630D01*
X29165D01*
X29115Y17580D01*
Y17430D01*
Y17530D02*
X29015Y17630D01*
X29315Y17730D02*
Y17930D01*
X29265D01*
X29065Y17730D01*
X29015D01*
X29315Y18230D02*
X29265Y18130D01*
X29165Y18030D01*
X29065D01*
X29015Y18080D01*
Y18180D01*
X29065Y18230D01*
X29115D01*
X29165Y18180D01*
Y18030D01*
X26419Y19050D02*
Y19350D01*
X26269D01*
X26219Y19300D01*
Y19200D01*
X26269Y19150D01*
X26419D01*
X26319D02*
X26219Y19050D01*
X26119Y19350D02*
X25919D01*
Y19300D01*
X26119Y19100D01*
Y19050D01*
X25669D02*
Y19350D01*
X25819Y19200D01*
X25619D01*
X26577Y17082D02*
X26877D01*
Y17232D01*
X26827Y17282D01*
X26727D01*
X26677Y17232D01*
Y17082D01*
Y17182D02*
X26577Y17282D01*
X26877Y17382D02*
Y17582D01*
X26827D01*
X26627Y17382D01*
X26577D01*
X26877Y17882D02*
Y17682D01*
X26727D01*
X26777Y17782D01*
Y17832D01*
X26727Y17882D01*
X26627D01*
X26577Y17832D01*
Y17732D01*
X26627Y17682D01*
X29894Y17102D02*
X29944Y17152D01*
X30044D01*
X30094Y17102D01*
Y16902D01*
X30044Y16852D01*
X29944D01*
X29894Y16902D01*
X29595Y16852D02*
X29795D01*
X29595Y17052D01*
Y17102D01*
X29645Y17152D01*
X29745D01*
X29795Y17102D01*
M02*
